<?xml version="1.0" encoding="utf-8"?>
<!-- Generator: Adobe Illustrator 21.1.0, SVG Export Plug-In . SVG Version: 6.00 Build 0)  -->
<svg version="1.1" id="Слой_1" xmlns="http://www.w3.org/2000/svg" xmlns:xlink="http://www.w3.org/1999/xlink" x="0px" y="0px"
	 viewBox="0 0 90 66.3000031" enable-background="new 0 0 90 66.3000031" xml:space="preserve">
<path fill="#F0F0F0" d="M25.7000008,25.1000004c0,6.1000004,12.6000023,6.9999981,12.6000023,21.9999981
	c0,11-7.8999996,19.2000046-18.8999996,19.2000046C7.6999998,66.1999969,0,55.7000008,0,44.5999985C0,25.3999996,18,0,29.2000008,0
	C32,0,37.1000023,2,37.1000023,5.4000001S25.7000027,14.7000008,25.7000008,25.1000004z M77.4000015,25.1000004
	C77.4000015,31.2000008,90,32.0999985,90,47.0999985c0,11-7.9000015,19.2000046-18.9000015,19.2000046
	c-11.7999992,0-19.5-10.5-19.5-21.5999985C51.5999985,25.5,69.5999985,0.1,80.8000031,0.1
	C83.6000061,0.1,88.7000046,2.0999999,88.7000046,5.5S77.4000015,14.6999998,77.4000015,25.1000004z"/>
</svg>
