<svg xmlns="http://www.w3.org/2000/svg" viewBox="0 0 64 64"><path d="M17.022 56.537L17.956 36H18c1.103 0 2-.897 2-2v-2c0-1.103-.897-2-2-2h-.78l1.282-6.412c.177-.885-.049-1.792-.622-2.49S16.463 20 15.561 20H14v-4h2a1 1 0 0 0 1-1v-4a1 1 0 0 0-1-1h-2V8a1 1 0 0 0-1-1H9a1 1 0 0 0-1 1v2H6a1 1 0 0 0-1 1v4a1 1 0 0 0 1 1h2v4H6.439c-.902 0-1.748.4-2.32 1.098s-.799 1.605-.622 2.49L4.78 30H4c-1.103 0-2 .897-2 2v2c0 1.103.897 2 2 2h.044l.934 20.537-4.603 3.682A1 1 0 0 0 0 61v2a1 1 0 0 0 1 1h14v-2H2v-.52L6.35 58H13v-2H6.956l-.91-20h9.907L15 56.955a.999.999 0 0 0 .375.826l1.249.999 1.249-1.562-.851-.681zM9 14H7v-2h2a1 1 0 0 0 1-1V9h2v2a1 1 0 0 0 1 1h2v2h-2a1 1 0 0 0-1 1v5h-2v-5a1 1 0 0 0-1-1zm-3.541 9.196a.997.997 0 0 1 .208-.83.993.993 0 0 1 .772-.366h9.121c.301 0 .583.133.773.366a.995.995 0 0 1 .208.83L15.18 30H6.82l-1.361-6.804zM5 34H4v-2h14l.001 2H5z"/><path d="M34.555 60.168l-2.647-1.765-1.713-9.422A1 1 0 0 0 31 48v-3a1 1 0 0 0-.606-.919A5.977 5.977 0 0 0 32 40c0-3.309-2.691-6-6-6s-6 2.691-6 6c0 1.575.61 3.009 1.606 4.081A1 1 0 0 0 21 45v3a1 1 0 0 0 .805.981l-1.713 9.422-2.647 1.765A1.001 1.001 0 0 0 17 61v2a1 1 0 0 0 1 1h16a1 1 0 0 0 1-1v-2c0-.334-.167-.646-.445-.832zM23 46h6v1h-6v-1zm3-10c2.206 0 4 1.794 4 4s-1.794 4-4 4-4-1.794-4-4 1.794-4 4-4zm7 26H19v-.465L21.303 60H28v-2h-5.802l1.636-9h4.331l1.851 10.179a.999.999 0 0 0 .429.653L33 61.535V62zm7-57h2v2h-2zm-7 0h2v2h-2z"/><path d="M62 0H20c-1.103 0-2 .897-2 2v16h2V2h8v4h-5a1 1 0 0 0-1 1v25h2V8h4v1c0 1.654 1.346 3 3 3h20c1.654 0 3-1.346 3-3V8h4v48H34v2h25a1 1 0 0 0 1-1V7a1 1 0 0 0-1-1h-5V2h8v60H37v2h25c1.103 0 2-.897 2-2V2c0-1.103-.897-2-2-2zM52 9c0 .551-.448 1-1 1H31c-.551 0-1-.449-1-1V2h22v7z"/><path d="M47 5h2v2h-2zm-17 9c-2.206 0-4 1.794-4 4s1.794 4 4 4 4-1.794 4-4-1.794-4-4-4zm0 6c-1.103 0-2-.897-2-2s.897-2 2-2 2 .897 2 2-.897 2-2 2zm3 14c0 2.206 1.794 4 4 4s4-1.794 4-4-1.794-4-4-4-4 1.794-4 4zm4-2c1.103 0 2 .897 2 2s-.897 2-2 2-2-.897-2-2 .897-2 2-2zm13-18c-2.206 0-4 1.794-4 4s1.794 4 4 4 4-1.794 4-4-1.794-4-4-4zm0 6c-1.103 0-2-.897-2-2s.897-2 2-2 2 .897 2 2-.897 2-2 2zm-14-1h4.586l-1.293 1.293 1.414 1.414 3-3a.999.999 0 0 0 0-1.414l-3-3-1.414 1.414L40.586 17H36v2zm8 7h-2v4a1 1 0 0 0 1 1h4v-2h-1.929l4.293-4.293-1.414-1.414-3.95 3.95V26zm8 28c2.206 0 4-1.794 4-4s-1.794-4-4-4-4 1.794-4 4 1.794 4 4 4zm0-6c1.103 0 2 .897 2 2s-.897 2-2 2-2-.897-2-2 .897-2 2-2zm-9-2h4a1 1 0 0 0 1-1v-4h-2v1.243l-3.95-3.95-1.414 1.414L44.929 44H43v2z"/></svg>