<svg xmlns="http://www.w3.org/2000/svg" viewBox="0 0 90 90"><path d="M88 12H78V2c0-1.1-.9-2-2-2H2C.9 0 0 .9 0 2v74c0 1.1.9 2 2 2h10v10c0 1.1.9 2 2 2h74c1.1 0 2-.9 2-2V14c0-1.1-.9-2-2-2zM4 74V4h70v8H14c-1.1 0-2 .9-2 2v60H4zm82 12H16V16h70v70zM65.41 40.41L53.83 52l11.59 11.59c.78.78.78 2.05 0 2.83-.4.38-.91.58-1.42.58s-1.02-.2-1.41-.59L51 54.83 39.41 66.41c-.39.39-.9.59-1.41.59s-1.02-.2-1.41-.59c-.78-.78-.78-2.05 0-2.83L48.17 52 36.59 40.41c-.78-.78-.78-2.05 0-2.83s2.05-.78 2.83 0L51 49.17l11.59-11.59c.78-.78 2.05-.78 2.83 0 .78.79.78 2.05-.01 2.83z"/></svg>