<svg xmlns="http://www.w3.org/2000/svg" viewBox="0 0 41.83 46.085"><path d="M40.83 3.035h-6.89c-.09-1.518.068-2.95-1.14-2.95C5.673.513 8.161-1.495 7.89 3.045c-5.381.307-7.89-.739-7.89 1v2.64c0 6.14 4.22 11.51 10.09 13.01 2.25 6.2 5.84 10.08 9.82 10.63v3.19c-2.667.233-5.14-.65-5.14 1v3.7h12.3v-3.7c0-1.651-2.478-.767-5.16-1v-3.19c3.98-.56 7.56-4.41 9.83-10.63 5.88-1.5 10.09-6.88 10.09-13.02v-2.64c0-.55-.45-1-1-1zM2 5.045h5.81c0 4.354.387 8.146 1.56 12.34C.89 14.148 2.096 5.383 2 5.045zm37.83 1.63c0 4.79-3 9.03-7.34 10.7 1.735-6.074 1.488-11.738 1.54-12.34h5.8v1.64zm-11.48 33.54H13.49a2.36 2.36 0 0 0-2.36 2.37c.161 1.282-.544 3.5 1 3.5h17.58c1.543 0 .837-2.232 1-3.5 0-1.31-1.06-2.37-2.36-2.37z"/></svg>