<svg xmlns="http://www.w3.org/2000/svg" viewBox="0 0 21.193 21.22">
	<path
		d="M10.583 1.588c4.975 0 9.023 4.048 9.023 9.022s-4.048 9.022-9.023 9.022c-4.974 0-8.995-4.048-8.995-9.022s4.021-9.022 8.995-9.022m0-1.588C4.736 0 0 4.763 0 10.61c0 5.847 4.736 10.61 10.61 10.61s10.583-4.763 10.583-10.61C21.193 4.763 16.431 0 10.583 0z"/>
	<path
		d="M11.218 15.399a.98.98 0 0 1-.688.264c-.264 0-.502-.079-.714-.264-.212-.185-.317-.424-.317-.741 0-.291.105-.53.29-.714.186-.186.45-.291.715-.291.291 0 .53.105.714.29a.977.977 0 0 1 .291.715.996.996 0 0 1-.29.74zm2.487-6.218c-.158.291-.344.53-.555.74a36.22 36.22 0 0 1-1.138 1.06c-.159.132-.264.264-.37.37-.08.105-.16.211-.212.29-.053.08-.08.186-.106.265-.026.08-.053.238-.106.45-.079.476-.344.688-.793.688a.778.778 0 0 1-.582-.238c-.16-.159-.239-.37-.239-.688 0-.37.053-.714.186-.979a2.19 2.19 0 0 1 .45-.714c.185-.212.45-.45.767-.741.29-.238.502-.45.608-.556.133-.132.238-.264.318-.423a1.146 1.146 0 0 0-.265-1.402c-.264-.239-.608-.37-1.032-.37-.502 0-.846.131-1.085.37-.238.238-.423.608-.582 1.084-.158.503-.45.768-.873.768a.86.86 0 0 1-.635-.265c-.185-.185-.264-.37-.264-.582 0-.423.132-.847.397-1.297.264-.423.661-.793 1.19-1.084.53-.291 1.138-.424 1.826-.424.661 0 1.217.133 1.72.37.502.239.873.556 1.164.98.264.423.397.846.397 1.35.053.37-.027.687-.186.978z"/>
</svg>
