<svg xmlns="http://www.w3.org/2000/svg" viewBox="0 0 86 86"><path d="M43 0C19.264 0 0 19.264 0 43s19.264 43 43 43 43-19.264 43-43S66.736 0 43 0zm-1 2.063V21H25.25c.857-2.642 1.868-5.072 3-7.25C31.84 7.334 36.218 2.627 42 2.062zm2 0c5.305.476 10.125 4.71 13.75 11.687 1.132 2.178 2.143 4.608 3 7.25H44V2.062zm-9.438.812c-3.124 2.236-5.876 5.67-8.093 9.938-1.278 2.46-2.384 5.21-3.313 8.187H8.406C14.238 11.846 23.58 5.166 34.563 2.875zm16.876 0C62.42 5.165 71.761 11.845 77.594 21h-14.75c-.93-2.976-2.035-5.728-3.313-8.188-2.217-4.266-4.97-7.701-8.093-9.937zM7.188 23h15.375C20.995 28.704 20.08 35.162 20 42H2.031c.164-6.889 2.001-13.358 5.156-19zm17.468 0H42v19H22c.085-6.887 1.048-13.36 2.656-19zM44 23h17.344c1.608 5.64 2.571 12.113 2.656 19H44V23zm19.438 0h15.374c3.156 5.642 4.993 12.111 5.157 19H66c-.08-6.838-.996-13.296-2.563-19zM2.03 44H20c.08 6.851 1.02 13.296 2.594 19H7.187c-3.155-5.642-4.992-12.111-5.156-19zM22 44h20v19H24.656C23.047 57.368 22.085 50.888 22 44zm22 0h20c-.085 6.888-1.047 13.368-2.656 19H44V44zm22 0h17.969c-.164 6.889-2.001 13.358-5.156 19H63.406C64.98 57.296 65.92 50.851 66 44zM8.406 65h14.75c.927 2.961 2.039 5.704 3.313 8.156 2.23 4.291 5.01 7.726 8.156 9.969C23.616 80.846 14.249 74.171 8.406 65zm16.875 0H42v18.938c-5.305-.48-10.125-4.742-13.75-11.72-1.126-2.167-2.115-4.595-2.969-7.218zM44 65h16.719c-.854 2.623-1.843 5.051-2.969 7.219-3.625 6.977-8.445 11.239-13.75 11.719V65zm18.844 0h14.75c-5.843 9.17-15.21 15.846-26.219 18.125 3.146-2.244 5.927-5.678 8.156-9.969 1.274-2.451 2.386-5.195 3.313-8.156z"/></svg>