<svg xmlns="http://www.w3.org/2000/svg" viewBox="0 0 126.604 146.913"><path d="M22.504 21.4c-.4 13.5 2 27.5 5.4 40.5 6.7 25.6 20.3 49.6 41.9 65.4 15.9 11.6 35 17.5 54.4 19.6 3.2.3 3.2-4.7 0-5-31.7-3.4-59.8-18.8-76.7-46.2-11.3-18.3-17.3-39.7-19.3-61-.4-4.4-.7-8.9-.6-13.3 0-3.2-5-3.2-5.1 0z"/><path d="M81.404 133.8s16.4-19-4.6-33.3c0 0-16.4 19.1 4.6 33.3z"/><path d="M60.204 117.3s21.2-18.3.4-37.5c-.1 0-21.3 18.4-.4 37.5z"/><path d="M72.804 128.4s-15-23.7-37-5.9c0 0 15 23.7 37 5.9zm-24.8-26.4s-7.1-23.1-29.4-13.3c0 0 7.1 23.1 29.4 13.3zm-12.6-26.7s-5.6-23.5-28.5-15.2c-.1 0 5.5 23.5 28.5 15.2zm-7.2-24.3s1-29-28.2-26.6c0 0-1 28.9 28.2 26.6z"/><path d="M41.304 92.5s22.8-13 7.1-34.4c0 0-22.8 13-7.1 34.4zm-10.2-29.8s24.1-7.4 13.9-30.8c0 .1-24.1 7.5-13.9 30.8zm-5-24.9s28.4-10.5 14.6-37.8c0 0-28.4 10.5-14.6 37.8z"/></svg>