<svg xmlns="http://www.w3.org/2000/svg" viewBox="0 0 70 70"><path d="M46 0c-6.604 0-12 5.396-12 12 0 1.963.469 3.83 1.313 5.469l-15.5 11.437A11.95 11.95 0 0 0 12 26C5.396 26 0 31.396 0 38s5.396 12 12 12a11.93 11.93 0 0 0 8.344-3.375l25.812 9.469c-.1.623-.156 1.255-.156 1.906 0 6.604 5.396 12 12 12s12-5.396 12-12-5.396-12-12-12c-4.54 0-8.525 2.573-10.563 6.313L22.782 43.25A11.932 11.932 0 0 0 24 38c0-2.191-.59-4.228-1.625-6l15.344-11.344A11.911 11.911 0 0 0 46 24c6.604 0 12-5.396 12-12S52.604 0 46 0z"/></svg>