<svg xmlns="http://www.w3.org/2000/svg" viewBox="0 0 420 802.768">
	<defs>
		<clipPath id="unicorn">
			<path
				d="M419.903 746.371l.097 56.397H14.43l.096-56.397c2.431-47.937 36.075-89.068 82.456-100.93-18.863-11.377-24.99-34.422-26.253-58.634-23.531-3.014-24.698-36.366-4.765-43.561-52.896-105.987 125.143-178.234 137.492-293.07.486-4.375-1.848-16.335-3.695-21.683-2.626 8.654-4.279 19.642-14.586 27.907-13.515 10.793-47.742 17.891-63.397 18.572-25.962 1.07-25.67 21.197-42.395 25.768-28.588 7.584-54.647-23.92-50.466-51.05 1.556-10.404 60.967-73.12 73.413-89.942 7.682-10.502 9.335-14.391 15.072-23.434 6.612-10.599 18.961-18.086 22.559-23.531 1.944-2.917.194-8.46-.875-12.836-5.154-21.78-2.626-38.019-.973-58.438 26.837 10.21 40.84 20.905 62.815 38.991 15.85 13.322 7.39 7.974 8.07 2.82 1.556-12.349 11.182-17.502 24.406-16.919 93.639 3.792 164.912 112.988 177.261 197.875 11.571 80.025-14.196 130.685-32.38 203.515-6.125 24.406-7.292 49.882-11.765 74.871 22.365 5.543 21.003 40.937-2.82 44.145-1.264 24.212-7.39 47.257-26.253 58.634 46.381 11.862 80.025 52.993 82.456 100.93z"/>
			<path d="M140.443 135.688l160.1 74.408L0 0l140.443 135.688z"/>
		</clipPath>
	</defs>
</svg>
