<svg xmlns="http://www.w3.org/2000/svg" viewBox="0 0 260 390"><path fill="#252525" d="M0 0v260h65l68.88 130L195 260h65V0z"/><path fill="#FFF" d="M147.19 109.52c12.447 9.273 19.217 19.377 20.31 30.31h10.23c7.187 0 10.78 2.5 10.78 7.5a9.81 9.81 0 0 1-3.83 8.2c-2.553 2-6.07 3-10.55 3h-5.78c-1.133 16.313-7.223 30.107-18.27 41.38-11.046 11.273-23.963 16.94-38.75 17-11.46 0-20.966-3.607-28.52-10.82-7.553-7.213-11.33-16.313-11.33-27.3 0-11.827 4.194-21.267 12.58-28.32s19.584-10.583 33.59-10.59h29c-2-7.333-6.973-13.14-14.92-17.42l-2.38-1.3c-4.373-2.293-6.56-5.313-6.56-9.06 0-2.347 1.484-5.237 4.45-8.67l28.2-32.89h-32.31c-7.186-.007-10.78-2.483-10.78-7.43a9.93 9.93 0 0 1 3.79-8.28c2.527-2 6.08-3 10.66-3h45.08c8.667 0 13 3.387 13 10.16 0 3.02-1.456 6.17-4.37 9.45l-33.32 38.08zm.55 49h-18.39c-11.773 0-19.95.937-24.53 2.81-8.573 3.473-12.86 9.363-12.86 17.67a17.32 17.32 0 0 0 5.9 13.24 20.5 20.5 0 0 0 14.41 5.43c8.487 0 16.13-3.75 22.93-11.25s10.98-16.807 12.54-27.92v.02z"/></svg>