<svg opacity=".6" xmlns="http://www.w3.org/2000/svg" viewBox="0 0 10.827 9.846"><g fill="#6D6E72"><path d="M5.413 3.395c.407 0 .776.165 1.042.432a1.469 1.469 0 0 1 0 2.084 1.469 1.469 0 0 1-1.042.431A1.469 1.469 0 0 1 3.94 4.87c0-.407.165-.775.432-1.042a1.469 1.469 0 0 1 1.041-.432zm.93.545a1.31 1.31 0 0 0-1.858 0 1.31 1.31 0 0 0 0 1.857 1.31 1.31 0 0 0 1.857 0 1.31 1.31 0 0 0 0-1.857z"/><path d="M4.373 4.552l.736.008.211-.672.077.024-.077-.024a.08.08 0 0 1 .154.004l.242.673.745.005v.08-.08a.08.08 0 0 1 .043.147l-.586.408.245.674a.08.08 0 0 1-.124.09l-.609-.424-.591.415-.046-.065.046.065a.08.08 0 0 1-.12-.096l.212-.664-.61-.422.045-.066-.046.066a.08.08 0 0 1 .053-.146zm.793.168l-.54-.006.44.304a.08.08 0 0 1 .035.094l-.16.502.439-.308a.08.08 0 0 1 .096-.004l.45.314-.177-.489a.08.08 0 0 1 .027-.099l.046.066-.046-.066.433-.3-.543-.004a.08.08 0 0 1-.082-.053l.076-.027-.075.027-.183-.51-.157.498a.08.08 0 0 1-.079.061zm1.338-.003a.08.08 0 0 1-.043.013M5.711 1.222h.877a.08.08 0 0 1 .075.109l-.655 2.266a.08.08 0 0 1-.112.05 1.304 1.304 0 0 0-.807-.051l-.02-.078.02.078a.08.08 0 0 1-.094-.107l.638-2.209a.08.08 0 0 1 .078-.058zm.77.16H5.77l-.587 2.031a1.505 1.505 0 0 1 .51.009c.063.012.125.028.185.048l.604-2.088z"/><path d="M5.057 1.382h-.712l.604 2.088.008-.002.048-.015.325-1.125-.273-.946zm-.818-.16h.876a.08.08 0 0 1 .079.058l.294 1.02a.08.08 0 0 1 .002.05l-.077-.022.077.022-.342 1.184a.08.08 0 0 1-.059.062l-.02-.078.02.078a1.306 1.306 0 0 0-.171.056.08.08 0 0 1-.1-.055h.001L4.164 1.33a.08.08 0 0 1 .075-.109z"/><g><path d="M.534 0h9.759a.532.532 0 0 1 .534.534v7.32a.532.532 0 0 1-.534.533H.533A.532.532 0 0 1 0 7.853V.533A.532.532 0 0 1 .534 0zm9.759.16H.533A.373.373 0 0 0 .16.534v7.32a.373.373 0 0 0 .374.373h9.759a.373.373 0 0 0 .374-.374V.533a.373.373 0 0 0-.374-.373z"/><path d="M.534.436h9.759a.098.098 0 0 1 .098.098V7.03a.098.098 0 0 1-.098.098H.533a.098.098 0 0 1-.098-.098V.534A.098.098 0 0 1 .535.436zm9.697.16H.596v6.373h9.635V.596zM5.413 7.4a.278.278 0 0 1 .197.475.278.278 0 0 1-.475-.197.278.278 0 0 1 .278-.279zm.084.194a.118.118 0 0 0-.202.084.118.118 0 0 0 .202.084.118.118 0 0 0 0-.168zM4.115 8.227h2.676v1.118H4.035V8.227h.08zm2.516.16H4.195v.798h2.436v-.798z"/><path d="M2.862 9.686h5.102v-.34H2.862v.34zm5.182.16H2.782a.08.08 0 0 1-.08-.08v-.5a.08.08 0 0 1 .08-.08h5.262a.08.08 0 0 1 .08.08v.5a.08.08 0 0 1-.08.08z"/></g></g></svg>