<?xml version="1.0" encoding="utf-8"?>
<!-- Generator: Adobe Illustrator 21.1.0, SVG Export Plug-In . SVG Version: 6.00 Build 0)  -->
<svg version="1.1"
	 id="svg987" inkscape:version="0.92.3 (2405546, 2018-03-11)" sodipodi:docname="noun_Business_2604014.svg" xmlns:cc="http://creativecommons.org/ns#" xmlns:dc="http://purl.org/dc/elements/1.1/" xmlns:inkscape="http://www.inkscape.org/namespaces/inkscape" xmlns:rdf="http://www.w3.org/1999/02/22-rdf-syntax-ns#" xmlns:sodipodi="http://sodipodi.sourceforge.net/DTD/sodipodi-0.dtd" xmlns:svg="http://www.w3.org/2000/svg"
	 xmlns="http://www.w3.org/2000/svg" xmlns:xlink="http://www.w3.org/1999/xlink" x="0px" y="0px"
	 viewBox="0 0 475.0652161 470.8500061" enable-background="new 0 0 475.0652161 470.8500061" xml:space="preserve">
<g id="g909">
	<g id="g907">
		<path id="path905" fill="#008080" d="M254.8161926,437.5509949c-10.5599976,0-15.928009-0.07901-21.118988-0.1549988
			c-5.1190033-0.0750122-10.4120026-0.1530151-20.8249969-0.1530151c-12.8959961,0-27.529007-8.8959961-28.6809998-23.2709961
			c-0.6320038-7.8800049,0.6000061-13.0450134,1.5-16.8160095c0.6569977-2.7539978,0.9929962-4.1650085,0.4120026-6.25
			c-12.2140045-3.4979858-23.6849976-8.2650146-34.821991-14.4700012c-2.4909973,1.2619934-3.4440002,2.5920105-5.2429962,5.1029968
			c-2.0879974,2.9140015-4.9470062,6.9049988-10.4759979,11.6130066
			c-5.3630066,4.5669861-13.2480011,7.2940063-21.0919952,7.2940063c-7.3099976,0-13.7470016-2.4100037-18.125-6.7879944
			c-8.3330002-8.3330078-11.5709991-13.9150085-14.4290009-18.8399963
			c-2.5670013-4.4259949-4.7850037-8.2479858-11.2709961-14.7330017
			c-4.3420029-4.3420105-12.9889984-16.1470032,0.473999-31.9549866c2.7959976-3.2839966,5.0680008-5.6809998,6.8929977-7.605011
			c3.7340012-3.9400024,5.3359985-5.631012,7.3960037-10.8760071
			c-5.3690033-10.0880127-10.1049957-22.8269958-14.3840027-38.6799927
			c-0.8960037-0.2279968-1.5360031-0.2709961-2.0149994-0.2709961c-1.3379974,0-2.8529968,0.375-4.9489975,0.894989
			c-3.3929977,0.8410034-7.6159973,1.8869934-13.439003,1.8880005c-1.2900009,0-2.6220016-0.0539856-3.9589996-0.1579895
			c-13.5810013-1.0669861-23.4380016-11.9389954-23.4380016-25.8510132c0-9.894989-0.5719986-14.7030029-1.1769981-19.7929993
			c-0.6469994-5.4450073-1.3170013-11.076004-1.3170013-22.1549988c0-13.5370026,11.8110027-25.9219971,25.7920017-27.0440063
			c3.0299988-0.2429962,5.8399963-0.3569946,8.8440018-0.3569946c1.0220032,0,1.9560013,0.0130005,2.8290024,0.0249939
			c0.6790009,0.0090027,1.3160019,0.0180054,1.9280014,0.0180054c2.2979965,0,3.8759995,0,7.9820023-1.7929993
			c3.6230011-11.2059937,9.3919983-20.4230042,14.9929962-29.371994c0.7809982-1.2480011,1.5749969-2.5160065,2.3659973-3.7960052
			c-1.6149979-3.6040039-3.1679993-4.9850006-6.1279984-7.6179962c-2.5029984-2.2259979-5.6180038-4.996994-9.5220032-9.5820007
			c-9.3430023-10.970993-9.3550034-24.6080017-0.0299988-33.9329987c7.1780014-7.178009,10.4370041-10.8930054,13.8860016-14.826004
			c3.5100021-4.0019989,7.1399994-8.1399994,14.7789993-15.7800026c5.4089966-5.4089966,13.5740051-8.6380005,21.8419952-8.6380005
			c6.4329987,0,12.125,1.9520035,16.4620056,5.6459961c6.5850067,5.6069984,9.2400055,10.9599953,11.1790009,14.8690071
			c1.2070007,2.4339905,1.8329926,3.6949921,3.1410065,4.6459961c9.9920044-5.2460022,22.7319946-9.9349976,38.6750031-14.2380028
			c1.151001-3.2659988,0.9170074-5.340004,0.4799957-9.2159958c-0.4199982-3.7290039-0.9429932-8.3700027-0.4080048-15.038002
			c1.2079926-15.0410004,10.2559967-24.7590027,23.052002-24.7590027c10.7200012,0,16.1699982,0.2550011,21.4399872,0.5009995
			c5.2730103,0.2470016,10.2539978,0.4790001,20.5079956,0.4790001c12.8510132,0,27.4309998,9.0460014,28.57901,23.6619987
			c0.0299988,0.3960037,0.0379944,0.7929993,0.0209961,1.1900024c-0.1860046,4.5619965-0.5969849,7.8600006-0.927002,10.5110016
			c-0.552002,4.4319992-0.7349854,5.9059982,1.0069885,9.8740005c11.0339966,3.6049995,20.3179932,9.5170021,29.3320007,15.2560005
			c1.4400024,0.9169922,2.8429871,1.8109894,4.2340088,2.6839905c0.9440002-0.9129944,1.5069885-2.2039948,2.5169983-4.522995
			c1.8640137-4.2839966,4.4190063-10.151001,11.2909851-16.0030022c3.6149902-3.0800018,8.0339966-4.7070007,12.776001-4.7070007
			c9.8469849,0,18.2420044,6.9250031,22.3699951,11.053997c6.4389954,6.4390106,10.2789917,8.602005,14.7250061,11.1060028
			c5.0029907,2.8180084,10.6730042,6.0120087,19.052002,14.3899994c6.8930054,6.8939972,9.6820068,19.6330109-3.1619873,34.7140045
			c-3.9039917,4.5850067-7.1019897,7.4290009-9.6700134,9.7129974c-3.1340027,2.7870026-4.8519897,4.3139954-6.5610046,8.1080017
			c6.8710022,12.3059998,12.7839966,26.2030029,16.4720154,38.701004c1.552002,0.4989929,2.5969849,0.5899963,3.3900146,0.5899963
			c1.2950134,0,2.776001-0.253006,4.6520081-0.5740051c2.9159851-0.4989929,6.5440063-1.1190033,11.3569946-1.1190033
			c1.5419922,0,3.1400146,0.0650024,4.75,0.1940002c13.7900085,1.1049957,28.053009,10.7550049,28.053009,24.9900055
			c0,11.5460052-1.3129883,17.6679993-2.4719849,23.0699921c-1.0870056,5.0690002-2.026001,9.447998-2.026001,18.8739929
			c0,14.1719971-10.0870056,25.6499939-23.4630127,26.7000122c-1.8280029,0.1430054-3.6300049,0.2160034-5.3540039,0.2160034
			c-3.9660034,0-6.9779968-0.3729858-9.3970032-0.6730042c-1.5629883-0.1929932-2.79599-0.3469849-3.8559875-0.3469849
			c-0.980011,0-2.1690063,0.1300049-4.0809937,0.821991c-3.3070068,12.6830139-6.5549927,23.2520142-12.3970032,34.1520081
			c1.2919922,2.8269958,2.4830017,3.7619934,4.9190063,5.67099c2.5769958,2.0209961,6.1059875,4.7879944,10.519989,9.9700012
			c8.2550049,9.6919861,9.8999939,29.7260132-0.4379883,40.0639954
			c-7.9890137,7.9880066-12.7160034,11.3760071-17.2869873,14.6520081
			c-4.0969849,2.9370117-7.9660034,5.7090149-14.7950134,12.5390015c-4.4790039,4.4790039-10.42099,6.9450073-16.7309875,6.9450073
			c-6.4440002,0-12.9490051-2.5159912-18.3129883-7.0849915c-5.4450073-4.6380005-8.4410095-8.723999-10.6279907-11.7080078
			c-2.0450134-2.7900085-3.1759949-4.3330078-5.8280029-5.7160034
			c-11.0700073,6.6390076-22.4869995,13.4400024-35.3840027,17.5119934c-1.0379944,2.8420105-0.8160095,4.4159851-0.3640137,7.625
			c0.4790039,3.401001,1.1359863,8.0610046,0.5910034,15.0180054
			C281.2452087,427.1300049,269.1772156,437.5509949,254.8161926,437.5509949z M152.0912018,355.3630066
			c1.7810059,0,3.5500031,0.4760132,5.1139984,1.4060059c12.4320068,7.3970032,24.7189941,12.5020142,38.6679993,16.0629883
			c2.798996,0.7149963,5.1519928,2.605011,6.4539948,5.1849976c5.3399963,10.5820007,4.4869995,16.7780151,2.8170013,23.7780151
			c-0.75,3.1430054-1.3970032,5.8559875-1.0180054,10.57901c0.1699982,2.125,4.4409943,4.8680115,8.7449951,4.8680115
			c10.5599976,0,15.9279938,0.07901,21.1199951,0.1549988c5.118988,0.0750122,10.4119873,0.1530151,20.8240051,0.1530151
			c3.7260132,0,7.3160095-2.5209961,7.5329895-5.2879944c0.375-4.7720032-0.0480042-7.7669983-0.4549866-10.6629944
			c-0.9859924-6.9920044-1.2720032-12.7550049,4.0469971-23.2720032c1.3049927-2.57901,3.6610107-4.4679871,6.4630127-5.1789856
			c12.1919861-3.0969849,23.8739929-10.1029968,35.17099-16.8779907c1.2999878-0.7799988,2.5939941-1.5559998,3.8819885-2.321991
			c2.5039978-1.4909973,5.5350037-1.8139954,8.2980042-0.8859863c11.9689941,4.0209961,16.0499878,9.5889893,19.6499939,14.5020142
			c1.95401,2.6659851,3.7999878,5.1839905,7.4639893,8.3049927c1.7000122,1.446991,3.697998,2.3120117,5.3460083,2.3120117
			c1.0390015,0,1.8380127-0.3359985,2.5899963-1.0880127c7.9890137-7.9880066,12.7160034-11.3760071,17.2869873-14.6520081
			c4.0970154-2.9360046,7.9660034-5.7090149,14.7950134-12.5390015c1.9320068-1.9320068,1.8710022-10-0.6459961-12.9549866
			c-3.1090088-3.6499939-5.4089966-5.4530029-7.6329956-7.196991c-5.4649963-4.2839966-9.3269958-7.9259949-13.0679932-19.0660095
			c-0.928009-2.7630005-0.6040039-5.7929993,0.8859863-8.2969971c6.8479919-11.5069885,9.9190063-22.4459839,13.822998-37.8200073
			c0.7109985-2.802002,2.6000061-5.1579895,5.1789856-6.4630127c6.5660095-3.3210144,11.6749878-4.7380066,17.0799866-4.7380066
			c2.2940063,0,4.3389893,0.2539978,6.3150024,0.4989929c2.1629944,0.2680054,4.2059937,0.5209961,6.9379883,0.5209961
			c1.2229919,0,2.4630127-0.0509949,3.7919922-0.1549988c3.2999878-0.2590027,5.026001-3.5969849,5.026001-6.7609863
			c0-11.54599,1.3129883-17.6679993,2.4719849-23.0690002c1.0870056-5.0700073,2.026001-9.4490051,2.026001-18.875
			c0-1.2070007-4.2789917-4.6230011-9.6499939-5.0540009c-1.0960083-0.0870056-2.1270142-0.1300049-3.1520081-0.1300049
			c-3.1159973,0-5.4819946,0.404007-7.9859924,0.8329926c-2.473999,0.4230042-5.0310059,0.8600006-8.0230103,0.8600006
			c-5.256012,0-10.269989-1.3470001-16.2550049-4.3679962c-2.57901-1.302002-4.4700012-3.6549988-5.1849976-6.4539948
			c-3.348999-13.1170044-10.2659912-29.3939972-18.0509949-42.477005c-1.4899902-2.5050049-1.8129883-5.5350037-0.8859863-8.2980042
			c4.0650024-12.1029968,8.7860107-16.302002,13.7839966-20.746994c2.3240051-2.0670013,4.7290039-4.2059937,7.7340088-7.7350006
			c3.519989-4.1329956,4.2330017-6.8280029,4.2659912-7.5850067c-0.006012-0.0059967-0.0130005-0.0130005-0.019989-0.0200043
			c-6.4389954-6.4390106-10.2789917-8.602005-14.7250061-11.1060028
			c-5.0029907-2.8180084-10.6730042-6.0120087-19.052002-14.3899994c-3.67099-3.6719971-6.8580017-5.1090088-8.1159973-5.1920013
			c-3.2940063,2.8389893-4.3649902,5.298996-5.8410034,8.6889954c-2.427002,5.5749969-5.7510071,13.2100067-18.2330017,17.4029999
			c-2.7609863,0.9279938-5.7929993,0.6049957-8.2969971-0.8860016c-3.1860046-1.8960114-6.2940063-3.875-9.3009949-5.7900085
			c-9.3210144-5.9349976-18.125-11.5410004-28.125-14.0809937c-2.7980042-0.7109985-5.1520081-2.5960083-6.4580078-5.1710052
			c-6.125-12.0849953-5.8580017-17.2079964-4.8599854-25.2209969c0.276001-2.2190018,0.5870056-4.711998,0.7529907-8.0220032
			c-0.5580139-2.2200012-4.5620117-4.8679962-8.5799866-4.8679962c-10.7210083,0-16.17099-0.2549973-21.4410095-0.5009995
			c-5.272995-0.2470016-10.2539978-0.4789963-20.5070038-0.4789963c-1.0330048,0-1.201004,0.223999-1.4799957,0.5960007
			c-0.3090057,0.4110031-1.3379974,2.0419998-1.6369934,5.7639999c-0.3809967,4.7440033-0.0110016,8.0240021,0.3470001,11.1969986
			c0.7259979,6.4430008,1.4779968,13.105999-4.2460022,24.4230003c-1.302002,2.5749969-3.654007,4.4619904-6.4499969,5.1759949
			c-18.9369965,4.8350067-32.9039917,10.0189972-42.6990051,15.8480072
			c-2.503006,1.4900055-5.5339966,1.8139954-8.2969971,0.8860016
			c-12.3130035-4.1350098-15.8289948-11.2230072-18.3959961-16.3970032
			c-1.5469971-3.1200104-2.7689972-5.5830078-6.2279968-8.529007c-0.4949951-0.42099-1.6730042-0.871994-3.4949951-0.871994
			c-2.8509979,0-6.0890045,1.1689911-7.6999969,2.7799988c-7.1779938,7.1779938-10.435997,10.8929901-13.8860016,14.826004
			c-3.5100021,4.0019989-7.1399994,8.1399994-14.7799988,15.7799988c-0.7590027,0.7590027-2.5370026,2.5370026,1.1139984,6.8240051
			c3.0049973,3.529007,5.3339996,5.6000061,7.586998,7.6040039c5.8069992,5.1640015,9.6050034,9.1139984,13.3969955,20.4029999
			c0.9279938,2.7630005,0.6040039,5.7929993-0.8860016,8.2980042c-1.697998,2.8529968-3.4209976,5.6060028-5.086998,8.2689972
			c-6.0459976,9.6589966-11.2669983,18.0009918-13.9039993,28.3300018c-0.7139969,2.7960052-2.6009979,5.147995-5.177002,6.4499969
			c-9.7099991,4.9100037-14.4589996,5.7740021-20.8470001,5.7740021c-0.6989975,0-1.427002-0.0099945-2.2020035-0.0200043
			c-0.788002-0.0110016-1.6309967-0.022995-2.5550003-0.022995c-1.5449982,0-3.9779968,0.0310059-7.2429962,0.2920074
			c-3.5230026,0.2830048-7.3929977,4.003006-7.3929977,7.1089935c0,9.8950043,0.5719986,14.7030029,1.177002,19.7929993
			c0.6470032,5.4450073,1.3170013,11.0750122,1.3170013,22.1549988c0,1.2950134,0.3610001,5.5469971,5.0049973,5.9110107
			c0.8180008,0.0639954,1.6230011,0.0979919,2.3919983,0.0979919c3.3830032-0.0010071,5.8150024-0.6040039,8.6309967-1.3009949
			c2.8030014-0.6940002,5.9790039-1.4809875,9.7590027-1.4809875c4.836998,0,9.5849991,1.2650146,14.9430008,3.9790039
			c2.5749969,1.3059998,4.4599991,3.6600037,5.1709976,6.4590149c4.7330017,18.6390076,9.9120026,32.5339966,15.8309937,42.480011
			c1.4909973,2.5050049,1.8139954,5.5350037,0.8860016,8.2980042c-4.137001,12.3169861-7.4100037,16.1409912-13.3119965,22.3680115
			c-1.7490005,1.8450012-3.7300034,3.9360046-6.1819992,6.8139954c-1.8280029,2.1459961-2.3290024,3.3389893-2.4599991,3.7569885
			c0.1149979,0.1919861,0.3720016,0.5589905,0.9020004,1.0889893c8.3330002,8.3330078,11.5709991,13.9150085,14.4290009,18.8399963
			c2.5670013,4.4259949,4.784996,8.2479858,11.2710037,14.7330017c0.2579956,0.2590027,1.4790039,0.9309998,3.9819946,0.9309998
			c3.3910065,0,6.654007-1.2680054,8.125-2.5209961c3.6640015-3.1199951,5.3739929-5.5069885,7.1840057-8.0339966
			c4.1889954-5.8469849,8.0130005-10.2730103,19.1289978-14.0069885
			C149.9452057,355.5350037,151.0212097,355.3630066,152.0912018,355.3630066z"/>
	</g>
</g>
<g id="g915">
	<g id="g913">
		<path id="path911" fill="#008080" d="M312.71521,170.6360016c-2.9110107,0-5.7969971-1.2649994-7.7730103-3.7019958
			c-6.9710083-8.595993-15.3380127-15.875-24.868988-21.6320038c-4.7279968-2.8560028-6.243988-9.003006-3.3890076-13.7299957
			c2.8559875-4.7259979,9.0029907-6.2429962,13.730011-3.3889923c11.5159912,6.9570007,21.631012,15.7570038,30.0629883,26.1549988
			c3.4790039,4.2899933,2.8200073,10.5870056-1.4689941,14.0650024
			C317.1552124,169.9049988,314.9272156,170.6360016,312.71521,170.6360016z"/>
	</g>
</g>
<g id="g921">
	<g id="g919">
		<path id="path917" fill="#008080" d="M231.3212128,340.2600098c-1.1459961,0-2.2480011-0.1929932-3.272995-0.5480042
			c-1.3950043,0.0270081-2.8099976,0.0690002-4.2709961,0.1109924c-9.3179932,0.269989-18.951004,0.5499878-28.4629974-2.5559998
			c-10.6119995-3.4649963-19.4750061-10.0480042-27.2949982-15.8559875
			c-1.2369995-0.9190063-2.4689941-1.8340149-3.6999969-2.7309875c-1.3119965-0.9570007-2.6410065-1.9049988-3.973999-2.8569946
			c-8.2649994-5.901001-16.8110046-12.0039978-23.2709961-20.8640137
			c-5.9290009-8.1319885-8.6009979-17.3150024-11.1849976-26.196991c-0.7409973-2.5490112-1.4420013-4.9570007-2.2120056-7.3150024
			c-0.8040009-2.4639893-1.7660065-4.9909973-2.7830048-7.6659851c-3.0570068-8.0360107-6.5209961-17.144989-6.5209961-27.3110046
			c0-11.3730011,2.0749969-23.4859924,6.1669922-36.0029907c3.3639984-10.2910004,9.7749939-18.8110046,15.4320068-26.3280029
			c1.1340027-1.5070038,2.2630005-3.0070038,3.3600006-4.5110016c6.9640045-9.548996,15.2160034-17.7400055,25.2250061-25.0410004
			c1.6719971-1.2200012,3.3329926-2.4839935,5.0899963-3.822998c7.302002-5.5619965,15.5789948-11.8659973,25.6450043-15.1569977
			c9.4750061-3.0980072,19.0700073-2.8049927,28.3500061-2.5180054c2.6600037,0.0820007,5.1719971,0.1589966,7.6809998,0.1589966
			c5.5220032,0,10,4.477005,10,10s-4.4779968,10-10,10c-2.8159943,0-5.6009979-0.0850067-8.2940063-0.1679993
			c-7.9069977-0.2420044-15.3739929-0.4720001-21.5209961,1.5379944
			c-6.852005,2.2400055-13.1130066,7.0090027-19.7409973,12.0579987c-1.7619934,1.3419952-3.5829926,2.7290039-5.4230042,4.0709991
			c-8.3079987,6.0599976-15.1289978,12.8199921-20.8529968,20.6679993c-1.1549988,1.5839996-2.3439941,3.1640015-3.5379944,4.75
			c-5.1790009,6.8829956-10.0700073,13.3840027-12.4029999,20.5180054
			c-3.4349976,10.5070038-5.177002,20.5299988-5.177002,29.7890015c0,6.4910126,2.5330048,13.1490021,5.2149963,20.1999969
			c1.0570068,2.7770081,2.1490021,5.6489868,3.102005,8.5690002c0.8710022,2.6669922,1.6499939,5.3460083,2.404007,7.9360046
			c2.1990051,7.5599976,4.2769928,14.7009888,8.1419983,20.0010071
			c4.5549927,6.2470093,11.4409943,11.1640015,18.7330017,16.3710022c1.3869934,0.9899902,2.7700043,1.9779968,4.1340027,2.9729919
			c1.279007,0.9320068,2.5590057,1.8829956,3.8439941,2.8370056c7.2330017,5.3729858,14.0650024,10.446991,21.5769958,12.8999939
			c6.2039948,2.0249939,13.7189941,1.8039856,21.6750031,1.5759888c2.6390076-0.0769958,5.3670044-0.1560059,8.125-0.1560059
			c1.1740112,0,2.3009949,0.2019958,3.3479919,0.5740051c9.5950012-0.0660095,18.2609863-0.5169983,26.1059875-3.0750122
			c9.1319885-2.9779968,19.5360107-6.6359863,27.427002-12.3859863c4.9299927-3.5939941,8.7330017-9.4400024,12.7609863-15.6300049
			c1.7390137-2.6749878,3.5379944-5.4389954,5.4979858-8.1289978c6.7879944-9.3129883,11.5620117-16.8269958,14.3869934-25.4920044
			c2.6119995-8.0109863,3.7770081-16.9769897,3.7770081-29.0690002c0-5.522995,4.4779968-10,10-10s10,4.477005,10,10
			c0,14.2910156-1.4689941,25.1690063-4.7619934,35.2690125c-4.0379944,12.3850098-11.0159912,22.5320129-17.2380066,31.071991
			c-1.6480103,2.2609863-3.2269897,4.6879883-4.8970032,7.256012c-4.6119995,7.0889893-9.8399963,15.1239929-17.7460022,20.8869934
			c-10.256012,7.4750061-22.4150085,11.7839966-33.0069885,15.2380066
			C255.4482117,339.947998,243.532196,340.2600098,231.3212128,340.2600098z"/>
	</g>
</g>
<g id="g927">
	<g id="g925">
		<path id="path923" fill="#008080" d="M231.3212128,301.7860107c-5.522995,0-10-4.4779968-10-10v-1.2709961
			c0-5.5220032,4.477005-10,10-10c11.2589874,0,20.2710114-2.053009,27.5519867-6.2739868
			c7.2030029-4.178009,13.4769897-10.9880066,19.1799927-20.821991c4.8349915-8.3370056,9.3089905-17.3720093,9.3089905-26.9490051
			c0-9.4729919-2.7219849-19.3800049-7.6650085-27.897995c-4.1740112-7.1920013-11.2690125-13.7290039-21.0870056-19.4279938
			c-7.8070068-4.5299988-16.9869995-6.8280029-27.2879944-6.8280029c-12.2100067,0-21.0690002,1.8419952-27.8809967,5.7980042
			c-6.7259979,3.9060059-12.5460052,10.5059967-18.875,21.4029999c-4.4889984,7.7290039-9.0780029,16.977005-9.0780029,26.9519958
			c0,14.5869904,5.9640045,28.9329987,16.3630066,39.3589935c3.8999939,3.9100037,3.8919983,10.2420044-0.0180054,14.1419983
			c-3.9109955,3.8999939-10.2420044,3.8919983-14.1419983-0.0190125
			c-14.1100006-14.1459961-22.2030029-33.6409912-22.2030029-53.4819946c0-14.8079987,6.2969971-27.5500031,11.7830048-36.9960022
			c5.5-9.470993,13.4409943-21.2879944,26.125-28.6539917c9.9889984-5.8009949,22.0400085-8.503006,37.9250031-8.503006
			c13.871994,0,26.4319916,3.2059937,37.3270111,9.5299988c12.8670044,7.4680023,22.4039917,16.4470062,28.3469849,26.6880035
			c6.684021,11.5179749,10.3660278,24.9909821,10.3660278,37.9349823c0,14.3440094-6.0700073,26.7440033-12.0079956,36.9820099
			c-7.4970093,12.9299927-16.1480103,22.1180115-26.446991,28.0899963
			c-9.2000122,5.3359985-19.8699951,8.2479858-32.493988,8.8540039
			C234.9212036,301.2799988,233.1802063,301.7860107,231.3212128,301.7860107z"/>
	</g>
</g>
<g id="g933">
	<g id="g931">
		<path id="path929" fill="#008080" d="M231.3212128,261.3600159c-1,0-1.9819946-0.1489868-2.9190063-0.4360046
			c-18.0090027-1.4639893-32.2100067-16.3580017-32.2100067-34.4550018c0-19.1499939,16.0870056-35.3280029,35.1289978-35.3280029
			c19.3120117,0,35.0220032,15.8480072,35.0220032,35.3280029
			C266.3432007,245.7070007,250.6322021,261.3600159,231.3212128,261.3600159z M231.3212128,211.1410065
			c-8.201004,0-15.1289978,7.0200043-15.1289978,15.3280029c0,8.0359955,6.7859955,14.5730133,15.1269989,14.5730133
			c0.6600037,0,1.3139954,0.0650024,1.9519958,0.1919861c7.3649902-0.9500122,13.071991-7.2099915,13.071991-14.7660065
			C246.3432007,218.1600037,239.4642029,211.1410065,231.3212128,211.1410065z"/>
	</g>
</g>
<g id="g939">
	<g id="g937">
		<path id="path935" fill="#008080" d="M35.3612061,80.6139984c-16.736002,0-30.3520012-13.5050049-30.3520012-30.1049995
			c0-16.3400002,13.6159992-29.6340027,30.3520012-29.6340027c16.6819992,0,29.75,13.0169983,29.75,29.6340027
			C65.1112061,67.1089935,51.7652054,80.6139984,35.3612061,80.6139984z M35.3612061,40.8749962
			c-5.7080021,0-10.3520031,4.3219986-10.3520031,9.6340027c0,5.4779968,4.7410011,10.1049957,10.3520031,10.1049957
			c5.4670029,0,9.75-4.4380035,9.75-10.1049957C45.1112061,45.0170021,40.9202042,40.8749962,35.3612061,40.8749962z"/>
	</g>
</g>
<g id="g945">
	<g id="g943">
		<path id="path941" fill="#008080" d="M375.3612061,470.8500061c-16.3359985,0-29.6270142-13.6099854-29.6270142-30.3410034
			c0-16.7510071,13.2910156-30.3789978,29.6270142-30.3789978c16.5929871,0,30.0920105,13.6279907,30.0920105,30.3789978
			C405.4532166,457.2390137,391.9541931,470.8500061,375.3612061,470.8500061z M375.3612061,430.1300049
			c-5.3089905,0-9.6270142,4.6560059-9.6270142,10.3789978c0,5.7019958,4.3179932,10.3410034,9.6270142,10.3410034
			c5.4710083,0,10.0920105-4.7349854,10.0920105-10.3410034
			C385.4532166,434.8829956,380.8322144,430.1300049,375.3612061,430.1300049z"/>
	</g>
</g>
<g id="g951">
	<g id="g949">
		<path id="path947" fill="#008080" d="M435.3612061,80.1649933c-22.2969971,0-39.7630005-17.4189949-39.7630005-39.6559944
			C395.5982056,18.1720009,413.4362183,0,435.3612061,0c21.8930054,0,39.70401,18.1720009,39.70401,40.5089989
			C475.0652161,62.7459984,457.6252136,80.1649933,435.3612061,80.1649933z M435.3612061,20
			c-10.8970032,0-19.7630005,9.2000008-19.7630005,20.5089989c0,11.0220032,8.6809998,19.6559982,19.7630005,19.6559982
			c11.0490112,0,19.70401-8.6340027,19.70401-19.6559982C455.0652161,29.2000008,446.2261963,20,435.3612061,20z"/>
	</g>
</g>
<g id="g977">
	<g id="g955">
		<path id="path953" fill="#008080" d="M25.2632046,460.4100037c-7.0709991,7.0710144-12.9540014,7.2929993-20.0249996,0.2219849
			s-6.9400005-13.0440063,0.1310005-20.1149902c7.0710015-7.0710144,10.9190006-4.2130127,19.9489994,0.0830078
			C34.9052048,445.1600037,32.3342056,453.3399963,25.2632046,460.4100037z"/>
	</g>
	<g id="g959">
		<path id="path957" fill="#008080" d="M45.3252029,440.4729919c-7.0709991,7.0710144-12.9790001,7.1929932-20.0500011,0.1220093
			c-7.0709991-7.0710144-6.8520012-12.881012,0.2200012-19.9519958c7.0710011-7.0710144,10.7560024-4.2630005,19.7830029,0.0419922
			C54.8912048,425.2690125,52.3962097,433.4020081,45.3252029,440.4729919z"/>
	</g>
	<g id="g963">
		<path id="path961" fill="#008080" d="M25.2282047,420.3760071c-7.0709991,7.0710144-12.8479986,7.256012-19.9190006,0.1849976
			s-7.0209999-12.9819946,0.0499992-20.0540161c7.0710015-7.0710144,11.0430012-4.4440002,20.0759983-0.1539917
			C35.0082054,404.901001,32.2992058,413.3049927,25.2282047,420.3760071z"/>
	</g>
	<g id="g967">
		<path id="path965" fill="#008080" d="M45.224205,400.3710022c-7.0709991,7.0710144-12.7060013,7.1229858-19.7770023,0.052002
			c-7.0709991-7.0710144-7.276001-12.9620056-0.2050018-20.0329895c7.0710011-7.0710144,11.0760021-4.1499939,20.1090031,0.1390076
			C54.9232025,385.0740051,52.2952042,393.2999878,45.224205,400.3710022z"/>
	</g>
	<g id="g971">
		<path id="path969" fill="#008080" d="M25.4482059,380.5960083c-7.0709991,7.0710144-12.9259977,6.894989-19.9979992-0.177002
			c-7.0710011-7.0710144-7.157999-12.8359985-0.0860004-19.9070129c7.0709996-7.0700073,11.026001-4.4249878,20.0440025-0.1029968
			C35.0742073,365.0419922,32.519207,373.526001,25.4482059,380.5960083z"/>
	</g>
	<g id="g975">
		<path id="path973" fill="#008080" d="M45.3412094,360.4890137c-7.0709991,7.0700073-12.9309998,7.1130066-20.0020008,0.0419922
			s-7.0309982-12.9339905,0.0400009-20.0050049s10.9230022-4.2529907,19.948,0.0539856
			C54.9472046,345.17099,52.4122086,353.4179993,45.3412094,360.4890137z"/>
	</g>
</g>
</svg>
