<svg
	xmlns="http://www.w3.org/2000/svg"
	viewBox="0 0 162 162"
	fill="#2582a1"
>
	<path
		d="M24 22.5c-1.7 0-3.1 1.4-3.1 3.1s1.4 3.1 3.1 3.1 3.1-1.4 3.1-3.1-1.4-3.1-3.1-3.1zm0 4.1c-.6 0-1.1-.5-1.1-1.1s.5-1.1 1.1-1.1 1.1.5 1.1 1.1-.5 1.1-1.1 1.1zM32.1 22.5c-1.7 0-3.1 1.4-3.1 3.1s1.4 3.1 3.1 3.1 3.1-1.4 3.1-3.1c0-1.7-1.4-3.1-3.1-3.1zm0 4.1c-.6 0-1.1-.5-1.1-1.1s.5-1.1 1.1-1.1 1.1.5 1.1 1.1c0 .6-.5 1.1-1.1 1.1zM40.2 22.5c-1.7 0-3.1 1.4-3.1 3.1s1.4 3.1 3.1 3.1c1.7 0 3.1-1.4 3.1-3.1-.1-1.7-1.5-3.1-3.1-3.1zm0 4.1c-.6 0-1.1-.5-1.1-1.1s.5-1.1 1.1-1.1 1.1.5 1.1 1.1c-.1.6-.6 1.1-1.1 1.1zM138 22.5H48.6c-1.7 0-3.1 1.4-3.1 3.1s1.4 3.1 3.1 3.1H138c1.7 0 3.1-1.4 3.1-3.1-.1-1.7-1.5-3.1-3.1-3.1zm0 4.1H48.6c-.6 0-1.1-.5-1.1-1.1s.5-1.1 1.1-1.1H138c.6 0 1.1.5 1.1 1.1-.1.6-.6 1.1-1.1 1.1z"/>
	<path
		d="M162 81c0-15.5-4.4-30.6-12.7-43.6V26.8c0-5-4-9-9-9h-8.5C117.4 6.3 99.4 0 81 0S44.6 6.3 30.3 17.9h-8.5c-5 0-9 4.1-9 9V37.5C4.4 50.4 0 65.5 0 81s4.4 30.6 12.7 43.6v5.6c0 5 4 9 9 9h2.9C40 154.1 60.1 162 80.9 162c20.1 0 40.5-7.5 56.3-22.8h2.9c5 0 9-4 9-9v-5.6c8.5-13 12.9-28.1 12.9-43.6zm-2 0c0 14-3.7 27.7-10.7 39.7V41.3c7 12 10.7 25.7 10.7 39.7zM81 2c17.1 0 33.9 5.6 47.5 15.9h-95C47.1 7.6 63.9 2 81 2zM14.7 26.9c0-3.9 3.1-7 7-7h118.5c3.9 0 7 3.2 7 7v4.4H14.7v-4.4zM2 81c0-14 3.7-27.7 10.7-39.7v79.5C5.7 108.7 2 95 2 81zm79 79c-6.7 0-13.7-.9-20.6-2.7-11.7-3.2-23-9.1-32.7-18h106.8C119.7 152.7 100.6 160 81 160zm59.3-22.8H21.7c-3.9 0-7-3.1-7-7V33.3h132.6v96.9c0 3.9-3.2 7-7 7z"/>
	<path
		d="M53.5 146.3h24.2c.6 0 1-.4 1-1s-.4-1-1-1H53.5c-.6 0-1 .4-1 1 0 .5.4 1 1 1zM81.6 146.3h4c.6 0 1-.4 1-1s-.4-1-1-1h-4c-.6 0-1 .4-1 1 0 .5.4 1 1 1zM89 146.3h2.6c.6 0 1-.4 1-1s-.4-1-1-1H89c-.6 0-1 .4-1 1 0 .5.4 1 1 1zM83.3 150.2c0 .6.4 1 1 1h24.2c.6 0 1-.4 1-1s-.4-1-1-1H84.3c-.5 0-1 .4-1 1zM75.4 150.2c0 .6.4 1 1 1h4c.6 0 1-.4 1-1s-.4-1-1-1h-4c-.5 0-1 .4-1 1zM73 149.2h-2.6c-.6 0-1 .4-1 1s.4 1 1 1H73c.6 0 1-.4 1-1s-.4-1-1-1zM97.4 45h15.1c.6 0 1-.4 1-1s-.4-1-1-1H97.4c-.6 0-1 .4-1 1 0 .5.5 1 1 1zM97.4 52.3h31.2c.6 0 1-.4 1-1s-.4-1-1-1H97.4c-.6 0-1 .4-1 1s.5 1 1 1zM97.4 59.6h15.1c.6 0 1-.4 1-1s-.4-1-1-1H97.4c-.6 0-1 .4-1 1s.5 1 1 1zM120.9 58.6c0 .6.4 1 1 1H137c.6 0 1-.4 1-1s-.4-1-1-1h-15.1c-.5 0-1 .5-1 1zM139.3 65H97.4c-.6 0-1 .4-1 1s.4 1 1 1h41.9c.6 0 1-.4 1-1s-.5-1-1-1zM97.4 75.2h15.1c.6 0 1-.4 1-1s-.4-1-1-1H97.4c-.6 0-1 .4-1 1s.5 1 1 1zM97.4 82.6h31.2c.6 0 1-.4 1-1s-.4-1-1-1H97.4c-.6 0-1 .4-1 1 0 .5.5 1 1 1zM97.4 89.9h15.1c.6 0 1-.4 1-1s-.4-1-1-1H97.4c-.6 0-1 .4-1 1s.5 1 1 1zM120.9 88.9c0 .6.4 1 1 1H137c.6 0 1-.4 1-1s-.4-1-1-1h-15.1c-.5 0-1 .5-1 1zM139.3 95.2H97.4c-.6 0-1 .4-1 1s.4 1 1 1h41.9c.6 0 1-.4 1-1 0-.5-.5-1-1-1zM97.4 105.5h15.1c.6 0 1-.4 1-1s-.4-1-1-1H97.4c-.6 0-1 .4-1 1 0 .5.5 1 1 1zM97.4 112.8h31.2c.6 0 1-.4 1-1s-.4-1-1-1H97.4c-.6 0-1 .4-1 1s.5 1 1 1zM97.4 120.2h15.1c.6 0 1-.4 1-1s-.4-1-1-1H97.4c-.6 0-1 .4-1 1 0 .5.5 1 1 1zM120.9 119.2c0 .6.4 1 1 1H137c.6 0 1-.4 1-1s-.4-1-1-1h-15.1c-.5 0-1 .4-1 1zM139.3 125.5H97.4c-.6 0-1 .4-1 1s.4 1 1 1h41.9c.6 0 1-.4 1-1 0-.5-.5-1-1-1zM84.6 61.1H66.2c-2 0-3.7 1.7-3.7 3.7v1.3h-5.2V46.9c0-.6-.4-1-1-1h-6.5v-1.3c0-2-1.7-3.7-3.7-3.7H27.8c-2 0-3.7 1.7-3.7 3.7v4.6c0 2 1.7 3.7 3.7 3.7h18.4c2 0 3.7-1.7 3.7-3.7v-1.3h5.5v18.9h-5.8l-12.1-6.2c-.3-.1-.6-.1-.9 0l-12.3 6.3c-.3.2-.5.5-.5.9s.2.7.5.9L36.5 75c.1.1.3.1.5.1s.3 0 .5-.1l12-6.2h5.8v17.6h-5.8l-12.1-6.2c-.3-.1-.6-.1-.9 0l-12.3 6.3c-.3.2-.5.5-.5.9s.2.7.5.9l12.3 6.2c.1.1.3.1.5.1s.3 0 .5-.1l12.1-6.2h5.8v16.2h-5.5v-1.3c0-2-1.7-3.7-3.7-3.7H27.8c-2 0-3.7 1.7-3.7 3.7v4.6c0 2 1.7 3.7 3.7 3.7h18.4c2 0 3.7-1.7 3.7-3.7v-1.3h5.5v16h-5.5v-1.3c0-2-1.7-3.7-3.7-3.7H27.8c-2 0-3.7 1.7-3.7 3.7v4.6c0 2 1.7 3.7 3.7 3.7h18.4c2 0 3.7-1.7 3.7-3.7v-1.3h6.5c.6 0 1-.4 1-1v-19.2h5.2v1.3c0 2 1.7 3.7 3.7 3.7h18.4c2 0 3.7-1.7 3.7-3.7V101c0-2-1.7-3.7-3.7-3.7H66.2c-2 0-3.7 1.7-3.7 3.7v1.3h-5.2V86.7h5.2v.9c0 2 1.7 3.7 3.7 3.7h18.4c2 0 3.7-1.7 3.7-3.7V83c0-2-1.7-3.7-3.7-3.7H66.2c-2 0-3.7 1.7-3.7 3.7v1.7h-5.2V68.1h5.2v1.3c0 2 1.7 3.7 3.7 3.7h18.4c2 0 3.7-1.7 3.7-3.7v-4.6c0-2-1.7-3.7-3.7-3.7zM46.2 50.9H27.8c-.9 0-1.7-.8-1.7-1.7v-4.6c0-.9.8-1.7 1.7-1.7h18.4c.9 0 1.7.8 1.7 1.7v4.6c0 .9-.8 1.7-1.7 1.7zM37 92.5l-10.1-5.2L37 82.1l10.1 5.2L37 92.5zm9.2 17.1H27.8c-.9 0-1.7-.8-1.7-1.7v-4.6c0-.9.8-1.7 1.7-1.7h18.4c.9 0 1.7.8 1.7 1.7v4.6c0 .9-.8 1.7-1.7 1.7zm0 18H27.8c-.9 0-1.7-.8-1.7-1.7v-4.6c0-.9.8-1.7 1.7-1.7h18.4c.9 0 1.7.8 1.7 1.7v4.6c0 .9-.8 1.7-1.7 1.7zm20-28.2h18.4c.9 0 1.7.8 1.7 1.7v4.6c0 .9-.8 1.7-1.7 1.7H66.2c-.9 0-1.7-.8-1.7-1.7v-4.6c.1-1 .8-1.7 1.7-1.7zm0-18h18.4c.9 0 1.7.8 1.7 1.7v4.6c0 .9-.8 1.7-1.7 1.7H66.2c-.9 0-1.7-.8-1.7-1.7v-4.6c.1-1 .8-1.7 1.7-1.7zM37 73l-10.1-5.2L37 62.6l10.1 5.2L37 73zm49.3-3.6c0 .9-.8 1.7-1.7 1.7H66.2c-.9 0-1.7-.8-1.7-1.7v-4.6c0-.9.8-1.7 1.7-1.7h18.4c.9 0 1.7.8 1.7 1.7v4.6z"/>
</svg>
