<svg
	xmlns="http://www.w3.org/2000/svg"
	viewBox="0 0 128.027 112"
	preserveAspectRatio="xMaxYMin"
	fill="#ffffff"
>
	<path
		d="M105 90.47c5.523 0 10-4.477 10-10s-4.477-10-10-10-10 4.477-10 10 4.477 10 10 10zm0-15.94a6 6 0 1 1 0 12 6 6 0 0 1 0-12z"/>
	<path
		d="M82.22 89.41a24.45 24.45 0 0 0 3.7 6.41 2 2 0 0 0 2 .7l4.67-1a19.63 19.63 0 0 0 5.72 3.31l1.44 4.56a2 2 0 0 0 1.61 1.38c2.45.37 4.94.37 7.39 0a2 2 0 0 0 1.61-1.37l1.44-4.56a19.63 19.63 0 0 0 5.72-3.31l4.67 1a2 2 0 0 0 2-.7 24.42 24.42 0 0 0 3.7-6.41 2 2 0 0 0-.39-2.08l-3.23-3.53a19.35 19.35 0 0 0 0-6.6l3.23-3.53a2 2 0 0 0 .39-2.08 24.42 24.42 0 0 0-3.7-6.41 2 2 0 0 0-2-.7l-4.67 1a19.63 19.63 0 0 0-5.72-3.31l-1.44-4.56a2 2 0 0 0-1.61-1.37 24.79 24.79 0 0 0-7.39 0 2 2 0 0 0-1.61 1.38l-1.45 4.58a19.63 19.63 0 0 0-5.72 3.31l-4.67-1a2 2 0 0 0-2 .7 24.45 24.45 0 0 0-3.7 6.41 2 2 0 0 0 .39 2.08l3.23 3.53a19.35 19.35 0 0 0 0 6.6l-3.23 3.49a2 2 0 0 0-.38 2.08zM89.94 84a15.44 15.44 0 0 1 0-6.92 2 2 0 0 0-.47-1.79l-3-3.33a20.48 20.48 0 0 1 1.88-3.25l4.4 1a2 2 0 0 0 1.79-.49 15.55 15.55 0 0 1 6-3.46 2 2 0 0 0 1.32-1.31l1.36-4.3a20.76 20.76 0 0 1 3.75 0l1.36 4.3a2 2 0 0 0 1.32 1.31 15.56 15.56 0 0 1 6 3.46 2 2 0 0 0 1.79.49l4.4-1a20.45 20.45 0 0 1 1.88 3.25l-3 3.33a2 2 0 0 0-.47 1.79 15.44 15.44 0 0 1 0 6.92 2 2 0 0 0 .47 1.79l3 3.33a20.45 20.45 0 0 1-1.88 3.25l-4.4-1a2 2 0 0 0-1.79.49 15.56 15.56 0 0 1-6 3.46 2 2 0 0 0-1.32 1.31l-1.36 4.3a20.85 20.85 0 0 1-3.75 0l-1.36-4.3a2 2 0 0 0-1.32-1.31 15.55 15.55 0 0 1-6-3.46 2 2 0 0 0-1.79-.49l-4.4 1a20.48 20.48 0 0 1-1.88-3.25l3-3.33a2 2 0 0 0 .47-1.79zM92 54a2 2 0 0 0-2-2H62a2 2 0 0 0 0 4h28a2 2 0 0 0 2-2zM62.12 32H114a2 2 0 0 0 0-4H62.12a2 2 0 0 0 0 4zM12 54v.08a2 2 0 0 0 0 .31c.035.124.072.247.11.37a2 2 0 0 0 .14.27v.07a2 2 0 0 0 .3.34l.11.09.25.18.13.07a2 2 0 0 0 .3.11h.12A2 2 0 0 0 14 56h36a2 2 0 0 0 .45-.05h.12a2 2 0 0 0 .3-.11l.13-.07.25-.18.11-.09a2 2 0 0 0 .3-.34v-.07a2 2 0 0 0 .14-.27c.038-.123.075-.246.11-.37a2 2 0 0 0 0-.31L52 54V30v-.08a2 2 0 0 0 0-.31 13.913 13.913 0 0 0-.11-.37 2 2 0 0 0-.19-.24v-.07a2 2 0 0 0-.25-.3l-.14-.11-.16-.13-.18-.1-.17-.09-.23-.07h-.14a2 2 0 0 0-.4 0H14a2 2 0 0 0-.39 0h-.15l-.22.07-.17.09-.18.1-.16.13-.14.12a2 2 0 0 0-.25.3v.07a2 2 0 0 0-.14.27 13.92 13.92 0 0 0-.11.37 2 2 0 0 0 0 .31L12 30v24zm36-3.73L35.61 42 48 33.74v16.53zM43.39 52H20.61L32 44.4 43.39 52zM32 39.6L20.61 32h22.78L32 39.6zM28.39 42L16 50.26V33.74L28.39 42zM74 64H14a2 2 0 0 0 0 4h60a2 2 0 0 0 0-4zM74 76H14a2 2 0 0 0 0 4h60a2 2 0 0 0 0-4zM62 44h52a2 2 0 0 0 0-4H62a2 2 0 0 0 0 4z"/>
	<path
		d="M122 0H6a6.05 6.05 0 0 0-6 6v84a6.05 6.05 0 0 0 6 6h56v12H31a2 2 0 0 0 0 4h66a2 2 0 0 0 0-4H66V96h12a2 2 0 0 0 0-4H6a2 2 0 0 1-2-2V20h120v40a2 2 0 0 0 4 0V6a6.05 6.05 0 0 0-6-6zM4 16V6a2 2 0 0 1 2-2h116a2 2 0 0 1 2 2v10H4z"/>
	<circle cx="116" cy="10" r="2"/>
	<circle cx="108" cy="10" r="2"/>
	<circle cx="100" cy="10" r="2"/>
</svg>
