<svg
	xmlns="http://www.w3.org/2000/svg"
	viewBox="0 0 96 96.361"
	fill="#3589a4"
>
	<path
		d="M0 5.047v70.858a5.053 5.053 0 0 0 5.047 5.047h28.445v13.41h-8.584v2h46.184v-2h-8.584v-13.41h28.445A5.053 5.053 0 0 0 96 75.905V5.047A5.053 5.053 0 0 0 90.953 0H5.047A5.053 5.053 0 0 0 0 5.047zm60.508 89.31H35.492v-5.703H48v-2H35.492v-5.702h25.016v13.405zM94 75.905a3.051 3.051 0 0 1-3.047 3.047H5.047A3.05 3.05 0 0 1 2 75.905v-6.451h92v6.45zM7.875 67.454V8.236h80.25v59.218H7.875zM94 5.047v62.407h-3.875V6.236H5.875v61.218H2V5.047A3.05 3.05 0 0 1 5.047 2h85.906A3.05 3.05 0 0 1 94 5.047z"/>
	<path
		d="M48 70.755a3.452 3.452 0 0 0-3.448 3.448A3.452 3.452 0 0 0 48 77.65c1.9 0 3.448-1.547 3.448-3.448S49.9 70.755 48 70.755zm0 4.896c-.798 0-1.448-.65-1.448-1.448s.65-1.448 1.448-1.448 1.448.65 1.448 1.448-.65 1.448-1.448 1.448zM81.758 19.606h2v4.31h-2zM73.717 14.692h8.04v2.353h2v-4.353h-10.04zM13.994 61.665h14.257v2H13.994zM69.828 84.165h1v2h-1zM83.578 84.165h1.821v2h-1.821zM72.649 84.165h1.821v2h-1.821zM76.292 84.165h1.821v2h-1.821zM79.935 84.165h1.822v2h-1.822zM87.22 84.165h1v2h-1zM6.854 84.165h1v2h-1zM9.675 84.165h1.821v2H9.675zM16.96 84.165h1.822v2H16.96zM20.604 84.165h1.821v2h-1.821zM13.318 84.165h1.821v2h-1.821zM24.246 84.165h1v2h-1zM57.115 57.116a3.806 3.806 0 0 0-4.154 3.477 3.835 3.835 0 0 0 3.82 4.17 3.808 3.808 0 0 0 3.81-3.492 3.806 3.806 0 0 0-.877-2.798 3.804 3.804 0 0 0-2.599-1.357zm-.5 5.639a1.832 1.832 0 0 1-1.662-1.985 1.842 1.842 0 0 1 1.986-1.662c.486.043.928.274 1.241.649.314.375.463.85.42 1.337a1.835 1.835 0 0 1-1.986 1.66zM40.181 57.101c-2.112 0-3.83 1.718-3.83 3.83s1.718 3.831 3.83 3.831 3.83-1.718 3.83-3.83-1.718-3.83-3.83-3.83zm0 5.661c-1.01 0-1.83-.821-1.83-1.83s.82-1.831 1.83-1.831 1.83.821 1.83 1.83-.82 1.831-1.83 1.831zM31.785 18.798a2.873 2.873 0 0 0-1.542-3.212l-7.323-4.387a2.89 2.89 0 0 0-3.837 1.395 2.891 2.891 0 0 0 1.343 3.812l7.231 4.339c.1.02 1.445.825 2.932-.185l3.645 5.058v22.191l-1.95 1.98c-2.173 2.203-.61 5.952 2.491 5.952H66.48v-2H34.775c-1.332 0-1.994-1.608-1.067-2.55l1.976-2.004 31.023-2.383 4.734-18.606-35.656-3.85-4-5.55zm-2.011-.246a.903.903 0 0 1-1.14.446l-7.219-4.33c-.093-.101-.902-.41-.52-1.228a.903.903 0 0 1 1.14-.446l7.219 4.33c.092.1.901.414.52 1.228zm6.46 7.857l3.948.426v13.122h2V27.05l3.649.394v3.335h2v-3.12l3.648.395v12.827h2V28.27l3.648.393v4.271h2v-4.054l3.655.394v4.977h2v-4.761l4.152.448-3.811 14.98-.34.027v-8.37h-2V45.1l-3.656.28v-9.81h-2v9.964l-3.648.28v-3.12h-2v3.274l-3.648.28V32.935h-2v13.467l-3.649.28v-4.31h-2v4.464l-3.948.303V26.41zM53.486 14.292h.007a11.762 11.762 0 0 1 8.378 3.47l1.415-1.412a13.748 13.748 0 0 0-9.792-4.058h-.008c-3.709 0-7.192 1.44-9.808 4.057l1.414 1.414a11.79 11.79 0 0 1 8.394-3.471z"/>
	<path
		d="M59.985 19.646c-3.582-3.568-9.412-3.568-12.994 0l1.41 1.417c2.806-2.793 7.368-2.793 10.173 0l1.41-1.417zM50.292 22.956l1.408 1.42a2.53 2.53 0 0 1 3.561-.003l1.414-1.414c-1.754-1.753-4.617-1.754-6.383-.003z"/>
</svg>
