<svg
	xmlns="http://www.w3.org/2000/svg"
	viewBox="0 0 18.001 24"
	preserveAspectRatio="xMaxYMin"
	fill="#ffffff"
>
	<path
		d="M13.614 21.622a.498.498 0 0 1-.31-.108c-3.015-2.386-6.307-5.194-7.207-8.323a2.504 2.504 0 0 1 1.712-3.094 2.506 2.506 0 0 1 3.094 1.712c.532 1.849 4.144 4.708 5.504 5.784a.5.5 0 1 1-.62.784c-2.583-2.044-5.298-4.391-5.845-6.292a1.504 1.504 0 0 0-1.857-1.027 1.503 1.503 0 0 0-1.027 1.856c.818 2.844 3.973 5.525 6.866 7.815a.5.5 0 0 1-.31.893z"/>
	<path
		d="M.903 19.091a.5.5 0 0 1-.149-.977c.559-.175 2.319-.966 1.499-3.817a6.458 6.458 0 0 1 .56-4.943 6.458 6.458 0 0 1 3.893-3.101c3.364-.958 6.925.952 7.985 4.268.249.234 1.956 1.644 3.124 2.592a.5.5 0 0 1-.63.776c-3.215-2.609-3.322-2.79-3.374-2.876a.514.514 0 0 1-.049-.11c-.867-2.853-3.91-4.507-6.781-3.688a5.465 5.465 0 0 0-3.294 2.622 5.47 5.47 0 0 0-.474 4.183c.852 2.961-.632 4.57-2.162 5.048a.497.497 0 0 1-.148.023z"/>
	<path
		d="M2.5 21a.5.5 0 0 1-.149-.977c2.072-.648 2.826-1.712 1.816-6.31-.547-2.494.781-4.874 3.089-5.538a4.51 4.51 0 0 1 5.568 3.081c.139.483.774 1.414 4.485 4.352a.5.5 0 0 1-.62.785c-4.097-3.242-4.631-4.179-4.826-4.859a3.506 3.506 0 0 0-4.332-2.396c-1.794.516-2.821 2.391-2.388 4.362 1.029 4.688.4 6.575-2.495 7.479A.535.535 0 0 1 2.5 21z"/>
	<path
		d="M15 20a.502.502 0 0 1-.354-.146c-.183-.183-.585-.488-1.05-.841-1.791-1.359-4.789-3.633-5.577-6.375a.5.5 0 0 1 .961-.277c.696 2.422 3.528 4.57 5.22 5.854.515.391.922.7 1.153.931A.5.5 0 0 1 15 20zM7.5 24l-.032-.001a.5.5 0 0 1-.468-.53C7.037 22.89 7.304 20 9 20c1.247 0 1.998 1.02 2.495 1.695.133.18.249.342.358.452a.5.5 0 0 1-.707.707 5.354 5.354 0 0 1-.457-.565C10.267 21.714 9.742 21 9 21c-.542 0-.937 1.497-1.001 2.531A.5.5 0 0 1 7.5 24zM4.5 23a.5.5 0 0 1-.155-.976c1.264-.411 2.105-3.035 1.678-4.372a.5.5 0 1 1 .952-.304c.531 1.661-.397 5.003-2.322 5.628A.504.504 0 0 1 4.5 23z"/>
	<path
		d="M.5 13a.5.5 0 0 1-.5-.5C0 7.813 3.813 4 8.5 4c4.614 0 6.265 2.665 7.47 4.611.569.917 1.06 1.71 1.685 1.913a.499.499 0 0 1 .321.63.498.498 0 0 1-.63.321c-.974-.316-1.554-1.253-2.226-2.338C13.978 7.294 12.557 5 8.5 5 4.364 5 1 8.364 1 12.5a.5.5 0 0 1-.5.5zM1 16.5a.5.5 0 0 1-.448-.276C.46 16.039 0 15.088 0 14.5a.5.5 0 0 1 1 0c0 .261.267.916.447 1.276A.5.5 0 0 1 1 16.5z"/>
	<path
		d="M15.5 6a.498.498 0 0 1-.428-.241C14.579 4.947 11.844 3 8 3 4.002 3 1.862 5.043 1.427 5.759a.498.498 0 1 1-.854-.518C1.12 4.339 3.521 2 8 2c4.212 0 7.241 2.11 7.927 3.241A.5.5 0 0 1 15.5 6z"/>
	<path
		d="M13.5 2a.516.516 0 0 1-.163-.027c-.202-.069-.394-.141-.585-.211C11.699 1.37 10.704 1 8 1c-2.401 0-2.942.277-3.688.66-.184.094-.379.194-.608.296a.5.5 0 0 1-.41-.912c.211-.095.39-.187.56-.274C4.694.34 5.357 0 8 0c2.884 0 4.011.419 5.101.824.184.068.368.137.562.204A.5.5 0 0 1 13.5 2zM17.5 9a.5.5 0 0 1-.476-.348c-.229-.713-.942-1.879-.95-1.89a.5.5 0 0 1 .852-.524c.032.052.785 1.28 1.05 2.11A.5.5 0 0 1 17.5 9z"/>
</svg>
