<svg
	xmlns="http://www.w3.org/2000/svg"
	viewBox="0 0 196.448 187.716"
	preserveAspectRatio="xMaxYMax"
	fill="#e04b4a"
>
	<path
		d="M38.333 65.948H36.8V51.515a10.647 10.647 0 0 0 1.533-5.5c0-.29-.021-.574-.043-.857l10.734-24.12c.388-.112.77-.246 1.144-.401l9.667 9.637c-.007.138-.041.268-.041.407a7.68 7.68 0 0 0 6.133 7.514v3.887l-6.923 4.154a1.533 1.533 0 0 0-.737 1.312v4.6c0 .407.161.797.449 1.084l3.067 3.067 2.168-2.168-2.618-2.618v-3.097l6.134-3.68 6.133 3.68v3.097l-2.617 2.618 2.168 2.168 3.066-3.067c.288-.287.45-.677.45-1.084v-4.6c0-.538-.283-1.037-.744-1.314L69 42.08v-3.885a7.659 7.659 0 0 0-.141-15.038L56.439 8.315c-1.33-5.77-7.086-9.369-12.856-8.039a10.721 10.721 0 0 0-8.304 10.032L19.473 39.021A10.66 10.66 0 0 0 18.4 51.515v14.433h-6.133V44.2a4.6 4.6 0 1 0-3.067 0v21.75H1.533C.686 65.948 0 66.634 0 67.48v24.534c0 .847.686 1.533 1.533 1.533h36.8c.847 0 1.534-.686 1.534-1.533V67.48c0-.846-.687-1.533-1.534-1.533zm33.734-35.267a4.6 4.6 0 1 1-9.2 0 4.6 4.6 0 0 1 9.2 0zM56.462 13.113l8.63 10.317a7.648 7.648 0 0 0-4.266 3.495l-7.961-7.935a10.733 10.733 0 0 0 3.597-5.877zM46 3.08a7.667 7.667 0 1 1-7.667 7.667A7.676 7.676 0 0 1 46 3.081zm-9.823 11.976a10.733 10.733 0 0 0 9.31 6.398l-8.57 19.251a10.655 10.655 0 0 0-12.088-5.049l11.348-20.6zM27.6 38.348a7.667 7.667 0 1 1-7.667 7.667 7.676 7.676 0 0 1 7.667-7.667zm6.133 16.462v11.138H21.467V54.81a10.674 10.674 0 0 0 12.266 0zm-23-16.462a1.533 1.533 0 1 1 0 3.067 1.533 1.533 0 0 1 0-3.067zM36.8 90.481H3.067V69.015H36.8V90.48z"/>
	<path
		d="M84.333 78.215H78.2V72.08h3.067v3.067h3.066v-9.2h-3.066v3.067H78.2v-3.067c0-.406-.162-.796-.45-1.084l-4.6-4.6a1.533 1.533 0 0 0-1.083-.45h-9.2c-.407 0-.797.162-1.084.45l-4.6 4.6c-.288.288-.45.678-.45 1.084v12.267H50.6a7.667 7.667 0 1 0 0 15.333h33.733a7.667 7.667 0 1 0 0-15.333zM59.8 66.583l3.701-3.702h7.93l3.702 3.702v11.632H59.8V66.583zM84.333 90.48H50.6a4.6 4.6 0 0 1 0-9.2h33.733a4.6 4.6 0 0 1 0 9.2z"/>
	<path
		d="M50.6 84.348h3.067v3.067H50.6zM56.733 84.348H59.8v3.067h-3.067zM62.867 84.348h3.067v3.067h-3.067zM69 84.348h3.067v3.067H69zM75.133 84.348H78.2v3.067h-3.067zM81.267 84.348h3.067v3.067h-3.067zM7.667 84.348h3.067v3.067H7.667zM13.8 84.348h3.067v3.067H13.8zM46 15.348a4.6 4.6 0 1 0 0-9.2 4.6 4.6 0 0 0 0 9.2zm0-6.133a1.533 1.533 0 1 1 0 3.066 1.533 1.533 0 0 1 0-3.066zM27.6 50.615a4.6 4.6 0 1 0 0-9.2 4.6 4.6 0 0 0 0 9.2zm0-6.134a1.533 1.533 0 1 1 0 3.067 1.533 1.533 0 0 1 0-3.067zM65.933 29.148H69v3.067h-3.067zM62.867 69.015h3.067v6.133h-3.067zM69 69.015h3.067v6.133H69zM17.633 23.734a13.739 13.739 0 0 0-13.812 0l1.546 2.654a10.655 10.655 0 0 1 10.72 0l1.546-2.654zM2.219 19.795a19.125 19.125 0 0 1 17.029 0l1.37-2.745a22.224 22.224 0 0 0-19.77 0l1.37 2.745zM6.981 29.31l1.371 2.744a5.342 5.342 0 0 1 4.763 0l1.37-2.745a8.441 8.441 0 0 0-7.504 0zM26.067 59.29h3.067v3.591h-3.067zM32.362 31.529l4.6-9.2 2.744 1.371-4.6 9.2z"/>
	<g>
		<path
			d="M53.595 175.923l-6.12 9.313a5.505 5.505 0 0 1-4.55 2.462 5.085 5.085 0 0 1-2.877-.88 5.246 5.246 0 0 1-1.22-7.541l8.428-10.93a1.742 1.742 0 0 1 2.75 2.14l-8.428 10.93a1.795 1.795 0 0 0 .426 2.577c.382.25.847.34 1.294.247.53-.106.995-.419 1.295-.868l6.12-9.348a1.726 1.726 0 1 1 2.877 1.892l.005.006zm24.052-41.994c-2.301-1.651-5.43-1.79-8.761-.38a20.169 20.169 0 0 0-8.244 6.926c-2.997 4.205-4.395 9.043-3.739 12.944a4.757 4.757 0 0 1-.201 2.3 1.726 1.726 0 0 0 3.267 1.111c.44-1.28.557-2.65.34-3.987-.5-2.974.707-6.943 3.146-10.354a16.682 16.682 0 0 1 6.794-5.753c1.266-.535 3.653-1.242 5.413 0 1.76 1.243 1.87 3.745 1.778 5.114a16.683 16.683 0 0 1-3.239 8.301c-2.439 3.452-5.804 5.862-8.778 6.357a8.232 8.232 0 0 0-4.447 2.266 1.726 1.726 0 0 0 2.41 2.468c.158-.154.325-.298.5-.431a4.757 4.757 0 0 1 2.077-.915c3.883-.65 8.031-3.55 11.028-7.76a20.174 20.174 0 0 0 3.872-10.079c.241-3.607-.903-6.5-3.216-8.151v.023zm-24.863 21.164a7.714 7.714 0 0 0-.828-7.479L41.693 133.29a1.726 1.726 0 0 0-2.807 2.008l10.251 14.335a4.251 4.251 0 0 1 .437 4.171 3.175 3.175 0 0 0 .363 3.233L68.92 181.59a1.64 1.64 0 1 1-2.663 1.91l-17.2-25.83a3.175 3.175 0 0 0-2.952-1.374 4.245 4.245 0 0 1-3.837-1.726l-10.256-14.335a1.726 1.726 0 0 0-2.808 2.007l10.269 14.336a7.72 7.72 0 0 0 6.822 3.181l17.091 25.685a5.045 5.045 0 0 0 3.325 2.186 5.091 5.091 0 0 0 4.959-8.117l-18.886-24.42zm-7.921-2.301a1.726 1.726 0 0 0 1.398-2.733l-9.36-13.392a1.727 1.727 0 0 0-2.83 1.979l9.377 13.392c.323.462.851.737 1.415.736v.018z"/>
	</g>
	<g>
		<path
			d="M109.47 168.064l3.757-12.16a1.764 1.764 0 1 0-3.369-1.041l-5.388 17.435a1.764 1.764 0 0 0 2.76 1.922l26.642-20.363-1.394-3.377-23.008 17.584zM194.625 103.466h-16.42a1.764 1.764 0 0 0 0 3.528h11.208l-23.6 18.025 1.394 3.378 28.485-21.72a1.764 1.764 0 0 0-1.067-3.21zM172.022 161.283l-3.28 1.34 1.684 5.45-5.238-4.003-3.792 1.543 11.27 8.607a1.764 1.764 0 0 0 2.76-1.922l-3.404-11.015zM165.964 159.942l7.267-2.963c.9-.37 1.331-1.4.96-2.302l-14.524-35.275a2.99 2.99 0 0 0-1.2-1.402l-17.17-10.856a3.016 3.016 0 0 0-2.751-.239l-3.59 1.464a2.99 2.99 0 0 0-1.005.697c.15.865.386 1.713.706 2.531a12.84 12.84 0 0 0 1.27 2.381l.573-2.451 3.104-1.27 16.844 10.635 13.784 33.512-4.021 1.64-6.58-16.112a1.764 1.764 0 0 0-3.262 1.34l6.623 16.069-11.13 4.541-6.623-16.076a1.764 1.764 0 1 0-3.263 1.34l6.623 16.068-2.769 1.129-13.819-33.477 1.19-5.115a17.885 17.885 0 0 1-3.05-2.319l-1.588 6.826a2.99 2.99 0 0 0 .15 1.825l14.524 35.276a1.764 1.764 0 0 0 2.285.917l20.424-8.334h.018zM132.69 92.936l7.258-23.502 11.226 36.36a1.764 1.764 0 0 0 1.685 1.244h13.44a1.764 1.764 0 0 0 0-3.528h-12.144l-12.523-40.567a1.764 1.764 0 0 0-3.368 0l-9.948 32.18a10.935 10.935 0 0 1 4.41-2.187h-.036zM113.491 143.063a1.764 1.764 0 1 0 3.37 1.04l3.87-12.531a1.764 1.764 0 0 0-.617-1.923l-29.631-22.655h32.71c.003-1.184.118-2.366.343-3.528H85.271a1.764 1.764 0 0 0-1.067 3.21l32.815 25.028-3.528 11.359z"/>
		<path
			d="M128.157 114.252c1.398 3.67 4 6.758 7.382 8.757.05.77.228 1.528.529 2.24a7.293 7.293 0 0 0 6.746 4.356 7.381 7.381 0 0 0 2.716-.511 1.764 1.764 0 0 0-1.296-3.28 3.819 3.819 0 0 1-4.665-1.5h.776a8.06 8.06 0 0 0 3.104-.617 1.765 1.765 0 0 0-1.35-3.263 4.7 4.7 0 0 1-2.477.282 3.642 3.642 0 0 1 1.764-1.429 3.8 3.8 0 0 1 4.903 1.94 1.764 1.764 0 1 0 3.245-1.384 7.355 7.355 0 0 0-9.436-3.836 7.117 7.117 0 0 0-3.73 3.333 14.375 14.375 0 0 1-4.904-6.429c-2.249-5.556-1.155-11.464 2.399-12.964a5.362 5.362 0 0 1 4.118.168c2.646 1.12 5.133 3.871 6.544 7.346a1.765 1.765 0 1 0 3.272-1.323c-1.764-4.33-4.912-7.796-8.449-9.277a8.73 8.73 0 0 0-6.834-.177c-5.52 2.293-7.417 9.992-4.357 17.568z"/>
	</g>
	<g>
		<path
			d="M111.09 46.025c-3.481 0-6.122-2.376-6.122-5.904V28.792h2.593v11.209c0 2.28 1.392 3.696 3.528 3.696s3.552-1.416 3.552-3.696V28.792h2.593v11.329c0 3.528-2.664 5.904-6.145 5.904zM129.832 45.881l-3.72-6.552-3.697 6.552h-2.975l5.28-8.76-4.944-8.329h2.976l3.36 6.12 3.385-6.12h2.976l-4.944 8.329 5.303 8.76h-3zM141.184 47.658h-2.353l6.841-20.642h2.352l-6.84 20.642zM161.8 46.025c-3.48 0-6.12-2.376-6.12-5.904V28.792h2.592v11.209c0 2.28 1.392 3.696 3.528 3.696s3.552-1.416 3.552-3.696V28.792h2.593v11.329c0 3.528-2.664 5.904-6.145 5.904zM172.143 45.881V28.792h2.592v17.09h-2.592z"/>
	</g>
</svg>
