<svg opacity=".6" xmlns="http://www.w3.org/2000/svg" viewBox="0 0 78.152 85.641"><g fill="#6D6E72"><path d="M47.626 41.682c-.02-.024-.498-.516-1.335-.516-.435 0-.89.139-1.343.402a.216.216 0 0 0-.115.225c.005.023.33 2.26.081 3.222-.186.722-.798 1.569-1.913 1.569-.238 0-.482-.04-.74-.111 0 0-.01 0-.01-.004l.842-.57c.062-.043.1-.11.1-.186a.224.224 0 0 0-.1-.186l-1.67-1.148c.527-.397.862-.679.905-.717a.222.222 0 0 0 .08-.163.225.225 0 0 0-.071-.167l-.297-.3a.234.234 0 0 0-.157-.068.246.246 0 0 0-.139.048c-.019.01-.46.35-1.128.812l-.67-.463 2.62-1.802.206.52a.227.227 0 0 0 .201.144h.01a.226.226 0 0 0 .196-.12l1.248-2.294a.23.23 0 0 0-.014-.24.229.229 0 0 0-.187-.096h-.034l-2.582.387a.22.22 0 0 0-.186.159.252.252 0 0 0 .067.233l.42.37-2.978 2.045-2.97-2.046.416-.37c.062-.06.09-.151.062-.232a.204.204 0 0 0-.182-.159l-2.581-.387h-.034a.216.216 0 0 0-.187.095.24.24 0 0 0-.014.24l1.243 2.296a.24.24 0 0 0 .201.119h.015a.231.231 0 0 0 .196-.144l.205-.52 2.62 1.802-.669.463a23.68 23.68 0 0 1-1.124-.812.256.256 0 0 0-.138-.048.229.229 0 0 0-.163.067l-.301.301a.239.239 0 0 0-.067.167.26.26 0 0 0 .077.163c.047.038.377.32.908.717l-1.674 1.148a.231.231 0 0 0-.095.186.239.239 0 0 0 .1.186l.842.57c0 .004-.005.004-.01.004a2.731 2.731 0 0 1-.736.11c-1.114 0-1.73-.846-1.918-1.568-.249-.961.082-3.199.082-3.222a.215.215 0 0 0-.11-.225c-.46-.263-.914-.402-1.344-.402-.836 0-1.32.492-1.339.516a.188.188 0 0 0-.062.134c-.014.139-.268 3.371 1.23 5.006.554.604 1.275.91 2.15.91.154 0 .32-.005.484-.029.85-.101 1.683-.326 2.486-.613l1.387.937-3.075 2.08a.242.242 0 0 0-.1.192c0 .072.033.143.1.186l3.084 2.133-2.63 1.821-.2-.51a.236.236 0 0 0-.196-.14c-.005-.004-.005-.004-.015-.004a.238.238 0 0 0-.2.12l-1.244 2.3a.23.23 0 0 0 .014.233c.039.062.11.096.187.096h.034l2.581-.382a.218.218 0 0 0 .182-.158.235.235 0 0 0-.062-.24l-.426-.377 2.98-2.06 2.983 2.06-.425.378a.236.236 0 0 0-.067.24.231.231 0 0 0 .186.157l2.582.382h.034a.229.229 0 0 0 .187-.096.23.23 0 0 0 .014-.234l-1.248-2.3a.224.224 0 0 0-.197-.119c-.005 0-.009 0-.009.004a.231.231 0 0 0-.201.14l-.205.51-2.626-1.82 3.084-2.134a.23.23 0 0 0 .101-.186.242.242 0 0 0-.1-.192l-3.075-2.08 1.392-.937a11.4 11.4 0 0 0 2.481.613c.168.024.33.028.484.028.875 0 1.601-.305 2.151-.909 1.501-1.635 1.243-4.867 1.229-5.006a.236.236 0 0 0-.062-.134zm-8.693 2.377l.66.449c-.206.135-.43.268-.66.406-.225-.138-.445-.271-.656-.406l.656-.45zm-2.401 1.65l.913-.627c.177.115.364.234.564.36-.358.19-.717.371-1.08.535l-.397-.268zm4.748 4.595l-2.347 1.62-2.338-1.62 2.338-1.587 2.347 1.587zm-2.347-2.965l-1.134-.775c.397-.186.775-.382 1.134-.578.363.196.74.392 1.142.578l-1.142.775zm2.012-1.362a17.711 17.711 0 0 1-1.085-.536l.565-.359.918.627-.398.268z"/><path d="M77.97 35.566c-.96-.578-2.553-.784-4.169-.627 2.534-.875 4.26-2.757 4.35-4.441-1.319-.378-2.691-.177-3.877.09 1.229-.918 3.247-2.6 3.003-5.068-1.186-.291-3.366.54-4.284.947 2.917-1.64 3.968-5.518 2.424-7.717-.918.539-5.092 4.795-5.767 5.293 2.157-2.468 3.166-4.242 3.749-5.901.694-1.812.737-4.973-1.502-6.03-1.056 2.424-4.757 8.631-6.818 11.213-.225-.201-.406-.474-.698-.516-.493 1.574-1.951 3.658-3.276 4.662-.067-.133-.2-.492-.425-.875-1.411 2.109-5.069 5.002-6.255 6.775-.923 1.32-.923 2.512.359 3.744.516.517 1.501 1.436.65 2.712-1.157 1.693-3.485 1.889-4.753.894 0-.301-.01-.588-.024-.856 1.492-.578 1.841-2.611.741-3.873-.243.463-.64.803-1.118.97-.13-.525-.244-.783-.254-.808l-.057-.124-.13-.005c-.014-.004-.501-.028-1.233-.114.827-.272 1.358-1.038 1.243-2.071-1.277 1.1-2.558.049-2.85-.243-.803-.943-1.028-2-.712-3.616.268-1.41 1.726-3.653 2.688-4.37.138.133.358.402.826.359.273-.086.722-.316 1.057-.45a3.118 3.118 0 0 1 2.515.316c1.095.67 1.004 1.41.966 1.951 1.674-.942 1.095-2.51-1.1-3.094 1.502 0 2.736 1.367 3.046 1.544.832.608 2.018.474 2.712.139 1.33-.632 1.597-2.2 1.238-2.515-.134.565-.56 1.057-1.33 1.148-1.137.133-2.242-.364-3.112-.747-.736-.31-1.932-.536-2.735-.488 1.501-.83 3.835-.74 4.662.536.497-.402.808-.765.946-1.592.426-2.238-1.324-3.386-3.189-3.386.048-.54-.334-.808-.827-.626 0-.23-.062-.406-.187-.497.043-.005.1-.024.14-.024 1.883-.13 3.657-.712 4.618-1.722 1.684-1.797-1.004-4.083-.043-5.852.923.4 1.597.918 2.87 1.095.133.273.248.808.291 1.099.407 2-1.564 2.334-1.052 4.462.225.965.947 1.3 1.19 2.448 0 0 .092.802-.606 1.502 1.616.043 2.467-1.325 1.97-2.602-.22-.516-.785-1.014-.785-1.615.832 1.099 1.574 1.056 2.85.65.584-.177.632.631.268 1.28.875-.52 1.105-1.371 1.105-1.75 0-.899-.699-1.324-1.373-1.143-.377.043-1.142.56-1.185-.18-.159-1.278 1.86-1.234 1.453-3.294-.22-1.034-1.367-1.598-3.16-1.819-.178-.181-.627-.607-.871-.966-.985-1.634-1.999-2.06-2.606-1.725-.717.357-1.095.673-1.678.984-.474.248-.966.383-1.282.741-.784.966-.043 2.468.358 3.39.273.536.924 1.77.632 2.688-.316 1.099-2.133 1.793-3.228 2.019-.072 0-.115.023-.186.023v-.425c.315-.565.588-1.235.813-1.842.74-1.975-.364-2.777-1.994-3.16a.758.758 0 0 0-.698-.091h-.048l-.043.335-.225-.067.048-.402h-.096c.187-.134.273-.36.273-.583a.968.968 0 0 0-.177-.56h.22l-.091-.091c-.038-.09-.13-.176-.268-.315a.34.34 0 0 1-.086-.178c.043.044.086.092.177.135.09.09.225.182.268.268l.134.09V9.176l-.134.11c-.043.044-.177.134-.268.225-.09.09-.134.09-.177.133 0-.043.043-.09.086-.181a.879.879 0 0 0 .268-.287l.091-.139H50.39l.09.139c.086.062.201.2.292.287.043.09.086.138.134.181-.048-.043-.134-.043-.182-.133-.158-.091-.244-.181-.334-.226l-.091-.11v1.837l.09-.09c.091-.086.177-.178.335-.268.048-.043.134-.091.182-.135-.048.043-.09.135-.134.178-.09.139-.206.225-.292.315l-.09.092h.291c-.158.132-.2.315-.2.559 0 .224.085.45.243.583h-.043l.043.402-.244.067-.048-.335h-.042a.701.701 0 0 0-.675.09c-1.66.384-2.759 1.186-2.018 3.16.225.608.498 1.278.832 1.843v.29c-1.664-.54-4.648-2.357-5.45-3.456a2.66 2.66 0 0 1-.202-.268l-.009.005.033-1.19c.579-.967 1.096-2.157 1.502-3.253 1.052-2.85-.498-4.035-2.96-4.533a1.02 1.02 0 0 0-.966-.132l-.086.449-.516-.043.042-.584c-.09.043-.176.043-.267.043.353-.177.602-.608.602-1.052 0-.315-.158-.698-.425-.875h.425c-.249-.226-.65-.698-.736-1.009.311.086.784.512 1.004.74V.272c-.22.177-.693.626-1.004.67.086-.263.487-.717.736-.942H37.92c.182.225.63.679.674.941-.273-.043-.717-.492-.966-.669v2.333c.249-.228.693-.654.966-.74-.043.31-.492.783-.674 1.009h.401c-.267.177-.401.56-.401.875 0 .444.224.875.583 1.052-.09 0-.182 0-.316-.043l.048.584-.516.043-.048-.45c-.402-.134-.712-.043-.985.133-2.438.498-3.993 1.684-2.936 4.533.359 1.096.875 2.286 1.501 3.253v1.233c-.043.043-.09.134-.177.22-.784 1.1-3.79 2.917-5.45 3.457v-.291c.334-.565.607-1.235.832-1.842.74-1.975-.359-2.777-2.019-3.16-.186-.134-.4-.182-.673-.091h-.043l-.049.335-.224-.067.043-.402h-.043a.858.858 0 0 0 .224-.583c0-.244-.043-.427-.18-.56h.272l-.092-.091c-.09-.09-.18-.176-.268-.315-.042-.043-.11-.135-.157-.178.048.043.157.092.201.135.133.09.224.182.316.268l.09.09V9.176l-.09.11c-.092.044-.183.134-.316.225-.044.09-.153.09-.2.133.047-.043.114-.09.156-.181.087-.086.177-.225.268-.287l.092-.139h-1.837l.087.139c.043.062.157.2.248.287.086.09.13.138.13.181-.044-.043-.087-.043-.173-.133-.115-.091-.253-.181-.292-.226l-.138-.11v1.837l.138-.09c.039-.086.177-.178.292-.268.086-.043.13-.091.172-.135 0 .043-.043.135-.129.178-.091.139-.205.225-.248.315l-.087.092h.244a.835.835 0 0 0-.205.559c0 .224.09.45.296.583h-.091l.048.402-.253.067-.04-.335h-.047c-.273-.091-.492-.043-.674.09-1.66.384-2.759 1.186-2.018 3.16.225.608.498 1.278.832 1.843v.425c-.071 0-.133-.023-.182-.023-1.099-.226-2.936-.92-3.251-2.019-.292-.918.364-2.152.627-2.687.425-.923 1.147-2.425.387-3.39-.34-.36-.832-.494-1.306-.742-.579-.31-.942-.627-1.678-.984-.588-.335-1.593.09-2.606 1.725-.22.359-.693.784-.875.966-1.77.22-2.912.785-3.156 1.818-.411 2.061 1.612 2.017 1.477 3.294-.047.742-.827.224-1.19.181-.698-.18-1.392.244-1.392 1.144 0 .378.249 1.228 1.105 1.75-.359-.65-.316-1.458.287-1.282 1.277.407 1.994.45 2.826-.649 0 .601-.536 1.099-.78 1.615-.497 1.277.33 2.645 1.97 2.602-.741-.7-.588-1.502-.588-1.502.23-1.148.947-1.483 1.191-2.448.498-2.128-1.477-2.462-1.052-4.462.043-.291.134-.826.268-1.099 1.282-.177 1.975-.694 2.869-1.095.923 1.769-1.726 4.055-.043 5.852.966 1.01 2.759 1.593 4.619 1.722.038 0 .1.024.148.029-.13.086-.196.262-.196.492-.487-.182-.87.087-.803.626-1.927 0-3.63 1.148-3.209 3.386.134.827.45 1.19.966 1.592.809-1.277 3.142-1.367 4.663-.536-.828-.048-2.018.177-2.755.488-.856.383-1.95.88-3.093.747-.79-.091-1.191-.583-1.35-1.148-.358.315-.09 1.883 1.254 2.515.674.335 1.865.469 2.692-.139.316-.177 1.55-1.544 3.055-1.544-2.18.583-2.787 2.152-1.08 3.094-.067-.54-.153-1.281.942-1.951a3.13 3.13 0 0 1 2.515-.316c.334.134.78.364 1.052.45.468.043.693-.226.827-.359.966.717 2.376 2.96 2.692 4.37.335 1.617.091 2.673-.717 3.616-.268.292-1.568 1.342-2.845.243-.12 1.028.41 1.794 1.238 2.071-.741.081-1.238.11-1.253.114l-.129.005-.052.124c-.014.025-.125.283-.258.804a2.039 2.039 0 0 1-1.096-.966c-1.1 1.258-.76 3.276.718 3.863-.015.278-.024.575-.024.88-1.267.976-3.572.775-4.71-.908-.875-1.276.134-2.195.631-2.712 1.277-1.232 1.277-2.424.354-3.744-1.186-1.773-4.844-4.666-6.25-6.775-.23.383-.363.742-.412.875-1.319-1.004-2.801-3.088-3.289-4.662-.273.042-.473.315-.698.516-2.042-2.582-5.762-8.789-6.814-11.213-2.224 1.057-2.18 4.218-1.501 6.03.597 1.659 1.611 3.433 3.739 5.9-.67-.497-4.84-4.753-5.762-5.292-1.545 2.2-.493 6.076 2.42 7.717-.895-.407-3.094-1.238-4.28-.947-.225 2.468 1.77 4.15 3.003 5.069-1.186-.268-2.554-.469-3.878-.091.09 1.684 1.836 3.566 4.303 4.441-1.568-.157-3.16.05-4.126.627.181 1.75 2.156 3.256 4.528 3.616-1.592.176-3.003.875-3.74 1.836.87 1.142 2.148 2.017 4.103 1.974-.45.158-.965.469-1.41.895a.366.366 0 0 0-.225-.086c-.096.043-.134.177-.096.267v.067c-.186.135-.291.287-.31.45a4.198 4.198 0 0 0-.47.827c.048.024.087.067.135.09a.711.711 0 0 0 .129.494c-.086.09-.13.225-.176.358l-1.144-.45c-.062 1.038.167 1.895.693 2.425.411.468.876.401.742.56l1.238.76c.22.473.67.473.98.34v.09c0 .492.34.894.785 1.052-.086.406.09.674.655.855l4.662 11.3c-.182.536 0 1.009.406 1.186a.827.827 0 0 0-.181.54c.181-.133.45-.181.583.2.086.268-.402 1.143.34 1.727-.096.516.176 1.052.712 1.282 0 .268.249 1.143.292 1.454-.335.472-1.1 1.19-1.004 1.974.09.565.31.742.76.875-.182 1.01.378 1.46 1.233 1.506 0 .737.694 1.004 1.143 1.047.426.317.607.45 1.1.7-.45.535-.134 1.233.693 1.458.092.31.316.582.785.693.272.449.76.449 1.052.315.181-.09.497-.607.224-1.056.182-.225.091-.65-.043-.918.268-.493.043-1.1-.334-1.278.047-.271-.091-.697-.182-.96.65-.407 1.458-.923 1.75-1.1 1.593-1.143 3.386-2.157 5.428-2.291.516-.047 1.477-.09 2.022-.047.827.09 1.97.34 2.64-.178.205-.133.34-.358.296-.583-.091-.517-.65-.966-.832-1.435a5.966 5.966 0 0 0-.22-.535c.583.105 1.12.019 1.453-.14.36-.132 1.234-.783 1.191-1.743-.698.333-2.38.783-2.558-.924-.181-1.501 1.143-2.778 3.208-2.218 1.411.358 3.472 3.361 1.588 4.667-.918.626-2.328 1.228-2.147 2.868.602-.74 1.406-1.1 2.458-1.008-1.545 1.143-2.73 1.276-4.346 2.15-1.411.829-2.463 2.202-3.568 2.245-.85.043-1.32-.967-.493-1.751-.827-.177-1.926.473-2.242 1.344-.401 1.19-.091 2.042.65 2.514-1.004.536-1.745 1.593-1.391 3.094.34 1.234 1.573 1.234 1.105 2.803.693-.182 1.138-.65 1.343-1.325.091-.468.177-.96.407-1.186-.096.942.444 2.329 1.726 2.96.87.426 2.242.602 3.295-.492.425 1.233 1.878 2.285 3.385 2.242.693 0 1.368-.297 1.884-.603.359.913 1.276 1.837 2.194 2.282.942-.445 1.865-1.369 2.244-2.282.496.306 1.19.603 1.864.603 1.454.043 2.98-1.009 3.386-2.242 1.051 1.094 2.42.918 3.294.492 1.282-.631 1.817-2.018 1.731-2.96.244.226.33.718.426 1.186.177.674.621 1.143 1.32 1.325-.47-1.569.789-1.569 1.1-2.803.358-1.501-.383-2.558-1.368-3.094.717-.472 1.057-1.324.626-2.514-.311-.87-1.41-1.521-2.243-1.344.833.784.383 1.794-.492 1.75-1.1-.042-2.152-1.415-3.567-2.243-1.612-.875-2.802-1.008-4.347-2.15 1.052-.093 1.884.267 2.463 1.007.181-1.64-1.229-2.242-2.152-2.868-1.86-1.306.182-4.309 1.616-4.667 2.037-.56 3.386.717 3.185 2.218-.225 1.707-1.86 1.257-2.601.924 0 .96.87 1.61 1.233 1.744.422.2 1.196.306 1.894.01-.024.167-.053.349-.053.397-.138 1.459-.923 1.592-.655 2.195.383.45 2.893.358 3.567.497 1.191.157 2.2.603 3.343.827 1.277.268 2.644.268 3.791.742.737.315 1.57.918 2.286 1.276 1.095.182.919.627 1.617.627.626 0 .87-.535 1.678-.76.56-.135 1.186.09 1.745-.092.407-.09.588-.511.97-.736.45-.272 1.077-.272 1.503-.655.224-.197.267-.58.234-.847l.009.063a5.132 5.132 0 0 0 1.865-2.492.493.493 0 0 0 .402-.468v-.086a.948.948 0 0 0 .358-.717c0-.34-.133-.608-.358-.832v-.092c0-.176-.09-.31-.177-.425a5.123 5.123 0 0 0-3.749-4.012v-.09h-.043c0-.092-.043-.139-.11-.139-.273-.268-.588-.69-.627-.962.311.09.828.583 1.096.784V59.16c-.268.201-.785.695-1.096.784.039-.315.531-.875.78-1.1h-2.62c.244.225.736.785.779 1.1-.311-.09-.827-.583-1.095-.784v2.577c.268-.2.784-.693 1.095-.784-.043.316-.535.876-.78 1.1l.091.044c-1.95.449-3.524 2.065-3.882 4.06-.134.114-.225.248-.225.424v.092a1.132 1.132 0 0 0-.359.832c0 .262.134.535.36.717v.086c0 .292.18.425.4.468.092.25.201.497.316.722 0-.023 0-.023.03-.047-.164.74-1.058 1.19-1.26 1.19-1.596.225-3.365-.45-4.981-1.051-.713-.274-1.678-.584-2.152-1.282-.292-.506-.416-.828-.268-1.277.177.225.474.474.875.693.043-.22.043-.468.13-.65.41.607 1.056.918 1.84.875-.468-.401-.693-1.458-.468-2.376.65 1.1 3.118 1.324 3.567-.65-.923.43-1.507-.043-1.683-.536-.273-.79.626-2.697-.182-4.175-.65-1.095-1.386-1.769-3.113-2.037.134-.205.177-.387.22-.697-1.587.584-2.96.133-3.61-1.143.316.133.784.182 1.234.182-1.41-1.149-1.325-4.4-.311-6.079.134-.09.177-.181.31-.224.311.627 1.234.627 1.703 1.142.182-.181.272-.224.454-.382 0 0 .038 2.669.22 3.767.177 1.235 1.373 1.1 1.975 1.64.717-.788 2.018-.745 1.817-2.112-.182-1.364-.45-2.596-.492-3.52.401.832 1.185 3.95 1.501 4.844.512 1.325 1.793.924 2.51 1.44.474-.923 1.66-1.191 1.186-2.583-.134-.358-2.08-4.46-2.372-5.25.694 1.014 2.578 4.623 3.161 5.633.65 1.052 1.837.535 2.688.803.162-.76 1.305-1.635.473-2.955-1.052-1.75-3.52-4.801-3.654-5.226.493.468 4.323 5.226 4.62 5.493.894.785 2.194.178 2.96.178 0-.87.693-1.86-.31-2.87-.924-.874-3.032-2.376-3.478-2.892 1.407.966 3.07 2.51 4.056 2.759 1.75.45 2.376-.249 3.03-.517-.54-1.591.178-2.328-3.523-3.877 3.204 1.143 4.62.579 5.762-.316-.45-1.142-1.593-2.103-2.515-2.42 1.956.043 3.256-.832 4.107-1.974-.717-.961-2.151-1.66-3.787-1.836 2.42-.36 4.347-1.866 4.572-3.616zM3.745 47.32c-.043 0-.043.043-.086.086-.273-.043-.273-.36-.225-.627.13 0 .225-.043.31-.133l.044.047-.13.086c.044.182.044.36.087.541zm.875 1.88l-.445-.263c.177-.207.354-.207.531-.091 0 .133 0 .267-.086.353zm1.32-2.804h-.177c-.01-.013-.02-.028-.034-.042.082-.02.168-.02.244-.043a.318.318 0 0 1-.033.085zm25.433 32.765c-1.1 0-1.883-.693-1.324-1.66.291.436.87.643 1.367.695-.043.453-.043.588-.043.965zm16.728-1.66c.563.967-.22 1.66-1.32 1.66 0-.377 0-.512-.092-.965.513-.049 1.11-.24 1.412-.694zm-16.775-59.36c2.515-.54 5.068-1.95 6.216-3.135.952.057 2.18.066 3.113.013 1.133 1.196 3.654 2.582 6.168 3.123-1.458 0-4.012-.134-4.327-.493.09.918 2.042 1.956 3.318 2.243-1.057.133-2.037 0-2.874-.378.455.65.966 1.143 1.817 1.435-.894 1.1-2.73 1.812-4.551 1.635.449.54 1.28.875 2.003.784-1.635 2.61-2.85 5.288-3.137 8.392l-.01-.004-.004.01c-.273-3.11-1.477-5.787-3.108-8.398.736.09 1.549-.244 1.97-.784-1.837.177-3.61-.535-4.528-1.635.856-.292 1.367-.785 1.816-1.435-.808.378-1.816.511-2.869.378 1.278-.287 3.252-1.325 3.338-2.243-.335.359-2.888.493-4.35.493zm-23 27.587c-.235.095-.507.215-.722.305v-.061c.22-.081.492-.163.722-.244zm16.138 11.749c.048.31.091.492.224.697-1.726.268-2.462.942-3.088 2.037-.88 1.478.038 3.386-.21 4.175-.177.493-.756.966-1.675.536.446 1.974 2.913 1.75 3.563.65.22.918 0 1.975-.45 2.376.766.043 1.416-.268 1.818-.875.09.182.09.43.134.65a2.6 2.6 0 0 0 .875-.693c.067.22.153.736.048 1.157-.33.225-.703.431-1.282.727-.923.45-2.596 1.1-3.563 1.233-.788.135-2.156-.315-2.514-1.415-.316-1.052-1.186-1.386-1.885-.74-.176-.135-.669-.226-.875.096 0 0-.22-.498-.492-.742.181-.541.043-1.19-.45-1.41-.043-1.057-.693-1.057-.918-1.416-.133-.225-.133-.498.182-.54-.134-.2-.407-.244-.45-.244.087-.45-.047-1.01-.65-1.191L7.488 51.58c.34-.358.163-.875-.225-1.057v-.086c.033-.085.038-.153.048-.22.144-.024.316-.057.469-.095 1.052-.249 2.692-1.793 4.107-2.759-.497.516-2.558 2.018-3.476 2.893-.856.851-.498 1.702-.359 2.468l.201.424c.78.05 1.946.518 2.821-.2.273-.268 4.108-5.026 4.62-5.494-.197.425-2.62 3.476-3.716 5.226-.813 1.32.378 2.195.517 2.955.87-.268 2.06.249 2.687-.803.607-1.01 2.467-4.62 3.16-5.633-.267.79-2.242 4.892-2.376 5.25-.469 1.392.717 1.66 1.19 2.582.718-.515 2.014-.114 2.511-1.44.31-.894 1.1-4.011 1.506-4.843-.048.924-.316 2.156-.497 3.52-.182 1.367 1.1 1.324 1.77 2.113.65-.54 1.84-.406 2.017-1.64.182-1.1.224-3.768.224-3.768.183.158.273.2.474.382.444-.515 1.368-.515 1.679-1.142.138.043.181.134.315.224 1.009 1.678 1.095 4.93-.315 6.079.406 0 .923-.05 1.233-.182-.626 1.276-2.017 1.727-3.61 1.143zM34.4 72.841c-.832 1.142-1.482 1.969-2.018 3.385-.966-.091-.783-1.278-.468-1.884.65-1.19 3.294-2.736 4.619-4.285-.588.995-1.41 1.89-2.133 2.784zm2.87 2.107c-.536 2.105-.918 5.203-.737 6.59-1.865-.966-.808-4.71-.09-6.321 1.003-2.243 1.701-4.978 1.927-6.728.578 1.328-.708 5.044-1.1 6.46zm4.351 6.59c.181-1.387-.177-4.485-.741-6.59-.387-1.415-1.674-5.13-1.1-6.459.224 1.75.923 4.485 1.932 6.728.717 1.61 1.769 5.355-.09 6.321zm4.619-7.196c.316.606.497 1.793-.469 1.884-.54-1.416-1.19-2.243-1.994-3.385-.746-.881-1.568-1.79-2.156-2.784 1.32 1.55 3.969 3.094 4.619 4.285zm-.23-16.048c-2.429 4.72-6.88 8.563-6.933 8.507-.053.056-4.504-3.787-6.934-8.507-2.429-4.715-3.987-12.122-4.073-15.66-.087-3.538.607-5.054.607-5.054s3.036-.168 5.465-1.014c2.061-.712 4.304-2.52 4.935-3.046.626.526 2.874 2.334 4.94 3.046 2.424.846 5.46 1.014 5.46 1.014s.694 1.516.603 5.054c-.086 3.538-1.645 10.945-4.07 15.66z"/></g></svg>