<svg
	xmlns="http://www.w3.org/2000/svg"
	viewBox="0 0 128 92"
	preserveAspectRatio="xMaxYMin"
	fill="#ffffff"
>
	<path
		d="M120 0H8a8.009 8.009 0 0 0-8 8v68a8.009 8.009 0 0 0 8 8h41v4H39a2 2 0 0 0 0 4h50a2 2 0 0 0 0-4H79v-4h41a8.009 8.009 0 0 0 8-8V8a8.009 8.009 0 0 0-8-8zM75 88H53v-4h22v4zm45-8H8a4 4 0 0 1-4-4h120a4 4 0 0 1-4 4zm4-8H4V8a4 4 0 0 1 4-4h112a4 4 0 0 1 4 4v64z"/>
	<path
		d="M118 30a2 2 0 0 0-2 2v32h-4V42a2 2 0 0 0-4 0v22h-4V52a2 2 0 0 0-4 0v12h-4V52a2 2 0 0 0-4 0v12h-4V42a2 2 0 0 0-4 0v22h-4V32a2 2 0 0 0-4 0v34a2 2 0 0 0 2 2h40a2 2 0 0 0 2-2V32a2 2 0 0 0-2-2zM36 62c-13.245.01-23.99-10.72-24-23.966a23.983 23.983 0 0 1 2.678-11.03 10.043 10.043 0 0 1-3.223-2.462c-7.44 13.55-2.487 30.564 11.063 38.003A27.988 27.988 0 0 0 36 66a2 2 0 0 0 0-4zM19 24a6 6 0 1 0-6-6 6.007 6.007 0 0 0 6 6zm0-8a2 2 0 1 1 0 4 2 2 0 0 1 0-4z"/>
	<path
		d="M36 50c-6.627.009-12.007-5.357-12.016-11.984S29.341 26.009 35.968 26a12 12 0 0 1 10.409 6h4.445c-3.316-8.188-12.642-12.138-20.83-8.822S17.854 35.82 21.17 44.008A15.996 15.996 0 0 0 36 54a2 2 0 0 0 0-4z"/>
	<path
		d="M36 14a24.043 24.043 0 0 1 23.24 18h4.106C60.04 16.902 45.123 7.342 30.026 10.647a27.984 27.984 0 0 0-3.35.955 9.984 9.984 0 0 1 1.912 3.575A23.897 23.897 0 0 1 36 14zM66.5 36H42.705a7 7 0 1 0 0 4H66.5a2 2 0 0 0 0-4zM36 41a3 3 0 1 1 0-6 3 3 0 0 1 0 6zM98 38c8.284 0 15-6.716 15-15S106.284 8 98 8s-15 6.716-15 15 6.716 15 15 15zm0-26c6.075 0 11 4.925 11 11s-4.925 11-11 11-11-4.925-11-11c.007-6.072 4.928-10.993 11-11z"/>
	<path d="M98 30a7 7 0 1 0 0-14 7 7 0 0 0 0 14zm0-10a3 3 0 1 1 0 6 3 3 0 0 1 0-6z"/>
</svg>
