<svg
	xmlns="http://www.w3.org/2000/svg"
	viewBox="0 0 94.993 77.762"
	fill="#5c95a8"
>
	<path
		d="M83.197 24.462l11.3-13.1c.5-.5.6-1.3.4-2s-.8-1.2-1.5-1.4l-33-7.9c-.7-.2-1.5.1-2 .7l-10.9 12.7-10.9-12.7c-.5-.6-1.3-.8-2-.7l-33 7.9c-.7.2-1.3.7-1.5 1.4-.2.7-.1 1.4.4 2l11.3 13.1-11.3 13.1c-.5.5-.6 1.3-.4 2 .2.7.8 1.2 1.5 1.4l10.9 2.5v24.3c0 1 .6 1.8 1.6 2l33 7.9c.1 0 .3.1.5.1s.3 0 .5-.1l33-7.9c.9-.2 1.6-1 1.6-2v-24.3l10.7-2.6c.7-.2 1.3-.7 1.5-1.4s.1-1.4-.4-2l-11.3-13zm-11.5 0l-24.2 5.7-24.1-5.7 24.1-5.8 24.2 5.8zm-11-20.1l28.5 6.8-9.4 11-28.5-6.8 9.4-11zm-26.4 0l9.4 11-28.5 6.8-9.4-11 28.5-6.8zm-19.1 22.3l28.5 6.8-9.4 11-28.5-6.8 9.4-11zm1.4 39.5v-21.7l18 4.3c.2 0 .3.1.5.1.6 0 1.2-.3 1.5-.7l8.9-10.4v35.2l-28.9-6.8zm61.8 0l-28.9 6.8v-35.2l8.9 10.3c.4.5 1 .7 1.5.7.2 0 .3 0 .5-.1l18-4.3v21.8zm-17.7-21.7l-9.5-11 28.5-6.8 9.4 11-28.4 6.8z"/>
</svg>
