<svg xmlns="http://www.w3.org/2000/svg" viewBox="0 0 242.749 85.841"><path fill="#fff" d="M1.31 85.84c-.482 0-.987-.095-1.207-.485-.217-.384-.051-.862.124-1.196l.028-.05.05-.028a28.704 28.704 0 0 0 5.022-3.599 36.636 36.636 0 0 0 4.242-4.742c.294-.396.655-.903 1.11-1.664.46-.767.743-1.351.747-1.358.633-1.316-.03-3.363-.87-5.954a94.007 94.007 0 0 1-.705-2.242 16.47 16.47 0 0 1-.417-1.619c-.093-.439-.208-.985-.618-2.482a113.517 113.517 0 0 0-2.857-8.964l-2.505-10.17c-.668-1.05-1.066-2.2-1.154-3.334-.044-.583.025-1.156.161-2.297.18-1.481.27-2.223.7-2.428.512-.246 1.112.194 1.69.619.425.312.908.67 1.137.533.197-.117.288-.584.175-.922-.076-.231-.197-.388-.37-.478-2.09-1.09-2.07-2.852-2.048-4.556.007-.648.016-1.317-.101-1.924-.111-.575.06-.866.223-1.008.18-.155.525-.292 1.166-.074.362.126.727.25.953.128.132-.07.229-.226.296-.476a36.6 36.6 0 0 1 .314-1.08c.27-.89.548-1.81.637-2.723a7.41 7.41 0 0 0 .022-.815c-.005-.662-.01-1.347.408-1.773.22-.224.477-.222.745-.216.247.004.53.01.89-.154.42-.19.69-.458.836-.603.183-.181.535-.597.845-1.362.235-.58.323-1.065.382-1.385.068-.36.112-.597.344-.62l.029-.002c.275 0 .398.382.578.947.082.256.215.667.313.795.176-.186.499-1.074.82-2.526l.016-.074c.09-.42.194-.899.548-.966.236-.041.492.14.769.544.461.674 1.505 1.499 3.102 2.45.463-.251.87-.568 1.21-.945.144-.159.249-.297.338-.415.189-.25.34-.45.63-.506.426-.09.718.201.976.455.204.199.4.37.576.35.503-.05 1.066-1.244 1.719-2.627.183-.389.5-1.065.953-1.065a.483.483 0 0 1 .28.093c.376.251.923.538 1.124.557h.011c.193 0 .513-.458 1.19-1.533.307-.485.712-1.003 1.183-1.603.18-.23.37-.475.567-.731.218-.283.678-.712 1.058-.535.238.115.28.412.299.554.178 1.267.536 2.222.576 2.327.129.33.395 1.019.726 1.048.146.018.362-.156.547-.323.227-.204.485-.434.777-.323.2.078.276.264.336.414.543 1.347.803 1.515.89 1.526h.002c.055 0 .199-.226.296-.376.217-.341.514-.808 1.07-1.245a4.15 4.15 0 0 1 .83-.502l.352-.162-.082.379c-.129.594.05 1.187.463 1.55.302.263.651.335.876.35l1.553-1.864c.052-.049 3.278-2.977 3.374-3.069l.189-.178.117.233a1 1 0 0 0 .113.171l.005.006c.02.023.147.169.336.272.536.296 1.376.12 1.385.117.935-.206 1.685-.71 2.233-1.077.484-.325.777-.527 1.003-.334.21.178.12.558-.003 1.082-.061.257-.174.737-.114.838.074.081.176.14.177.14.06.034.127.06.212.082.385.096.758.31 1.119.518.862.497 1.607.926 2.556.001.328-.321 1.19-.953 1.637-.734.471.233.566.237 1.173.258l.07.002.07.001c.676 0 1.24-.34 1.617-.568.406-.247.68-.5.881-.685.246-.227.44-.404.666-.293.253.126.212.455.163.834-.052.406-.118.911.144 1.197.208.226.556.267.847.252 2.87-.012 5.335-.897 7.536-2.706.08-.064.158-.14.242-.216.367-.343.827-.77 1.507-.66l.107.017.041.1c.977 2.345.977 2.343 3.422 1.357l.155-.062c1.013-.408 1.725-.832 2.296-1.17.8-.477 1.327-.792 1.94-.553.316.125.445.315.559.482.102.15.199.293.457.42.896.438 2.434.026 3.286-.888.31-.332.636-.841 1.013-1.43.244-.382.509-.795.804-1.215.086-.124.351-.501.775-.546.17-.02.306.019.506.094a4.9 4.9 0 0 1 .767.368c.049.027.086.05.117.065.101.046.587.094 2.664-1.41.457-.33.833-.557 1.352-.87l.222-.135c.526-.317 1.203-.721 1.738-.243.228.204.29.478.296.509.047.216.001.49-.373 1.13a7.924 7.924 0 0 1-.497.743 49.101 49.101 0 0 1-1.84 2.233l-.215.246c-.55.623-.8.907-.897 1.4-.056.276-.04.498-.027.693.02.28.036.545-.176.805-.235.287-.535.301-.826.316-.249.012-.507.026-.812.179-.345.173-.663.686-1.296 1.705-.265.428-.33.571-.41.754a8.989 8.989 0 0 1-.514.978l-.1.168c-.233.399-.418.713-.343.851.03.055.091.08.209.12.15.055.357.127.51.35.207.307.185.698.102.939-.133.39-.448.547-.812.728-.186.093-.398.198-.62.35-.272.187-.458.409-.77.777l-.296.348c-.82.947-1.464 1.695-1.398 2.598.002.039.073.938.692 1.392.21.155.417.212.6.26.217.059.44.12.513.356.102.33-.193.585-.639.972-.168.146-.361.315-.566.514-.846.827-1.284 1.56-1.504 2.031-.188.406-.76 1.641-.337 2.468.273.534.932.904 2.013 1.133.552.118 1.133.293 1.257.708.08.264-.04.55-.363.876-.635.64-.887 1.433-1.154 2.274-.239.751-.484 1.529-1.03 2.169-.086.102-.29.342-.268.474.003.015.01.06.106.116.532.315.813.636.857.982.059.47-.331.86-.674 1.202a5.095 5.095 0 0 0-.33.35c-.313.381-.656.93-.504 1.378.07.209.226.318.806.663.512.305.89.525 1.176.69.767.446.886.515.971.746.172.462-.062.807-1.504 2.805l-.125.172c-1.083 1.499-1.309 1.83-1.217 2.213.081.344.367.522.643.697.286.18.58.365.574.726-.012.532-.68.867-1.454 1.254-.741.371-1.581.791-1.692 1.36-.035.18-.026.35-.016.438 1.177 1.14.55 2.168-.196 3.123-.313.4-.363.666-.165.891.23.264.448.55.656.827.628.83 1.221 1.614 2.246 1.932.098.031.22.043.348.056.353.033.888.083.93.744.034.526-.371.794-.698 1.01-.1.066-.198.13-.285.2l-.425.352c-.807.667-1.642 1.357-2.418 2.076-.314.294-.08.679.348 1.28.334.467.677.952.42 1.365-.18.286-.47.34-.876.414a8.1 8.1 0 0 0-.94.22 7.15 7.15 0 0 0-1.786.835c-1.552 1.064-1.691 1.61-1.636 1.842.013.049.035.107.06.171.087.22.22.553.125.95-.04.173-.119.335-.23.485l-.057.077-.096.001c-.755.01-1.653.497-1.988.927-.122.156-.115.236-.11.257.145.605.295 1.229.972 2.096a9.374 9.374 0 0 0 2.133 1.987l.447.301-.536.052a4.542 4.542 0 0 0-1.704.504c-.994.526-1.595 1.333-1.794 1.6-.28.375-.448.69-.584.944-.213.4-.367.689-.754.745-.23.035-.444-.033-.648-.1-.244-.08-.474-.155-.762-.078-.088.025-.142.056-.176.1-.081.113-.032.325.06.465.359.537.458.925.307 1.22-.146.286-.475.387-1.114.493-1.816.308-2.725.465-3.3.371-.383-.063-.45-.005-.458.009 0 0-.01.043.036.165.265.714.283 1.212.05 1.53-.309.421-.944.39-1.505.365a5.565 5.565 0 0 0-.522-.01c-1.419.091-2.863.1-4.26.108-.601.004-1.202.008-1.804.018a7.305 7.305 0 0 1-.457-.02c-.334-.025-.679-.051-.807.103-.08.096-.14.337.02.931.07.263.04.473-.09.626-.267.306-.817.241-1.26.19l-.087-.01c-2.177-.248-3.935-.666-5.532-1.316l-.59-.277c-3.756-1.758-7.64-3.579-11.836-4.368-.564-.106-1.545-.582-3.1-1.35a31.534 31.534 0 0 1-1.837-.981c-.22-.127-.418-.24-.621-.348-2-1.063-3.85-1.31-5.992-1.594-2.94-.39-4.414-.587-6.109-.05-1.484.474-2.51 1.078-4.647 3.413-2.012 2.197-4.292 4.432-6.776 6.645a4.596 4.596 0 0 1-1.88.693c-.21.037-.504.075-.808.075zm-.763-1.45c-.162.324-.2.606-.104.775.229.407 1.206.282 1.623.227a4.239 4.239 0 0 0 1.7-.618 94.405 94.405 0 0 0 6.72-6.598c1.969-2.147 3.094-2.97 4.816-3.518 1.777-.566 3.278-.365 6.27.032 2.187.29 4.07.54 6.13 1.637.206.111.408.226.632.353.436.248.98.558 1.816.97 1.32.651 2.46 1.214 3 1.317 4.243.8 8.15 2.63 11.928 4.398l.581.273c1.554.63 3.28 1.041 5.419 1.283l.09.011c.276.034.79.092.92-.058.052-.062.034-.183.01-.272-.167-.623-.15-1.03.056-1.278.255-.309.703-.273 1.134-.244.142.011.279.032.423.019.604-.009 1.206-.013 1.807-.017 1.391-.008 2.83-.017 4.236-.106.17-.011.365-.001.566.008.466.022.991.05 1.175-.205.145-.198.11-.601-.1-1.166-.032-.085-.129-.345.017-.534.195-.26.633-.19.82-.16.518.087 1.465-.077 3.184-.367.548-.091.773-.169.834-.288.076-.148-.026-.443-.284-.83-.163-.244-.249-.631-.053-.905a.66.66 0 0 1 .391-.25c.393-.108.722-.002.983.083.176.057.323.109.47.085.184-.027.264-.161.468-.545.141-.265.318-.594.617-.995.21-.283.851-1.143 1.921-1.71.423-.224.88-.384 1.362-.476a9.71 9.71 0 0 1-1.824-1.786c-.73-.935-.896-1.63-1.043-2.244-.03-.124-.023-.324.18-.587.38-.49 1.333-1.02 2.187-1.072a.917.917 0 0 0 .114-.268c.066-.279-.027-.511-.108-.72a1.77 1.77 0 0 1-.077-.22c-.145-.6.425-1.317 1.797-2.256a7.621 7.621 0 0 1 1.888-.884c.41-.125.727-.185.982-.231.376-.07.532-.102.618-.238.121-.194-.148-.571-.406-.937-.394-.554-.884-1.243-.297-1.787.784-.73 1.625-1.424 2.438-2.093l.424-.35c.095-.082.206-.154.316-.226.34-.225.546-.376.527-.663-.02-.302-.166-.345-.581-.385a2.056 2.056 0 0 1-.425-.07c-1.144-.355-1.804-1.227-2.44-2.07-.205-.271-.417-.55-.64-.805-.493-.563-.007-1.182.152-1.386.725-.925 1.198-1.708.187-2.65l-.046-.042-.012-.063a1.87 1.87 0 0 1 .008-.64c.147-.755 1.079-1.22 1.9-1.633.577-.29 1.233-.617 1.238-.915.003-.134-.147-.236-.392-.39-.31-.195-.696-.438-.813-.934-.136-.571.163-.986 1.28-2.531l.123-.172c1.286-1.78 1.552-2.186 1.456-2.443-.036-.099-.125-.153-.803-.546-.285-.165-.667-.386-1.18-.692-.59-.35-.854-.52-.973-.871-.17-.496.025-1.086.57-1.75.104-.126.23-.252.355-.378.295-.294.598-.597.563-.879-.027-.216-.251-.45-.669-.696-.166-.099-.265-.229-.292-.387-.052-.31.203-.61.355-.79.495-.58.719-1.286.955-2.034.27-.848.547-1.724 1.249-2.43.205-.207.3-.382.267-.493-.05-.165-.375-.314-.966-.438-1.203-.254-1.948-.692-2.278-1.336-.457-.892-.029-2.029.332-2.806.232-.5.695-1.28 1.585-2.147.21-.205.408-.378.583-.53.244-.213.549-.477.52-.565-.009-.033-.143-.069-.242-.096-.193-.053-.46-.124-.728-.322-.75-.55-.841-1.563-.849-1.677-.079-1.063.649-1.904 1.49-2.879l.295-.346c.321-.38.533-.632.847-.847.244-.167.47-.28.667-.378.353-.175.541-.278.619-.508.055-.164.06-.42-.058-.595-.08-.118-.19-.157-.317-.202-.14-.05-.318-.11-.42-.297-.183-.33.029-.69.349-1.235l.098-.168a8.51 8.51 0 0 0 .496-.94c.084-.188.157-.351.436-.8.673-1.082 1.009-1.626 1.45-1.848.38-.19.706-.207.967-.22.285-.014.425-.027.546-.174.11-.135.106-.27.087-.534a2.875 2.875 0 0 1 .033-.795c.119-.597.408-.926.988-1.583l.215-.244a47.85 47.85 0 0 0 1.823-2.21c.17-.227.323-.458.47-.707.374-.639.34-.8.328-.853 0-.003-.04-.18-.175-.3-.3-.269-.725-.048-1.247.266l-.255.154a17.36 17.36 0 0 0-1.323.853c-2.416 1.75-2.867 1.536-3.06 1.444a2.837 2.837 0 0 1-.14-.077c-.149-.085-.374-.216-.71-.341-.169-.065-.236-.08-.327-.073-.248.028-.431.287-.5.385-.293.417-.554.825-.794 1.2-.388.607-.723 1.129-1.057 1.488-.972 1.041-2.678 1.486-3.74.97-.351-.171-.493-.38-.608-.549-.102-.15-.176-.257-.381-.338-.42-.166-.791.044-1.599.524-.582.347-1.309.778-2.35 1.198l-.154.062c-2.694 1.085-2.83 1.05-3.881-1.463-.432-.036-.764.28-1.078.572a5.135 5.135 0 0 1-.26.232c-2.24 1.841-4.86 2.782-7.78 2.794-.35 0-.821-.038-1.134-.378-.384-.417-.302-1.048-.244-1.507a2.8 2.8 0 0 0 .035-.398c-.06.045-.143.122-.216.188-.212.195-.502.464-.94.73-.417.253-1.035.627-1.818.627l-.084-.001-.072-.003c-.634-.022-.784-.027-1.33-.297-.143-.065-.772.25-1.196.664-1.156 1.133-2.146.56-3.02.057-.35-.203-.685-.396-1.019-.478a1.134 1.134 0 0 1-.584-.343c-.2-.22-.094-.665.027-1.182.047-.2.122-.514.12-.661-.118.05-.342.198-.527.324-.54.363-1.358.913-2.364 1.133-.041.009-.992.212-1.655-.156-.052-.029-.339-.212-.453-.378l-.002.003c-.01-.01-.017-.02-.025-.03-.673.614-3.072 2.791-3.189 2.896l-1.655 1.99-.092-.002a1.905 1.905 0 0 1-1.214-.45c-.43-.377-.659-.944-.634-1.542a3.526 3.526 0 0 0-.433.292c-.506.395-.782.83-.985 1.147-.208.33-.385.582-.67.553-.455-.053-.844-.87-1.197-1.748-.043-.106-.08-.196-.123-.213-.06-.02-.248.132-.378.248-.237.212-.512.45-.842.421-.57-.051-.87-.83-1.05-1.293a11.778 11.778 0 0 1-.6-2.412c-.028-.205-.065-.251-.084-.26-.062-.042-.351.121-.58.421-.197.257-.39.501-.572.734-.463.592-.863 1.102-1.158 1.57-.882 1.402-1.16 1.75-1.567 1.712-.358-.035-1.054-.458-1.293-.618-.034-.02-.028-.024-.074-.032-.097 0-.277.146-.592.82-.8 1.694-1.32 2.798-2.041 2.87-.37.039-.65-.226-.888-.458-.252-.247-.417-.396-.628-.352-.14.028-.22.125-.398.36a4.938 4.938 0 0 1-1.773 1.52l-.094.05-.092-.055c-1.724-1.018-2.81-1.876-3.32-2.622-.19-.279-.34-.378-.38-.38-.095.018-.2.507-.237.667l-.015.07c-.626 2.835-1.038 2.852-1.192 2.857h-.014c-.327 0-.48-.48-.674-1.086a8.733 8.733 0 0 0-.177-.509l-.026.135c-.062.336-.155.843-.405 1.458-.318.789-.682 1.247-.931 1.493-.163.161-.465.462-.95.68-.443.201-.796.196-1.057.188-.235-.001-.36-.001-.46.1-.306.312-.301.888-.297 1.497a7.92 7.92 0 0 1-.023.857c-.093.95-.378 1.889-.653 2.797-.107.355-.214.712-.311 1.069-.097.359-.257.594-.489.717-.373.199-.818.049-1.25-.1-.367-.122-.656-.126-.796-.004-.157.136-.14.426-.097.643.124.646.116 1.334.107 2.001-.02 1.66-.037 3.228 1.84 4.207.264.137.452.374.56.7.153.463.049 1.143-.344 1.378-.45.269-.993-.132-1.566-.554-.462-.342-.986-.724-1.292-.583-.24.114-.347 1.001-.482 2.124-.135 1.118-.202 1.677-.16 2.224.082 1.077.466 2.177 1.11 3.18l.025.058.976 3.902 1.532 6.28a112.867 112.867 0 0 1 2.86 8.976c.412 1.506.53 2.06.622 2.502.087.413.15.711.41 1.588.233.783.474 1.53.703 2.234.867 2.674 1.55 4.786.849 6.243-.003.006-.295.606-.763 1.387a19.543 19.543 0 0 1-1.133 1.697c-2.032 2.742-4.27 4.778-4.292 4.799h-.005a28.366 28.366 0 0 1-5.04 3.632zm49.146-45.787c4.943-.36 9.85-1.315 14.533-2.936 2.377-.83 4.749-1.68 7.086-2.61l7.006-2.806-7.087 2.594c-2.348.905-4.721 1.728-7.101 2.533-4.503 1.513-9.202 2.367-13.928 2.733 3.269-3.163 6.464-6.239 9.472-9.112l4.359-.892c1.492-.274 2.931-.752 4.367-1.234a47.605 47.605 0 0 0 8.24-3.756 57.106 57.106 0 0 1-8.346 3.438c-1.437.43-2.875.898-4.356 1.157l-3.67.717a961.636 961.636 0 0 1 7.494-7.082 528.21 528.21 0 0 1 3.846-3.566l.056-.018c3.19-1.021 6.381-2.037 9.533-3.183-3.002.788-5.968 1.692-8.934 2.6 4.218-3.856 6.866-6.145 6.866-6.145s-2.79 2.21-7.123 6.004l.686-1.893c.305-.827.593-1.68.912-2.486a56.802 56.802 0 0 1 2.303-4.782 36.423 36.423 0 0 0-2.58 4.66c-.374.825-.641 1.657-.967 2.485l-.934 2.49-.02.055a295.955 295.955 0 0 0-3.948 3.536 570.328 570.328 0 0 0-7.507 6.979c.683-3 1.503-5.971 2.494-8.886a97.166 97.166 0 0 1 3.695-9.324 73.601 73.601 0 0 0-4.034 9.205 79.235 79.235 0 0 0-2.753 9.568c-3.042 2.874-6.268 5.954-9.584 9.116a808.917 808.917 0 0 1 2.838-13.37l.764-3.513c.216-1.182.63-2.298.93-3.464l1.914-6.93-2.121 6.87-.517 1.72c-.184.57-.339 1.163-.459 1.745l-.8 3.504a788.316 788.316 0 0 0-3.119 13.98c-2.115 2.017-4.26 4.062-6.411 6.102l-8.304 7.907 3.79-20.56c.69-3.56 1.56-7.09 2.687-10.537.536-1.73 1.2-3.426 1.78-5.146l1.794-5.145-1.911 5.102c-.62 1.709-1.32 3.383-1.9 5.11-1.168 3.448-2.063 6.983-2.784 10.55l-4.088 21.23-4.188 3.987c-2.09 1.997-4.13 3.91-6.017 5.789a73.429 73.429 0 0 0-1.918 1.964l1.74-12.452c.34-2.275.586-4.575.843-6.859l.717-6.868a174.403 174.403 0 0 1 4.804-27.149 167.614 167.614 0 0 0-3.21 13.433c-.87 4.524-1.492 9.096-1.975 13.674l-.764 6.86c-.273 2.288-.532 4.564-.888 6.84l-1.944 13.24c-.889.96-1.731 1.904-2.527 2.797a154.95 154.95 0 0 1-2.177 2.372c.1-1.985.119-3.973.022-5.96-.123-2.331-.374-4.674-.844-6.96l-1.46-6.826c-.2-1.14-.398-2.282-.529-3.433a53.54 53.54 0 0 1-.324-3.46c-.298-4.63-.088-9.285.377-13.907.424-4.63 1.101-9.236 1.78-13.839-.785 4.586-1.57 9.177-2.101 13.807-.504 4.63-.752 9.303-.49 13.966a54.5 54.5 0 0 0 .3 3.49c.122 1.161.312 2.315.506 3.468l1.406 6.835c.86 4.446.966 9 .7 13.517-1.276 1.372-2.133 2.159-2.696 2.632-.276.231-.601.558-1.252 1.212-.662.664-.826.868-.768.969.088.152.65.02 1.05-.162.44-.199.702-.465.93-.686.456-.447.966-.836 1.413-1.292.502-.51 1.277-1.25 2.441-2.202a30.599 30.599 0 0 1 5.727-.796c2.174-.1 4.355.177 6.538.464l6.543.925c2.174.326 4.36.7 6.561.901 2.194.222 4.393.438 6.603.526 1.103.049 2.214.049 3.315.032 1.1-.013 2.2.01 3.301.023 4.407.074 8.818.205 13.226.124-4.41-.021-8.81-.254-13.218-.431-2.205-.109-4.419-.003-6.608-.119-2.195-.106-4.384-.337-6.575-.578-2.189-.215-4.35-.604-6.533-.95l-6.544-.977c-2.181-.304-4.395-.605-6.634-.521a30.555 30.555 0 0 0-4.964.567c.577-.638 1.168-1.298 1.778-1.995.819-.944 1.67-1.921 2.566-2.912l6.318-1.445a134.78 134.78 0 0 1 6.915-1.322c4.63-.76 9.307-1.246 14-1.311 2.343-.031 4.701.022 7.057-.133a74.411 74.411 0 0 0 7.023-.762c4.65-.763 9.222-1.928 13.694-3.375-4.502 1.355-9.09 2.426-13.738 3.09a74.815 74.815 0 0 1-6.999.708c-2.34.137-4.686.069-7.043.083-4.714.031-9.42.487-14.071 1.218-2.326.37-4.645.789-6.946 1.278l-5.533 1.234a70.801 70.801 0 0 1 1.771-1.858c1.848-1.887 3.862-3.827 5.928-5.852 1.408-1.374 2.853-2.788 4.313-4.216a190.14 190.14 0 0 0 21.106-3.822c3.555-.858 7.086-1.81 10.585-2.87a189.597 189.597 0 0 0 10.37-3.549 214.06 214.06 0 0 1-21.033 6.085 190.887 190.887 0 0 1-20.42 3.563l8.043-7.861c2.16-2.106 4.325-4.208 6.462-6.277z"/><path fill="#fefefe" d="M22.816 34.562c1.967 0 3.519.506 4.656 1.518s1.706 2.337 1.706 3.974c0 1.646-.569 2.968-1.706 3.968s-2.689 1.5-4.656 1.5h-2.903v3.814l1.84.355v2.066h-7.115v-2.066l1.829-.355V36.995l-1.83-.354v-2.079h8.18zm-2.903 8.303h2.903c.96 0 1.686-.262 2.178-.785.491-.524.737-1.192.737-2.002 0-.828-.246-1.51-.737-2.05s-1.218-.809-2.178-.809h-2.903v5.646zm18.081-8.303c1.95 0 3.481.447 4.59 1.34s1.665 2.128 1.665 3.703c0 .866-.233 1.618-.696 2.256-.465.638-1.145 1.153-2.042 1.547 1.015.3 1.744.797 2.19 1.494.443.697.666 1.56.666 2.593v.874c0 .377.074.67.224.879.15.209.397.333.743.373l.426.058v2.078h-1.783c-1.125 0-1.916-.302-2.372-.909-.456-.606-.684-1.39-.684-2.35v-.98c0-.835-.223-1.49-.667-1.967-.445-.475-1.072-.725-1.883-.75h-2.82v4.535l1.84.355v2.066h-7.116v-2.066l1.83-.355V36.995l-1.83-.354v-2.079h7.719zm-2.443 7.582h2.383c.96 0 1.68-.205 2.16-.614.48-.41.72-1 .72-1.772 0-.771-.238-1.387-.714-1.848-.476-.46-1.178-.69-2.106-.69H35.55v4.924zM62.6 43.29c0 2.52-.72 4.602-2.159 6.248-1.44 1.645-3.324 2.467-5.653 2.467-2.321 0-4.196-.822-5.624-2.467-1.428-1.646-2.142-3.728-2.142-6.248v-.26c0-2.504.712-4.582 2.136-6.236 1.424-1.653 3.297-2.48 5.618-2.48 2.329 0 4.215.827 5.659 2.48 1.444 1.654 2.166 3.732 2.166 6.236v.26zm-3.434-.284c0-1.779-.37-3.224-1.109-4.334-.74-1.11-1.834-1.665-3.28-1.665-1.449 0-2.529.551-3.24 1.653-.713 1.103-1.069 2.551-1.069 4.346v.284c0 1.811.36 3.27 1.08 4.376.72 1.106 1.8 1.659 3.24 1.659 1.456 0 2.55-.553 3.28-1.66.733-1.106 1.098-2.564 1.098-4.375v-.284zm4.816 6.684l1.83-.354V36.995l-1.83-.354v-2.079h13.679v4.712h-2.644l-.153-2.055h-5.606v4.737h6.019v2.657h-6.02v4.723l1.841.355v2.066h-7.116v-2.066zm27.546-10.05H89.77l-.437-2.456c-.354-.3-.826-.547-1.416-.744-.59-.197-1.275-.295-2.054-.295-1.235 0-2.183.262-2.844.785s-.991 1.207-.991 2.049c0 .748.336 1.372 1.008 1.872s1.76.939 3.264 1.317c1.81.449 3.184 1.11 4.125 1.984.94.874 1.41 1.957 1.41 3.248 0 1.386-.565 2.5-1.694 3.342-1.128.842-2.606 1.263-4.431 1.263-1.322 0-2.496-.216-3.523-.649s-1.863-1-2.508-1.7v-3.201h1.747l.448 2.468c.449.37.983.673 1.605.91.621.236 1.365.354 2.23.354 1.173 0 2.1-.248 2.78-.744s1.021-1.17 1.021-2.02c0-.787-.295-1.447-.885-1.978-.59-.531-1.633-.978-3.128-1.34-1.817-.434-3.237-1.07-4.26-1.914-1.023-.842-1.535-1.901-1.535-3.177 0-1.346.57-2.466 1.712-3.36 1.14-.893 2.624-1.34 4.45-1.34 1.203 0 2.298.207 3.286.62.988.413 1.78.915 2.378 1.506v3.2zm2.089 10.63l1.274-.178 6.008-15.53h1.994l5.901 15.53 1.263.178v1.487h-4.933V50.27l1.298-.225-1.133-3.165h-6.88l-1.169 3.165 1.298.225v1.487h-4.921V50.27zm5.511-5.339h5.453l-2.668-7.38h-.07l-2.715 7.38zm17.716-10.369v1.5l-1.924.33v9.826c0 1.3.37 2.286 1.11 2.96.738.672 1.714 1.009 2.926 1.009 1.274 0 2.301-.334 3.08-1.004.78-.669 1.169-1.657 1.169-2.965v-9.825l-1.924-.331v-1.5h6.172v1.5l-1.923.33v9.826c0 1.866-.608 3.298-1.824 4.293-1.215.997-2.799 1.494-4.75 1.494-1.896 0-3.43-.497-4.603-1.494-1.172-.995-1.758-2.427-1.758-4.293v-9.825l-1.924-.331v-1.5h6.173zm28.973 0v1.5l-1.924.33v15.365h-2.324l-8.262-13.274-.07.023V49.94l1.923.331v1.487h-6.172V50.27l1.923-.331V36.393l-1.923-.331v-1.5h4.249l8.26 13.263.072-.024V36.393l-1.924-.331v-1.5h6.172zm.39 15.708l1.274-.178 6.008-15.53h1.994l5.902 15.53 1.262.178v1.487h-4.933V50.27l1.299-.225-1.133-3.165h-6.881l-1.168 3.165 1.298.225v1.487h-4.922V50.27zm5.512-5.339h5.452l-2.667-7.38h-.072l-2.713 7.38zm24.819-5.291h-1.758l-.437-2.456c-.354-.3-.827-.547-1.416-.744s-1.275-.295-2.053-.295c-1.236 0-2.184.262-2.845.785s-.991 1.207-.991 2.049c0 .748.336 1.372 1.009 1.872s1.76.939 3.262 1.317c1.811.449 3.186 1.11 4.125 1.984.94.874 1.41 1.957 1.41 3.248 0 1.386-.564 2.5-1.693 3.342-1.129.842-2.605 1.263-4.431 1.263-1.322 0-2.497-.216-3.523-.649s-1.862-1-2.508-1.7v-3.201h1.747l.448 2.468c.449.37.984.673 1.605.91s1.365.354 2.23.354c1.173 0 2.1-.248 2.78-.744.682-.496 1.021-1.17 1.021-2.02 0-.787-.295-1.447-.884-1.978s-1.633-.978-3.128-1.34c-1.818-.434-3.238-1.07-4.261-1.914-1.024-.842-1.534-1.901-1.534-3.177 0-1.346.57-2.466 1.712-3.36 1.14-.893 2.623-1.34 4.449-1.34 1.203 0 2.299.207 3.287.62.986.413 1.78.915 2.377 1.506v3.2zm16.158-5.078v3.803h-1.983l-.177-1.972h-3.813v13.546l1.924.331v1.487h-6.172V50.27l1.924-.331V36.393h-3.824l-.166 1.972h-1.994v-3.803h14.281zm8.816.012c1.872 0 3.308.415 4.307 1.246 1 .83 1.5 2.01 1.5 3.537 0 .835-.232 1.575-.697 2.22s-1.129 1.154-1.994 1.524c.935.307 1.611.807 2.023 1.5.414.692.62 1.547.62 2.563v1.381c0 .528.067.917.2 1.17s.355.402.662.449l.566.07v1.523h-1.25c-.905 0-1.549-.314-1.93-.944s-.573-1.394-.573-2.291v-1.335c0-.937-.271-1.688-.814-2.256-.543-.566-1.27-.85-2.184-.85h-3.728v5.858l1.922.331v1.487h-6.172V50.27l1.923-.331V36.393l-1.923-.331v-1.488h7.542zm-3.292 7.676h3.056c1.298 0 2.242-.248 2.832-.744s.885-1.22.885-2.173c0-.905-.283-1.622-.85-2.149s-1.443-.791-2.631-.791h-3.292v5.857zm27.416 1.04c0 2.503-.72 4.583-2.155 6.236-1.436 1.653-3.295 2.48-5.576 2.48-2.219 0-4.021-.827-5.406-2.48s-2.077-3.733-2.077-6.236v-.248c0-2.496.692-4.575 2.077-6.236s3.187-2.492 5.406-2.492c2.281 0 4.14.831 5.576 2.492s2.155 3.74 2.155 6.236v.248zm-2.327-.272c0-2-.477-3.632-1.433-4.895s-2.28-1.896-3.97-1.896c-1.622 0-2.888.634-3.796 1.901-.908 1.268-1.363 2.898-1.363 4.89v.272c0 2.015.455 3.655 1.363 4.918s2.174 1.897 3.795 1.897c1.715 0 3.045-.63 3.988-1.89.945-1.26 1.416-2.901 1.416-4.925v-.272zm9.278-6.956l-1.854.225 3.6 7.015 3.6-7.015-1.841-.225v-1.5h5.901v1.5l-1.451.225-5.1 9.423v4.229l1.924.331v1.487h-6.16V50.27l1.924-.331v-4.405l-5.004-9.247-1.44-.225v-1.5h5.9v1.5z"/></svg>