<svg
	xmlns="http://www.w3.org/2000/svg"
	viewBox="0 0 55.749 57"
	preserveAspectRatio="xMaxYMax"
	fill="#e04b4a"
>
	<path
		d="M38.102 0c-1.083 0-1.971.888-1.971 1.97 0 1.083.888 1.971 1.97 1.971s1.971-.888 1.971-1.97C40.072.888 39.184 0 38.102 0zM.647.006c-.677-.01-.677 1.01 0 1h3.17c.676.01.676-1.01 0-1H.646zm4.798 0c-.676-.01-.676 1.01 0 1h9.047c.676.01.676-1.01 0-1H5.445zm47.098.213a.502.502 0 0 0-.348.15l-1.99 2.05-.004.005-7.394 7.62a7.569 7.569 0 0 0-3.444-.807 7.581 7.581 0 0 0-5.437 2.359c-.014 0-.024-.01-.04-.01H19.208c-1.178-2.654-3.834-4.51-6.92-4.51a.5.5 0 0 0-.5.5v6.936l-3.5 5.99a.5.5 0 0 0 .18.686 7.546 7.546 0 0 0 3.252.99V32.67c0 .638.528 1.166 1.166 1.166h13.598v6.797l-.899 1.556-10.393 6c-.362-.164-.732-.327-1.132-.328-1.548 0-2.813 1.265-2.813 2.813s1.265 2.812 2.813 2.812c1.504 0 2.697-1.213 2.765-2.7l9.659-5.579v6.717c-.76.519-1.281 1.328-1.282 2.263A2.82 2.82 0 0 0 28.014 57a2.82 2.82 0 0 0 2.812-2.813c-.001-.933-.523-1.741-1.281-2.26v-6.72l9.531 5.504c-.001.03-.007.061-.008.092 0 1.547 1.266 2.812 2.813 2.812s2.812-1.265 2.812-2.812-1.265-2.813-2.812-2.813h-.002c-.338.001-.655.12-.969.239l-10.469-6.043-.896-1.557v-6.793h13.508c.638 0 1.166-.528 1.166-1.166v-9.95s-.002 0-.002-.01a7.574 7.574 0 0 0 2.814-5.948 7.537 7.537 0 0 0-.836-3.373l7.434-7.653L55.607 3.7a.5.5 0 0 0-.007-.705L52.904.352a.5.5 0 0 0-.361-.143v.01zM38.102 1c.542 0 .97.429.97.97s-.428.972-.97.972-.971-.429-.971-.971.428-.97.97-.97zm-15.721.404a.5.5 0 0 0-.35.858l1.813 1.812c.471.491 1.198-.235.707-.707l-1.813-1.812a.5.5 0 0 0-.357-.15zm6.049 0a.502.502 0 0 0-.344.15l-1.812 1.813c-.491.472.235 1.198.707.707l1.812-1.812a.5.5 0 0 0-.363-.858zm24.133.024l1.982 1.941L53.543 4.4l-1.98-1.941 1-1.031zm-47.957.578c-.677-.01-.677 1.01 0 1h6.156c.676.01.676-1.01 0-1H4.606zm7.755 0c-.676-.01-.676 1.01 0 1h2.565c.676.01.676-1.01 0-1H12.36zm38.504 1.168l.635.621-9.998 10.291.717.697 9.994-10.287.633.621-9.947 10.24-2.72.811.747-2.75 9.94-10.244zM24.188 5.646a.502.502 0 0 0-.344.15L22.03 7.61c-.49.472.236 1.198.707.707l1.813-1.812a.5.5 0 0 0-.363-.858zm2.435 0a.5.5 0 0 0-.35.858l1.813 1.812c.471.49 1.197-.235.707-.707l-1.812-1.812a.5.5 0 0 0-.358-.15zM9.871 7.49a.486.486 0 0 0-.13.031 7.577 7.577 0 0 0-5.026 7.131 7.55 7.55 0 0 0 1.84 4.947c.436.506 1.194-.149.758-.654a6.571 6.571 0 0 1 2.764-10.482c.567-.187.389-1.031-.206-.973zm2.916.694c3.222.254 5.803 2.75 6.047 5.968h-6.047V8.184zm26.584 2.052a6.54 6.54 0 0 1 2.703.563l-2.047 2.107-.32 1.18c-.087-.01-.174-.02-.264-.02h-.048c-.666.033-.618 1.03.046 1l-.697 2.572 2.447-.73a1.76 1.76 0 0 1-1.78 1.691 1.762 1.762 0 0 1-1.757-1.781c.014-.673-1-.685-1-.012a2.777 2.777 0 0 0 2.748 2.79 2.777 2.777 0 0 0 2.795-2.743c.001-.082-.007-.162-.013-.242l1.25-.373 2.023-2.083c.358.803.567 1.685.574 2.622a6.592 6.592 0 0 1-6.55 6.648c-.675 0-.667 1.013.007 1a7.56 7.56 0 0 0 3.73-1.02v9.268c0 .101-.064.166-.165.166H12.885c-.101 0-.166-.065-.166-.166V22.198c3.974-.225 7.138-3.518 7.138-7.548 0-.715-.105-1.405-.29-2.06H33.12a7.548 7.548 0 0 0-1.3 4.304c0 .673 1.013.661 1-.012a6.592 6.592 0 0 1 6.55-6.649v.003zm.012 1.455c-2.839.023-5.133 2.35-5.11 5.186.011 1.295.519 2.46 1.32 3.36l-3.452 4.577a2.232 2.232 0 0 0-1.047-.267 2.26 2.26 0 0 0-1.62.685l-4.431-3.27c.2-.337.322-.725.322-1.144a2.28 2.28 0 0 0-2.271-2.271 2.28 2.28 0 0 0-2.272 2.271c0 .547.204 1.043.53 1.436l-3.537 4.42a2.24 2.24 0 0 0-.721-.127 2.28 2.28 0 0 0-2.272 2.271c0 1.249 1.023 2.272 2.272 2.272s2.271-1.023 2.271-2.272c0-.633-.265-1.208-.687-1.62l3.46-4.329c.293.137.614.22.956.22.474 0 .915-.15 1.281-.402l4.58 3.399c-.08.23-.133.475-.133.732a2.28 2.28 0 0 0 2.272 2.272 2.28 2.28 0 0 0 2.271-2.272c0-.508-.175-.975-.46-1.355l3.425-4.547a5.104 5.104 0 0 0 3.137 1.062 5.157 5.157 0 0 0 5.11-5.187c0-.673-1.014-.664-1 .01a4.14 4.14 0 0 1-4.118 4.178 4.14 4.14 0 0 1-4.185-4.11 4.14 4.14 0 0 1 4.117-4.177c.674 0 .666-1.014-.008-1zm12.89.461a.497.497 0 0 0-.492.506v5.063c-.01.676 1.01.676 1 0v-5.063a.5.5 0 0 0-.507-.506zm2 0a.497.497 0 0 0-.492.506v1.746c-.01.676 1.01.676 1 0v-1.746a.5.5 0 0 0-.507-.506zm-41.699 3h6.258a6.558 6.558 0 0 1-6.545 6.07c-1.028 0-1.95-.34-2.814-.76l3.101-5.31zm41.7.243a.497.497 0 0 0-.493.505v5.065c-.01.676 1.01.676 1 0V15.9a.5.5 0 0 0-.507-.505zm-53.782.832a.497.497 0 0 0-.492.505v5.063c-.01.676 1.01.676 1 0v-5.063a.5.5 0 0 0-.508-.505zm51.782 2.484a.497.497 0 0 0-.493.508v1.746c-.01.676 1.01.676 1 0v-1.746a.5.5 0 0 0-.507-.508zm-29.18.836c.708 0 1.271.563 1.271 1.271s-.563 1.272-1.271 1.272a1.264 1.264 0 0 1-1.272-1.272c0-.708.564-1.271 1.272-1.271zM.492 22.785a.497.497 0 0 0-.492.508v1.746c-.01.676 1.01.676 1 0v-1.746a.5.5 0 0 0-.508-.508zm30.602 2.762c.708 0 1.271.563 1.271 1.271s-.563 1.272-1.271 1.272-1.272-.564-1.272-1.272c0-.708.564-1.271 1.272-1.271zm20.67.726c-1.083 0-1.971.888-1.971 1.971s.888 1.973 1.97 1.973 1.971-.89 1.971-1.973-.888-1.97-1.97-1.97zm0 1c.542 0 .97.429.97.971s-.428.973-.97.973-.971-.43-.971-.973.429-.97.97-.97zm-34.67.274c.708 0 1.271.563 1.271 1.271s-.563 1.272-1.271 1.272a1.264 1.264 0 0 1-1.272-1.272c0-.708.564-1.271 1.272-1.271zM3.293 33.33A1.98 1.98 0 0 0 1.32 35.3c0 1.083.89 1.971 1.973 1.971s1.97-.888 1.97-1.97-.887-1.971-1.97-1.971zm24.19.512h1.062v6.928a.5.5 0 0 0 .066.25l1.032 1.787c.044.076.107.14.183.183l10.74 6.201a.5.5 0 0 0 .48.01c.26-.134.545-.204.835-.205 1.007 0 1.812.806 1.812 1.813s-.805 1.812-1.812 1.812a1.805 1.805 0 0 1-1.787-2.1.5.5 0 0 0-.242-.517l-10.557-6.096a.5.5 0 0 0-.75.434v7.781a.5.5 0 0 0 .275.447 1.811 1.811 0 0 1-.806 3.432 1.805 1.805 0 0 1-1.813-1.813 1.81 1.81 0 0 1 1.004-1.62.5.5 0 0 0 .277-.448v-7.78a.5.5 0 0 0-.75-.433l-10.62 6.135a.5.5 0 0 0-.249.48 1.805 1.805 0 0 1-1.805 1.965 1.805 1.805 0 0 1-1.812-1.812 1.805 1.805 0 0 1 2.77-1.535.5.5 0 0 0 .515.01l10.67-6.16a.498.498 0 0 0 .182-.184l1.031-1.787a.5.5 0 0 0 .068-.25v-6.928zm-24.19.488c.542 0 .97.428.97.97 0 .543-.428.971-.97.971s-.973-.428-.973-.97c0-.543.43-.971.973-.971zm6.383 1.906a.5.5 0 0 0-.35.86l1.813 1.812c.471.488 1.195-.236.707-.707l-1.813-1.813a.5.5 0 0 0-.357-.152zm6.049 0a.484.484 0 0 0-.344.153L13.568 38.2c-.488.471.236 1.195.707.707l1.813-1.812a.5.5 0 0 0-.363-.86zm22.38 2.66c-.676-.01-.676 1.01 0 1h3.17c.677.01.677-1.01 0-1h-3.17zm4.8 0c-.677-.01-.677 1.01 0 1h9.046c.676.01.676-1.01 0-1h-9.047zM11.481 40.48a.487.487 0 0 0-.343.15l-1.813 1.813c-.488.472.236 1.196.707.707l1.813-1.812a.5.5 0 0 0-.364-.858zm2.436 0a.5.5 0 0 0-.35.858l1.813 1.812c.471.489 1.195-.235.707-.707l-1.813-1.812a.5.5 0 0 0-.357-.15zm28.147.416c-.677-.01-.677 1.01 0 1h6.156c.676.01.676-1.01 0-1h-6.156zm7.757 0c-.676-.01-.676 1.01 0 1h2.563c.676.01.676-1.01 0-1h-2.563zM1.024 46.101a.497.497 0 0 0-.493.506v5.065c-.01.676 1.01.676 1 0v-5.065a.5.5 0 0 0-.507-.506zm2 0a.497.497 0 0 0-.493.506v1.746c-.01.676 1.01.676 1 0v-1.746a.5.5 0 0 0-.507-.506zm45.923.498a.5.5 0 0 0-.347.86l1.812 1.812c.472.489 1.196-.235.707-.707l-1.812-1.812a.501.501 0 0 0-.36-.153zm6.051 0a.484.484 0 0 0-.344.153l-1.812 1.812c-.489.472.236 1.196.707.707l1.812-1.812a.5.5 0 0 0-.363-.86zM3.024 49.344a.497.497 0 0 0-.493.507v5.063c-.01.676 1.01.676 1 0V49.85a.5.5 0 0 0-.507-.507zm50.166 1.498a.5.5 0 0 0-.348.859l1.812 1.813c.472.491 1.2-.236.707-.707l-1.812-1.813a.501.501 0 0 0-.36-.152zm-2.434 0a.487.487 0 0 0-.344.15L48.6 52.805c-.492.47.235 1.198.707.707l1.812-1.813a.5.5 0 0 0-.363-.857zM1.024 52.658a.497.497 0 0 0-.493.508v1.746c-.01.676 1.01.676 1 0v-1.746a.5.5 0 0 0-.507-.508z"/>
</svg>
