<svg
	xmlns="http://www.w3.org/2000/svg"
	viewBox="0 0 128 128"
	fill="#6a97a7"
>
	<path d="M110 128a2 2 0 0 0 0-4H18a2 2 0 0 0 0 4h92zM66 88.833V79a2 2 0 0 0-4 0v9.833a2 2 0 0 0 4 0z"/>
	<path
		d="M120 44H88.628c.538 1.302.99 2.638 1.353 4H120a4 4 0 0 1 4 4v60a4 4 0 0 1-4 4h-14.72c5.53-5.394 5.64-14.25.246-19.78a13.987 13.987 0 0 0-16.255-2.75 14.038 14.038 0 0 0-11.204-11.232 14.283 14.283 0 0 0 1.491 4.63A10.008 10.008 0 0 1 85.5 96c0 .318-.02.631-.048.942a2 2 0 0 0 3.337 1.663c4.087-3.71 10.407-3.403 14.117.684 3.71 4.087 3.404 10.407-.683 14.117A9.994 9.994 0 0 1 95.5 116h-61c-5.523.01-10.009-4.458-10.02-9.98S28.939 96.01 34.462 96a10 10 0 0 1 5.052 1.358 2 2 0 0 0 3.005-1.667 9.941 9.941 0 0 1 5.928-8.835 14.383 14.383 0 0 0 1.486-4.62 13.899 13.899 0 0 0-11.036 10.478c-7.331-2.435-15.248 1.534-17.683 8.864A13.986 13.986 0 0 0 24.721 116H8a4 4 0 0 1-4-4V52a4 4 0 0 1 4-4h30.02a32.127 32.127 0 0 1 1.352-4H8a8.009 8.009 0 0 0-8 8v60a8.01 8.01 0 0 0 8 8h112a8.009 8.009 0 0 0 8-8V52a8.009 8.009 0 0 0-8-8zM56 35.14a8 8 0 1 0 8-8 8.01 8.01 0 0 0-8 8zm12 0a4 4 0 1 1-8 0 4 4 0 0 1 8 0z"/>
	<path
		d="M67 50h-6a2 2 0 0 0 0 4h6a2 2 0 0 0 0-4zM31 15v12a2 2 0 1 0 4 0V15a2 2 0 0 0-4 0zM25 13a2 2 0 0 0-2 2v19a2 2 0 0 0 4 0V15a2 2 0 0 0-2-2zM97 27V15a2 2 0 0 0-4 0v12a2 2 0 0 0 4 0zM105 34V15a2 2 0 0 0-4 0v19a2 2 0 0 0 4 0zM48 100a2 2 0 0 0 2-2 2 2 0 0 1 4 0 2 2 0 0 0 4 0 6.007 6.007 0 0 0-4.117-5.693 21.778 21.778 0 0 0 4.11-12.416 2 2 0 0 0-3.994.218c.003.062.273 6.303-5.47 12.536a1.976 1.976 0 0 0-.448.822A5.983 5.983 0 0 0 46 98a2 2 0 0 0 2 2zM74 98a2 2 0 0 1 4 0 2 2 0 0 0 4 0c0-1.742-.76-3.397-2.081-4.533a1.976 1.976 0 0 0-.448-.822c-5.665-6.148-5.481-12.262-5.469-12.545a2 2 0 1 0-3.995-.209 21.778 21.778 0 0 0 4.11 12.416A6.007 6.007 0 0 0 70 98a2 2 0 0 0 4 0zM30.222 109.086a2 2 0 0 0 2.828 2.828 7.01 7.01 0 0 1 9.9 0 2 2 0 0 0 2.828-2.828c-4.298-4.29-11.258-4.29-15.556 0zM87.05 111.914a7.01 7.01 0 0 1 9.9 0 2 2 0 0 0 2.828-2.828c-4.298-4.29-11.258-4.29-15.556 0a2 2 0 1 0 2.828 2.828zM59.254 105.558a8.03 8.03 0 0 1 9.492 0 2 2 0 1 0 2.508-3.116 11.944 11.944 0 0 0-14.508 0 2 2 0 1 0 2.508 3.116z"/>
	<path
		d="M81.387 69h.002a2 2 0 0 0 1.673-.908c8.595-13.194.777-25.544-2.066-29.29A50.219 50.219 0 0 0 64.168.072a.233.233 0 0 0-.336 0 50.22 50.22 0 0 0-16.828 38.73c-2.843 3.746-10.66 16.096-2.066 29.29A2 2 0 0 0 46.61 69h.002a2 2 0 0 0 1.674-.904l3.6-5.5c.432 1.121.892 2.254 1.39 3.404H56v6a2 2 0 0 0 2 2h12a2 2 0 0 0 2-2v-6h2.723c.498-1.15.958-2.283 1.39-3.403l3.6 5.499a2 2 0 0 0 1.674.904zM46.75 63.14c-3.233-6.992-1.43-13.41.717-17.647a69.405 69.405 0 0 0 2.751 12.35l-3.468 5.296zM68 70h-8v-4h8v4zm4.054-8H55.946C43.558 30.838 57.775 11.786 64 5.38c6.225 6.406 20.442 25.458 8.054 56.62zm8.468-16.43c2.116 4.253 3.89 10.66.724 17.564l-3.465-5.292c1.283-3.999 2.2-8.107 2.74-12.272z"/>
</svg>
