<svg
	xmlns="http://www.w3.org/2000/svg"
	viewBox="0 0 82.65 97"
	fill="#5094aa"
>
	<path
		d="M82.65 31.68C82.633 14.202 68.478.033 51 0H31.68C14.19.017.017 14.19 0 31.68V80.5h10.49L8.81 96.64h27.12l5.38-13.56L46.76 97h27.13l-1.72-16.5h10.48V31.68zm-41.32 9l-3.68-10.92 1.14-17.43h5.08L45 29.76l-3.67 10.92zm-1.58 4.7l-1.09 3.23-15.5-23.24 6.77-6.77-7.52-6 3.84-7.3 13.5 40.08zm1.58 7.23l-.57-.85L56.4 5.3l3.83 7.28-7.52 6 6.77 6.77-18.15 27.26zM51 3a28.85 28.85 0 0 1 3 .16l-6.48 19.12-.65-9.95h1.94L47.38 3H51zm-6.66 0l1 6.33h-8l1-6.33h6zm-9.07 0l-1.43 9.33h1.94l-.65 9.95-6.44-19.12a28.83 28.83 0 0 1 3-.16h3.58zm-1.38 90.64H12.13l3.43-33L12 31.1l-3 .36 3.57 29.25L10.8 77.5H3V31.68A28.72 28.72 0 0 1 23.43 4.22l-4.82 9.16 6.83 5.47L19.3 25l20.52 30.77v22.94l-5.93 14.93zM79.65 77.5h-7.79l-1.71-16.43 3.57-29.25-3-.36L67.13 61l3.43 33H48.81l-6-15.29V55.77L63.35 25l-6.15-6.15 6.8-5.47-4.78-9.16a28.72 28.72 0 0 1 20.43 27.46V77.5z"/>
</svg>
