<svg
	xmlns="http://www.w3.org/2000/svg"
	viewBox="0 0 57.911 58.999"
	preserveAspectRatio="xMaxYMax"
	fill="#e04b4a"
>
	<path
		d="M6.46 0a.5.5 0 0 0-.462.37l-.445 1.666a4.983 4.983 0 0 0-.145.02L4.545.56a.5.5 0 0 0-.682-.182l-1.662.96a.5.5 0 0 0-.184.682l.862 1.493c-.03.038-.06.076-.088.115l-1.664-.447a.5.5 0 0 0-.613.353L.016 5.39a.5.5 0 0 0 .353.613l1.667.448c.006.047.012.095.02.142l-1.495.862a.5.5 0 0 0-.184.682v.001l.96 1.662a.5.5 0 0 0 .683.182l1.494-.861.114.086-.446 1.668a.5.5 0 0 0 .354.61l1.853.499a.5.5 0 0 0 .612-.354l.445-1.666c.048-.01.096-.013.145-.02l.863 1.493a.5.5 0 0 0 .682.182l1.662-.959a.5.5 0 0 0 .184-.683L9.12 8.483c.03-.038.06-.076.088-.115l1.664.447a.5.5 0 0 0 .613-.352v-.001l.496-1.854a.5.5 0 0 0-.352-.613h-.001L9.963 5.55c-.006-.049-.01-.097-.018-.145l1.492-.86a.5.5 0 0 0 .184-.682L10.66 2.2a.5.5 0 0 0-.683-.182l-1.494.862a3.881 3.881 0 0 0-.113-.086l.445-1.668a.5.5 0 0 0-.352-.613h-.001L6.609.016a.499.499 0 0 0-.148-.015zm42.688.004a5.661 5.661 0 0 0-1.771.211c-1.402.397-2.57 1.353-3.365 2.61-.703-.126-1.423-.174-2.114.021h-.002c-2.044.582-3.424 2.463-3.586 4.625-.462-.043-.928-.102-1.379.026h-.002c-2.119.6-3.354 2.88-2.796 5.08.465 1.828 2.073 3.03 3.857 3.021.013.067.019.135.035.201.559 2.2 2.743 3.543 4.863 2.944h.002c.175-.05.34-.13.506-.205 1.412 1.23 3.283 1.76 5.076 1.255 1.89-.534 3.288-2.091 3.87-4.02.517.014 1.036 0 1.537-.138h.002c2.91-.824 4.615-3.964 3.845-7-.415-1.63-1.534-2.93-2.99-3.646-.022-.118-.043-.236-.072-.352v-.002c-.669-2.634-2.9-4.525-5.514-4.63h-.002zm-.039.998c2.156.087 4.017 1.647 4.584 3.88.038.15.07.301.094.454l.045.276.256.107c1.305.544 2.3 1.714 2.67 3.164.642 2.536-.783 5.122-3.149 5.791a4.205 4.205 0 0 1-1.521.137l-.436-.04-.098.425c-.41 1.781-1.702 3.17-3.355 3.637-1.57.441-3.24 0-4.428-1.194l-.261-.262-.329.176c-.18.097-.37.175-.564.23-1.574.446-3.188-.525-3.621-2.224a3.352 3.352 0 0 1-.082-.478l-.05-.518-.517.07c-1.465.204-2.853-.761-3.246-2.305-.43-1.7.527-3.425 2.102-3.87.465-.132.95-.142 1.418-.028l.629.152-.01-.646c-.031-1.94 1.187-3.635 2.93-4.131v.002a3.72 3.72 0 0 1 1.95-.022l.374.1.187-.336c.664-1.175 1.73-2.02 2.967-2.371h.002a4.663 4.663 0 0 1 1.46-.176zm-42.275.11l.887.238-.403 1.502a.5.5 0 0 0 .229.56c.201.12.388.262.556.424a.5.5 0 0 0 .598.075l1.344-.778.459.795-1.346.778a.5.5 0 0 0-.234.556c.057.227.088.46.091.694a.5.5 0 0 0 .372.476l1.5.4-.239.89-1.502-.403a.5.5 0 0 0-.558.226c-.12.202-.264.389-.426.557a.5.5 0 0 0-.072.598l.775 1.346-.795.459-.777-1.348a.5.5 0 0 0-.559-.235c-.226.058-.46.09-.693.094a.5.5 0 0 0-.473.37l-.402 1.502-.889-.239.404-1.504a.5.5 0 0 0-.228-.558 3.017 3.017 0 0 1-.557-.424.5.5 0 0 0-.597-.074l-1.344.777-.46-.797 1.349-.777a.5.5 0 0 0 .234-.557 3.02 3.02 0 0 1-.094-.693.5.5 0 0 0-.37-.475l-1.5-.402.235-.887 1.504.402a.5.5 0 0 0 .559-.226c.12-.201.263-.388.426-.557A.5.5 0 0 0 3.91 3.3l-.775-1.346.794-.46.778 1.349a.5.5 0 0 0 .558.234c.227-.058.46-.09.694-.094a.5.5 0 0 0 .472-.37l.403-1.5v-.001zm40.281 2.387a4.392 4.392 0 0 0-4.385 4.384v.002c.001 1.498.827 2.822 2.073 3.623v1.49H44.5a.5.5 0 0 0-.5.5v2a.5.5 0 0 0 .5.5h1v.5a.499.499 0 1 0 1 0v-.5h1v.5a.499.499 0 1 0 1 0v-.5h1a.5.5 0 0 0 .5-.5v-2a.5.5 0 0 0-.5-.5h-.072v-1.49c1.245-.8 2.07-2.125 2.072-3.623v-.002A4.392 4.392 0 0 0 47.115 3.5zm-40.953.503A2.05 2.05 0 0 0 4.068 5.51a2.05 2.05 0 0 0 1.444 2.5 2.05 2.05 0 0 0 2.5-1.443 2.047 2.047 0 0 0-1.85-2.565zm40.953.497A3.377 3.377 0 0 1 50.5 7.883a3.383 3.383 0 0 1-1.805 2.993.5.5 0 0 0-.267.441v1.682H47.5v-3h.361a.5.5 0 1 0 0-1H46.138a.5.5 0 1 0 0 1h.362v3h-.697v-1.682a.5.5 0 0 0-.268-.441 3.383 3.383 0 0 1-1.805-2.993A3.377 3.377 0 0 1 47.115 4.5zm-41.22.507c.133-.018.273-.01.413.028.561.15.889.712.739 1.273s-.715.887-1.276.736-.886-.714-.736-1.275a1.03 1.03 0 0 1 .86-.762zm4.904 5.793a.5.5 0 0 0-.5.5v2.883c-.19.068-.375.146-.557.233l-2.04-2.04a.5.5 0 0 0-.706 0l-2.121 2.122a.5.5 0 0 0 0 .707l2.037 2.037a5.984 5.984 0 0 0-.229.558H3.8a.5.5 0 0 0-.5.5v3a.5.5 0 0 0 .5.5H6.68c.069.19.146.375.233.557l-2.04 2.04a.5.5 0 0 0 0 .706l2.122 2.121a.5.5 0 0 0 .707 0l2.037-2.037c.182.086.369.161.559.229v2.884a.5.5 0 0 0 .5.5h3a.5.5 0 0 0 .5-.5v-2.88c.19-.069.374-.148.556-.235l2.04 2.04a.5.5 0 0 0 .706 0l2.121-2.122a.5.5 0 0 0 0-.707l-2.037-2.037c.086-.182.164-.368.23-.559H20.8a.5.5 0 0 0 .5-.5v-3a.5.5 0 0 0-.5-.5h-2.881a5.972 5.972 0 0 0-.233-.558l2.037-2.037a.5.5 0 0 0 0-.707l-2.12-2.121a.5.5 0 0 0-.708 0l-2.037 2.037a5.993 5.993 0 0 0-.558-.23v-2.884a.5.5 0 0 0-.5-.5h-3zm.5 1h2v2.715a.5.5 0 0 0 .365.48c.373.105.733.254 1.072.442a.5.5 0 0 0 .596-.084l1.916-1.916 1.414 1.414-1.918 1.918a.5.5 0 0 0-.082.598c.19.338.339.697.445 1.07a.5.5 0 0 0 .48.363H20.3v2h-2.715a.5.5 0 0 0-.48.366 5.002 5.002 0 0 1-.442 1.072.5.5 0 0 0 .084.596l1.916 1.916-1.414 1.414-1.92-1.92a.5.5 0 0 0-.598-.082 5.01 5.01 0 0 1-1.07.447.5.5 0 0 0-.361.48V27.8h-2v-2.715a.5.5 0 0 0-.366-.483 4.994 4.994 0 0 1-1.072-.44.5.5 0 0 0-.596.085L7.35 26.163l-1.414-1.414 1.92-1.92a.5.5 0 0 0 .082-.6 4.996 4.996 0 0 1-.447-1.068.5.5 0 0 0-.48-.361H4.299v-2h2.714a.5.5 0 0 0 .483-.366c.105-.373.251-.733.44-1.072a.5.5 0 0 0-.085-.596L5.935 14.85l1.414-1.414 1.92 1.92a.5.5 0 0 0 .6.082c.338-.19.696-.34 1.068-.447a.5.5 0 0 0 .362-.48v-2.712zm33.7 2.2h4v1h-4v-1zm-9.886 1.507a2.256 2.256 0 0 0-2.037 2.826 2.254 2.254 0 0 0 2.752 1.59 2.258 2.258 0 0 0 1.592-2.754 2.259 2.259 0 0 0-2.307-1.662zm.063.998a1.24 1.24 0 0 1 1.279.924 1.24 1.24 0 0 1-.885 1.528 1.24 1.24 0 0 1-1.53-.881 1.241 1.241 0 0 1 1.136-1.57zm-22.877.295c-1.651 0-3 1.35-3 3s1.349 3 3 3 3-1.349 3-3-1.35-3-3-3zm0 1c1.11 0 2 .89 2 2s-.89 2-2 2-2-.89-2-2 .89-2 2-2zm19.267 1.871c-.11.01-.221.023-.332.053a1.674 1.674 0 0 0-1.178 2.041 1.672 1.672 0 0 0 2.04 1.178 1.674 1.674 0 0 0 1.18-2.039 1.677 1.677 0 0 0-1.71-1.232zm.194 1.002a.656.656 0 0 1 .548.489.66.66 0 0 1-.47.816.66.66 0 0 1-.817-.47.66.66 0 0 1 .471-.817.7.7 0 0 1 .268-.018zM25.799 22.8c-3.916 0-7.1 3.185-7.1 7.1s3.184 7.1 7.1 7.1 7.1-3.185 7.1-7.1-3.185-7.1-7.1-7.1zm0 1c3.374 0 6.1 2.725 6.1 6.1 0 3.375-2.726 6.1-6.1 6.1s-6.1-2.725-6.1-6.1c0-3.375 2.725-6.1 6.1-6.1zm15.392 8.244c-.09 0-.183.01-.275.025-.737.14-1.246.813-1.246 1.565a.5.5 0 1 0 1 0c0-.306.198-.538.433-.582.235-.044.469.087.565.369.096.282-.02.596-.237.73-.234.145-.496.322-.712.59a1.7 1.7 0 0 0-.362.965.5.5 0 0 0-.01.102v.726a.5.5 0 1 0 1 0v-.693a.5.5 0 0 0 0-.033c0-.207.052-.316.15-.438s.26-.245.46-.369c.637-.394.9-1.189.658-1.9-.211-.623-.789-1.051-1.424-1.055v-.002zM4.564 36.87a1.503 1.503 0 0 0-1.195.744 1.507 1.507 0 0 0 .549 2.049 1.507 1.507 0 0 0 2.049-.55 1.507 1.507 0 0 0-.55-2.048 1.489 1.489 0 0 0-.853-.195zm36.276.607a.5.5 0 0 0-.493.508.5.5 0 1 0 1 0 .5.5 0 0 0-.507-.508zm-36.112.389c.065.01.129.029.19.064.244.14.324.44.183.683a.493.493 0 0 1-.683.182.491.491 0 0 1-.184-.682.493.493 0 0 1 .494-.248zm14.772.133a5.499 5.499 0 0 0-5.5 5.5v15.5h23v-15.5c0-3.039-2.462-5.5-5.5-5.5h-12zm0 1h12a4.48 4.48 0 0 1 4.5 4.5v14.5h-4v-12h-1v12H20v-12h-1v12h-4v-14.5a4.48 4.48 0 0 1 4.5-4.5zm-8.565.931a.5.5 0 0 0-.441.256l-.25.434-.434-.25a.5.5 0 1 0-.5.865l.434.25-.25.434a.5.5 0 1 0 .865.5l.25-.434.434.25a.5.5 0 1 0 .5-.865l-.434-.25.25-.434a.5.5 0 0 0-.424-.755zm40.4 4.037a1.639 1.639 0 0 0-.96.471.5.5 0 1 0 .707.707c.216-.216.52-.24.717-.105.197.134.27.395.138.662s-.435.406-.683.347c-.268-.062-.577-.122-.92-.086a1.7 1.7 0 0 0-.938.422.5.5 0 0 0-.08.068.515.515 0 0 0-.035.035l-.478.479a.5.5 0 1 0 .707.707l.482-.484a.51.51 0 0 0 .031-.03.61.61 0 0 1 .416-.203c.156-.017.356.012.584.064.73.172 1.478-.207 1.81-.88.333-.675.15-1.508-.47-1.93a1.497 1.497 0 0 0-1.027-.246v.002zm-7.534 2.448a.5.5 0 0 0-.348.146l-1.498 1.498c-.08-.129-.093-.293-.201-.402h-.002a2.056 2.056 0 0 0-2.897 0 2.056 2.056 0 0 0 0 2.896h.002c.11.11.275.12.405.201l-1.5 1.5a.5.5 0 0 0 0 .707l5.69 5.694a.5.5 0 0 0 .71 0l5.691-5.694a.5.5 0 0 0 0-.707l-1.97-1.97a.5.5 0 0 0-.85.283 1.048 1.048 0 0 1-1.777.594 1.047 1.047 0 1 1 .594-1.777.5.5 0 0 0 .283-.85l-1.971-1.971a.5.5 0 0 0-.361-.146v-.002zm-40.346.04a.5.5 0 0 0-.348.86l.707.707a.5.5 0 1 0 .707-.709l-.707-.707a.5.5 0 0 0-.36-.15zm2.83 0a.5.5 0 0 0-.344.151l-.707.709a.5.5 0 1 0 .707.707l.707-.709a.5.5 0 0 0-.363-.857zm37.523 1.167l1.145 1.144c-.13.081-.295.092-.404.201a2.056 2.056 0 0 0 0 2.897c.795.795 2.1.795 2.896 0 .11-.11.12-.276.201-.406l1.147 1.146-4.985 4.984-4.986-4.984 1.617-1.617a.5.5 0 0 0-.283-.85 1.048 1.048 0 1 1 .889-1.777c.16.16.263.369.295.594a.5.5 0 0 0 .85.283l1.618-1.616zm4.27.228a.5.5 0 1 0 .05 1 .5.5 0 1 0 0-1h-.05zm-43.92.733a.5.5 0 0 0-.344.15l-.707.707a.5.5 0 1 0 .707.707l.707-.707a.5.5 0 0 0-.363-.857zm1.424 0a.5.5 0 0 0-.348.857l.707.707a.5.5 0 1 0 .707-.707l-.707-.707a.5.5 0 0 0-.36-.15zm4.703 5.709a.5.5 0 0 0-.492.507v.5h-.5a.5.5 0 1 0 0 1h.5v.5a.5.5 0 1 0 1 0v-.5h.5a.5.5 0 1 0 0-1h-.5v-.5a.5.5 0 0 0-.508-.507z"/>
</svg>
