<?xml version="1.0" encoding="utf-8"?>
<!-- Generator: Adobe Illustrator 21.1.0, SVG Export Plug-In . SVG Version: 6.00 Build 0)  -->
<svg version="1.1" id="Layer_1" xmlns="http://www.w3.org/2000/svg" xmlns:xlink="http://www.w3.org/1999/xlink" x="0px" y="0px"
	 viewBox="0 0 263.6146851 51.0488014" enable-background="new 0 0 263.6146851 51.0488014" xml:space="preserve">
<g id="horizontal_1_">
	<path id="fonem_3_" d="M62.657196,21.5956993h3.5508041V39.472599h6.0028915V16.2577991H62.657196V21.5956993z
		 M76.2665939,27.8623009c0,7.4306984,4.9736023,12.2733994,11.8711014,12.2733994
		c1.9921951,0,4.1806946-0.3017006,6.2699966-1.7246017v-6.6044979c-1.1972961,1.2305012-3.0868988,2.5244007-5.5067978,2.5244007
		c-3.7148972,0-5.9361038-2.7509022-5.9361038-6.2695007c0-3.8135014,2.3540039-6.6650009,5.9361038-6.6650009
		c2.4868011,0,4.3095016,1.3935013,5.5067978,2.7889996v-6.7353001c-1.9608994-1.3271999-4.3134995-1.857399-6.3690948-1.857399
		C81.7372971,15.5928001,76.2665939,20.1025009,76.2665939,27.8623009z M122.5630035,25.3085995h-3.4165115v-3.482399h10.6449966
		v-5.5684013h-17.1444855l-0.0009995,23.2147999h9.9169998c1.6893921,0,9.1190948,0.0645027,9.1190948-7.1972008
		C131.6820984,25.2772999,124.3207932,25.3085995,122.5630035,25.3085995z M121.9310913,34.8261986h-2.7845993v-4.8730984h2.7845993
		c2.0567017,0,3.2519989,0.5977001,3.2519989,2.4218998C125.1830902,34.2304993,123.9555893,34.8261986,121.9310913,34.8261986z
		 M141.2973938,30.1865005V16.2577991h-6.2657013V39.472599h6.3681946l8.9844055-13.9315987V39.472599h6.2695007V16.2577991
		h-6.3661957L141.2973938,30.1865005z M159.3090973,21.8262005h5.1044922V39.472599h6.5009003V21.8262005h5.1065063v-5.5684013
		h-16.7118988V21.8262005z M188.4555969,16.2577991h-9.781311V39.472599h6.5039063v-7.6659985h3.2774048
		c6.5692902,0,8.4598999-4.5722008,8.4598999-7.7890015C196.9154968,20.8320007,195.0580902,16.2577991,188.4555969,16.2577991z
		 M187.0316925,26.7012005h-1.8535004V21.3652h1.8535004c2.7861938,0,3.1826935,1.4902992,3.1826935,2.6523991
		C190.214386,25.0116997,189.9164886,26.7012005,187.0316925,26.7012005z M205.866684,30.1865005V16.2577991h-6.2675934V39.472599
		h6.3672028l8.9882965-13.9315987V39.472599h6.2675934V16.2577991h-6.3681793L205.866684,30.1865005z M246.1869965,16.2577991
		h-7.6278992l-6.9990082,9.7480011v-9.7480011h-6.4990845l0.0019989,23.2147999h6.4970856v-9.9852982l6.7294006,9.9852982h8.1309052
		l-9.0557098-11.9735985L246.1869965,16.2577991z M258.1059875,21.3964996c2.4912109,0,4.3143921,1.3935013,5.5086975,2.7889996
		v-6.7353001c-1.9570007-1.3271999-4.3164063-1.857399-6.3670959-1.857399c-6.2998047,0-11.7725067,4.5097008-11.7725067,12.2695007
		c0,7.4306984,4.9746094,12.2733994,11.871109,12.2733994c1.9902039,0,4.1777039-0.3017006,6.2684937-1.7246017v-6.6044979
		c-1.1943054,1.2305012-3.0820007,2.5244007-5.5086975,2.5244007c-3.7128906,0-5.9346008-2.7509022-5.9346008-6.2695007
		C252.1713867,24.2479992,254.5258942,21.3964996,258.1059875,21.3964996z M103.4682922,24.1854992
		c-2.097702,0-3.800293,1.700201-3.800293,3.7969017c0,2.1015987,1.7025909,3.8007984,3.800293,3.8007984
		c2.1000977,0,3.8003006-1.6991997,3.8003006-3.8007984C107.2685928,25.8857002,105.5683899,24.1854992,103.4682922,24.1854992z"/>
	<path id="graph_3_" fill="#D70929" d="M25.5228958,0c-1.9018002,0-3.7504005,0.2148-5.5321999,0.6094v24.9335995
		c0,3.0546017,2.4911995,5.5468006,5.5468998,5.5468006c3.0546989,0,5.544899-2.4921989,5.544899-5.544899
		c0-2.9346008-2.2933998-5.3447018-5.1758003-5.5361004v-4.4395008c5.3271999,0.1914005,9.613802,4.5995998,9.613802,9.9756012
		c0,5.4960995-4.4844017,9.9824009-9.9829006,9.9824009c-5.5004997,0-9.9844007-4.4863014-9.9844007-9.9843025V2.0215001
		C14.9227953,2.289,14.3075953,2.5859001,13.7040958,2.9043v22.6386986
		c0.0004997,6.5156021,5.3169041,11.8300018,11.8334999,11.8300018s11.8314991-5.3143997,11.8314991-11.8281002
		c0-6.3945007-5.1137009-11.6289005-11.4624004-11.8281012v-4.4375c8.7911015,0.1992006,15.8980007,7.427701,15.8980007,16.2656021
		c0,8.9608974-7.3076019,16.2665997-16.2670994,16.2665997c-8.961401,0-16.2709999-7.3057022-16.2709999-16.2685013V5.8476
		C3.6078956,10.5283003,0,17.6035004,0,25.5233994c0,14.0956993,11.4271955,25.5254021,25.5238953,25.5254021
		c14.0991058,0,25.5234985-11.4297028,25.5234985-25.5254021S39.6230011,0,25.5228958,0z"/>
</g>
</svg>
