<?xml version="1.0" encoding="utf-8"?>
<!-- Generator: Adobe Illustrator 21.1.0, SVG Export Plug-In . SVG Version: 6.00 Build 0)  -->
<svg version="1.1" id="Layer_1" xmlns="http://www.w3.org/2000/svg" xmlns:xlink="http://www.w3.org/1999/xlink" x="0px" y="0px"
	 viewBox="0 0 2452.2888184 2122.5078125" enable-background="new 0 0 2452.2888184 2122.5078125" xml:space="preserve">
<g>
	<path fill="#F0543F" d="M1522.5566406,1667.9560547c-12.9680176,0-25.4035645-6.7052002-32.3831787-18.3380127
		l-285.534668-476.1722412l-533.4266968,145.0528564c-17.0189819,4.6448975-34.9555664-3.1375732-43.2377319-18.706543
		L4.4144483,126.7735977c-5.7958899-10.9077377-5.8900986-23.9659042-0.2498579-34.9555664
		c5.6402402-10.9937592,16.3063164-18.5263672,28.5493641-20.1770706L562.6016235,0.3371827
		c14.9423828-2.0070572,29.6512451,5.0667958,37.4091187,17.9979782l639.9768066,1067.2547607L1983.2786865,883.46698
		l-248.2442627-349.9120483c-7.2663574-10.2441406-8.9621582-23.4252014-4.5302734-35.1726379
		s14.4180908-20.525238,26.640625-23.408844l347.7780762-82.1377869
		c14.1884766-3.3587341,29.0244141,1.7653809,38.1420898,13.1400757l300.9440918,375.7416077
		c7.9462891,9.928772,10.362793,23.1958618,6.4226074,35.2914429
		c-3.9404297,12.0955811-13.7053223,21.3936157-25.9853516,24.7318726l-317.0332031,86.2133179l276.4006348,389.5985107
		c6.8647461,9.6748047,8.7817383,22.0079346,5.1855469,33.3048096c-3.6044922,11.296875-12.3044434,20.2467041-23.494873,24.166626
		l-830.4793701,290.8062744C1530.9207764,1667.2678223,1526.710083,1667.9560547,1522.5566406,1667.9560547z
		 M1280.3294678,1152.8631592l258.7751465,431.5460205l754.1209717-264.0672607l-263.4158936-371.2892456L1280.3294678,1152.8631592
		z M96.5424728,139.2337341l583.9471436,1098.503418l483.8114014-131.5646973L548.0402222,78.4772491L96.5424728,139.2337341z
		 M1829.0302734,535.5701904l231.8518066,326.7980957l288.213623-78.3776245l-250.0466309-312.1957397L1829.0302734,535.5701904z"/>
</g>
<g>
	<path fill="#6D6E6E" d="M540.5558472,1776.2484131h31.5598145v339.9473877h-31.5598145V1776.2484131z"/>
	<path fill="#6D6E6E" d="M882.0775146,1870.9277344v245.2680664h-31.1088867v-42.1584473
		c-13.2250366,16.0842285-28.0656128,28.1821289-44.5217896,36.2973633
		c-16.4561768,8.1154785-34.4527588,12.1730957-53.9897461,12.1730957c-34.7156982,0-64.359375-12.5861816-88.9308472-37.7626953
		c-24.5715332-25.1689453-36.8572998-55.7932129-36.8572998-91.8614502c0-35.3131104,12.3984375-65.5202637,37.1954346-90.621582
		c24.796936-25.0975342,54.628418-37.6462402,89.4944458-37.6462402c20.1381226,0,38.3601074,4.2830811,54.6660156,12.8492432
		c16.3058472,8.5662842,30.6204834,21.4155273,42.9437866,38.5479736v-45.0853271H882.0775146z M755.9512329,1895.0484619
		c-17.560791,0-33.7764893,4.3168945-48.6395874,12.9470215c-14.8631592,8.6337891-26.6830444,20.7580566-35.4596558,36.3687744
		c-8.7841187,15.6108398-13.1724243,32.1234131-13.1724243,49.5338135c0,17.2677002,4.4258423,33.7802734,13.2851563,49.5375977
		c8.8517456,15.7611084,20.7542725,28.0355225,35.6850586,36.81604
		c14.9382935,8.7839355,30.9586182,13.1723633,48.0759888,13.1723633c17.2601929,0,33.6262207-4.3544922,49.0904541-13.0598145
		c15.4567871-8.7089844,27.3518066-20.4912109,35.6851196-35.3505859
		c8.3257446-14.8594971,12.4961548-31.5974121,12.4961548-50.2138672c0-28.3699951-9.3477173-52.088623-28.0355835-71.1522217
		C806.2739868,1904.5839844,783.2729492,1895.0484619,755.9512329,1895.0484619z"/>
	<path fill="#6D6E6E" d="M941.1393433,1870.9277344h32.236084v35.8428955
		c9.6182251-14.1230469,19.7623901-24.6842041,30.4326172-31.6724854
		c10.670166-6.9882813,21.7911987-10.4822998,33.3632202-10.4822998c8.7164307,0,18.0340576,2.7839355,27.9528809,8.3406982
		l-16.4561768,26.6004639c-6.6125488-2.8516846-12.1730957-4.2832031-16.6815186-4.2832031
		c-10.5199585,0-20.6641846,4.3206787-30.4326782,12.9620361c-9.7684937,8.6451416-17.2075806,22.0581055-22.3172607,40.2387695
		c-3.9074097,13.9764404-5.861084,42.2336426-5.861084,84.760498v82.9606934h-32.236084V1870.9277344z"/>
	<path fill="#6D6E6E" d="M1336.3126221,1870.9277344v245.2680664h-31.1088867v-42.1584473
		c-13.2250977,16.0842285-28.0656738,28.1821289-44.5218506,36.2973633
		c-16.4561768,8.1154785-34.4527588,12.1730957-53.9897461,12.1730957c-34.7156982,0-64.3592529-12.5861816-88.9307861-37.7626953
		c-24.5715332-25.1689453-36.8572998-55.7932129-36.8572998-91.8614502c0-35.3131104,12.3984375-65.5202637,37.1954346-90.621582
		c24.796875-25.0975342,54.628418-37.6462402,89.4943848-37.6462402c20.1381836,0,38.3601074,4.2830811,54.6660156,12.8492432
		c16.3059082,8.5662842,30.6204834,21.4155273,42.9438477,38.5479736v-45.0853271H1336.3126221z M1210.1862793,1895.0484619
		c-17.5606689,0-33.7763672,4.3168945-48.6395264,12.9470215c-14.8631592,8.6337891-26.6831055,20.7580566-35.4597168,36.3687744
		c-8.7840576,15.6108398-13.1723633,32.1234131-13.1723633,49.5338135c0,17.2677002,4.4257813,33.7802734,13.2851563,49.5375977
		c8.8516846,15.7611084,20.7542725,28.0355225,35.6850586,36.81604
		c14.9382324,8.7839355,30.9586182,13.1723633,48.0760498,13.1723633c17.2601318,0,33.6260986-4.3544922,49.0904541-13.0598145
		c15.456665-8.7089844,27.3516846-20.4912109,35.6850586-35.3505859
		c8.3256836-14.8594971,12.4960938-31.5974121,12.4960938-50.2138672c0-28.3699951-9.3476563-52.088623-28.0355225-71.1522217
		S1237.5080566,1895.0484619,1210.1862793,1895.0484619z"/>
	<path fill="#6D6E6E" d="M1384.1031494,1870.9277344h33.588623l82.3258057,178.7861328l81.3339844-178.7861328h33.8140869
		l-112.2625732,245.2680664h-5.861084L1384.1031494,1870.9277344z"/>
	<path fill="#6D6E6E" d="M1869.6724854,2034.8131104l26.6004639,13.9764404
		c-8.7241211,17.1323242-18.8006592,30.9624023-30.2373047,41.4785156
		c-11.4290771,10.5236816-24.293457,18.5263672-38.5780029,24.0117188
		c-14.2995605,5.4853516-30.4702148,8.2280273-48.5194092,8.2280273c-40.0133057,0-71.2950439-13.1123047-93.8602295-39.3408203
		c-22.5651855-26.2246094-33.8441162-55.8681641-33.8441162-88.9307861c0-31.1088867,9.5506592-58.8364258,28.6517334-83.1824951
		c24.2183838-30.9586182,56.6347656-46.4378662,97.2491455-46.4378662c41.8167725,0,75.2099609,15.8587646,100.1796875,47.5650635
		c17.7486572,22.3961182,26.7731934,50.348999,27.0738525,83.8587646h-220.6928711
		c0.6010742,28.4864502,9.7008057,51.8405762,27.3066406,70.05896
		c17.605835,18.2182617,39.3520508,27.3254395,65.2310791,27.3254395c12.4886475,0,24.6315918-2.1716309,36.451416-6.5112305
		c11.8049316-4.3393555,21.8514404-10.1064453,30.1246338-17.2939453
		C1851.0898438,2062.4353027,1860.0393066,2050.8334961,1869.6724854,2034.8131104z M1869.6724854,1968.7629395
		c-4.2154541-16.8280029-10.3470459-30.2822266-18.3947754-40.3513184
		c-8.0552979-10.0653076-18.6954346-18.1806641-31.9354248-24.3461914
		c-13.2476807-6.1616211-27.1639404-9.2424316-41.7565918-9.2424316c-24.0755615,0-44.7697754,7.7434082-62.0675049,23.2189941
		c-12.6464844,11.2713623-22.1970215,28.1783447-28.6668701,50.7209473H1869.6724854z"/>
	<path fill="#6D6E6E" d="M1958.4907227,1776.2484131h31.5596924v339.9473877h-31.5596924V1776.2484131z"/>
</g>
</svg>
