<?xml version="1.0" encoding="utf-8"?>
<!-- Generator: Adobe Illustrator 21.1.0, SVG Export Plug-In . SVG Version: 6.00 Build 0)  -->
<svg version="1.1" id="Layer_1" xmlns="http://www.w3.org/2000/svg" xmlns:xlink="http://www.w3.org/1999/xlink" x="0px" y="0px"
	 viewBox="0 0 250.6340179 48.7247009" enable-background="new 0 0 250.6340179 48.7247009" xml:space="preserve">
<g>
	<linearGradient id="SVGID_1_" gradientUnits="userSpaceOnUse" x1="0" y1="25.4223995" x2="24.8437004" y2="25.4223995">
		<stop  offset="0" style="stop-color:#23BAED"/>
		<stop  offset="1" style="stop-color:#3CC6EE"/>
	</linearGradient>
	<path fill-rule="evenodd" clip-rule="evenodd" fill="url(#SVGID_1_)" d="M17.4598999,25.4004002
		c0-1.6953011-0.4062004-3.1268997-1.2187004-4.2840996c-0.9091997-1.3155003-2.1811991-1.9688015-3.8148994-1.9688015
		c-1.6338005,0-2.9057999,0.6533012-3.8155003,1.9688015c-0.8212996,1.1571999-1.2275,2.5887985-1.2275,4.2840996
		c0,1.6865997,0.4062004,3.1348,1.2275,4.3271999C9.5205002,31.0429993,10.7924995,31.6973,12.4263,31.6973
		c1.6337004,0,2.9056997-0.6543007,3.8148994-1.9696999C17.0536995,28.5352001,17.4598999,27.0869999,17.4598999,25.4004002z
		 M24.8437004,25.4004002c0,3.7441998-1.1132011,6.897501-3.3476009,9.450201
		c-2.3316002,2.6747971-5.360899,4.0175972-9.0697994,4.0175972c-3.7182999,0-6.7382998-1.3428001-9.0699005-4.0175972
		C1.1216,32.2979012,0,29.1445999,0,25.4004002c0-3.7539005,1.1216-6.9062004,3.3564-9.4502001
		c2.3579001-2.6493998,5.3871999-3.9736004,9.0699005-3.9736004c3.7089005,0,6.7381992,1.3242006,9.0697994,3.9736004
		C23.7304993,18.4941998,24.8437004,21.6464996,24.8437004,25.4004002z"/>
	<linearGradient id="SVGID_2_" gradientUnits="userSpaceOnUse" x1="26.6977005" y1="30.3506508" x2="51.5415001" y2="30.3506508">
		<stop  offset="0" style="stop-color:#23BAED"/>
		<stop  offset="1" style="stop-color:#3CC6EE"/>
	</linearGradient>
	<path fill-rule="evenodd" clip-rule="evenodd" fill="url(#SVGID_2_)" d="M44.1576996,25.4004002
		c0-1.6953011-0.4145012-3.1268997-1.2270012-4.2840996c-0.9101982-1.3155003-2.1816978-1.9688015-3.8154984-1.9688015
		s-2.9057007,0.6533012-3.8153992,1.9688015c-0.8125,1.1571999-1.2182999,2.5887985-1.2182999,4.2840996
		c0,1.6865997,0.4057999,3.1348,1.2182999,4.3271999C36.2094994,31.0429993,37.4813995,31.6973,39.1152,31.6973
		s2.9053001-0.6543007,3.8154984-1.9696999C43.7431984,28.5352001,44.1576996,27.0869999,44.1576996,25.4004002z
		 M51.5415001,25.4004002c0,3.4970989-1.0068016,6.5527992-3.0298004,9.1670017
		c-2.1636009,2.8613968-4.9541016,4.3007965-8.3456993,4.3007965c-2.3936005,0-4.4243011-0.6973-6.0844994-2.0751991
		c0,0.3174019,0.0351982,1.0860023,0.105999,2.3144989c0.0703011,1.235302,0.1054993,2.2422028,0.1054993,3.0371017
		c0,4.3905983-1.3071976,6.580101-3.9208984,6.580101c-1.0689011,0-1.9429016-0.3799019-2.6407013-1.1309013
		c-0.6889-0.7588005-1.033699-1.669899-1.033699-2.7461014V16.2950001c0-1.0419998,0.3535995-1.9434004,1.0600986-2.7021999
		c0.706501-0.7510004,1.5811005-1.1299,2.6230011-1.1299c1.5718002,0,2.7198009,0.7841997,3.4443989,2.3486996
		c1.5454025-1.8896999,3.6562004-2.835,6.3320007-2.835c3.4003983,0,6.1820984,1.4120998,8.3544998,4.2481012
		C50.5259018,18.8477001,51.5415001,21.9034004,51.5415001,25.4004002z"/>
	<linearGradient id="SVGID_3_" gradientUnits="userSpaceOnUse" x1="53.5639992" y1="25.4223995" x2="78.4067001" y2="25.4223995">
		<stop  offset="0" style="stop-color:#23BAED"/>
		<stop  offset="1" style="stop-color:#3CC6EE"/>
	</linearGradient>
	<path fill-rule="evenodd" clip-rule="evenodd" fill="url(#SVGID_3_)" d="M71.0239029,22.7509995
		c-0.0356064-1.1308002-0.5566025-2.1551991-1.5634995-3.0830002c-1.0068054-0.9266987-2.0752029-1.3856983-3.2060013-1.3856983
		c-1.1655045,0-2.2519989,0.4589996-3.2588005,1.3856983c-1.0064011,0.9278011-1.5103035,1.9521999-1.5103035,3.0830002H71.0239029z
		 M78.4067001,24.6065006c0,1.2353001-0.2915039,2.0830002-0.8744965,2.5604992
		C76.9496994,27.6348,76.0400009,27.8731003,74.8125,27.8731003H61.4852982c0,1.4130993,0.6626015,2.4990005,1.9873009,3.2577991
		c1.0684013,0.5928001,2.3754997,0.8936024,3.9209023,0.8936024c1.2016983,0,2.6411972-0.3985023,4.3282013-1.1836014
		c1.6865005-0.7950001,2.7723999-1.1846008,3.2411957-1.1846008c0.8563995,0,1.5805054,0.3096008,2.1810989,0.9453011
		c0.591301,0.6278992,0.8921051,1.3866997,0.8921051,2.2616997c0,2.0214996-1.5102005,3.594799-4.5312042,4.7245979
		c-2.3046951,0.847702-4.6450958,1.2803001-7.0381012,1.2803001c-3.8505974,0-6.9594955-1.2803001-9.3349953-3.8319969
		c-2.3760033-2.552803-3.5678024-5.7588024-3.5678024-9.6358013c0-3.6923008,1.2363014-6.8446999,3.7089005-9.4755001
		c2.4639015-2.6329002,5.528801-3.9483004,9.184597-3.9483004c3.4004059,0,6.2441025,1.2451,8.5230026,3.7354002
		C77.2583008,18.2031994,78.4067001,21.1700001,78.4067001,24.6065006z"/>
	<linearGradient id="SVGID_4_" gradientUnits="userSpaceOnUse" x1="80.3672028" y1="25.1797504" x2="103.214798" y2="25.1797504">
		<stop  offset="0" style="stop-color:#23BAED"/>
		<stop  offset="1" style="stop-color:#3CC6EE"/>
	</linearGradient>
	<path fill-rule="evenodd" clip-rule="evenodd" fill="url(#SVGID_4_)" d="M103.214798,34.5049019
		c0,1.0781975-0.3447037,1.9872971-1.0332031,2.747097c-0.6976929,0.7509995-1.572197,1.1309013-2.6405945,1.1309013
		c-2.5791016,0-3.8687057-2.0489006-3.8687057-6.1376991c0-0.7862015,0.053299-2.022501,0.1592026-3.7266006
		c0.1147995-1.6963005,0.1679993-2.9414005,0.1679993-3.7275009c0-4.3369999-1.4042969-6.5087986-4.203598-6.5087986
		c-2.8003006,0-4.1953049,2.1717987-4.1953049,6.5087986c0,0.7861004,0.0439072,2.0312004,0.1235046,3.7275009
		c0.0884018,1.7040997,0.1323013,2.9403992,0.1323013,3.7266006c0,4.0887985-1.2714996,6.1376991-3.8149033,6.1376991
		c-1.0688934,0-1.942894-0.3799019-2.6317978-1.1309013c-0.6977997-0.7598-1.0424957-1.6688995-1.0424957-2.747097v-18.217701
		c0-1.0704012,0.344696-1.9786005,1.0424957-2.7120008c0.6889038-0.7420998,1.5722046-1.1122999,2.6406021-1.1122999
		c1.7666016,0,2.9935989,0.7841997,3.6826019,2.3486996c1.1923981-1.8896999,3.3026962-2.835,6.3231964-2.835
		c2.7998047,0,5.0253983,0.7412004,6.6591949,2.2158003c1.6690063,1.5820999,2.4995041,3.7539005,2.4995041,6.5186005V34.5049019z"
		/>
	<g>
		
			<linearGradient id="SVGID_5_" gradientUnits="userSpaceOnUse" x1="105.2108994" y1="25.4223995" x2="126.3788986" y2="25.4223995">
			<stop  offset="0" style="stop-color:#23BAED"/>
			<stop  offset="1" style="stop-color:#3CC6EE"/>
		</linearGradient>
		<path fill-rule="evenodd" clip-rule="evenodd" fill="url(#SVGID_5_)" d="M126.3788986,33.719799
			c0,1.6688995-1.0839996,2.9930992-3.2578049,3.9658012c-1.7304993,0.7851982-3.5585938,1.1825981-5.4843979,1.1825981
			c-3.7186966,0-6.7382965-1.3428001-9.0702972-4.0175972c-2.233902-2.5527-3.3554993-5.7060013-3.3554993-9.450201
			c0-3.7539005,1.1391983-6.9237995,3.4263-9.5205002c2.2875977-2.6044998,5.2807999-3.9033003,8.9994965-3.9033003
			c2.1464996,0,3.9922028,0.3174,5.5292969,0.9453001c2.1445007,0.8477001,3.2129059,2.1718998,3.2129059,3.9736996
			c0,0.9091015-0.2813034,1.712801-0.847702,2.4111004c-0.5643997,0.6884995-1.2890015,1.0419998-2.1717987,1.0419998
			c-0.6016006,0-1.4668045-0.2031002-2.5967026-0.5995998c-1.1298981-0.407299-2.0302963-0.6016006-2.6923981-0.6016006
			c-1.7577972,0-3.1269989,0.6270008-4.107399,1.8809013c-0.910202,1.1308002-1.3692017,2.5790997-1.3692017,4.3719997
			c0,1.6865997,0.4063034,3.1182003,1.2285995,4.2744999c0.9082031,1.3514996,2.1893997,2.0223999,3.823204,2.0223999
			c0.7245941,0,1.7128983-0.2119007,2.9755936-0.6455002c1.2637024-0.4228001,2.1738052-0.6434994,2.7383041-0.6434994
			c0.822197,0,1.527298,0.352499,2.1288986,1.0418987C126.0800934,32.1474991,126.3788986,32.8974991,126.3788986,33.719799z"/>
		<linearGradient id="SVGID_6_" gradientUnits="userSpaceOnUse" x1="128.3769073" y1="25.4223995" x2="153.218689" y2="25.4223995">
			<stop  offset="0" style="stop-color:#23BAED"/>
			<stop  offset="1" style="stop-color:#3CC6EE"/>
		</linearGradient>
		<path fill-rule="evenodd" clip-rule="evenodd" fill="url(#SVGID_6_)" d="M145.835907,25.4004002
			c0-1.6953011-0.4062042-3.1268997-1.2187042-4.2840996c-0.9452972-1.3155003-2.2168121-1.9688015-3.8145142-1.9688015
			c-1.6346893,0-2.906189,0.6533012-3.816391,1.9688015c-0.8202972,1.1571999-1.2265015,2.5887985-1.2265015,4.2840996
			c0,1.6865997,0.3963928,3.1348,1.1815948,4.3271999c0.9375153,1.3153992,2.2266083,1.9696999,3.8612976,1.9696999
			c1.6328125,0,2.9043121-0.6543007,3.8145142-1.9696999C145.4297028,28.5352001,145.835907,27.0869999,145.835907,25.4004002z
			 M153.218689,34.5049019c0,1.0781975-0.343689,1.9872971-1.0331879,2.747097
			c-0.6972046,0.7509995-1.5800018,1.1309013-2.6504059,1.1309013c-1.6074066,0-2.7539063-0.7862015-3.4432983-2.3496017
			c-1.5448914,1.8906021-3.6562958,2.8348999-6.3320007,2.8348999c-3.4257965,0-6.2344055-1.4393997-8.4082947-4.3007965
			c-1.9785004-2.6142025-2.9745941-5.6699028-2.9745941-9.1670017c0-3.4969997,0.9960938-6.5527,2.9745941-9.1756992
			c2.2089996-2.8360014,5.0078888-4.2481012,8.4082947-4.2481012c2.675705,0,4.7871094,0.9453001,6.3320007,2.835
			c0.6893921-1.5644999,1.8358917-2.3486996,3.4432983-2.3486996c1.0429993,0,1.9179993,0.3788996,2.625,1.1299
			c0.7050934,0.7587996,1.0585938,1.6513996,1.0585938,2.6944008V34.5049019z"/>
		
			<linearGradient id="SVGID_7_" gradientUnits="userSpaceOnUse" x1="155.8065948" y1="25.1797504" x2="172.0565948" y2="25.1797504">
			<stop  offset="0" style="stop-color:#23BAED"/>
			<stop  offset="1" style="stop-color:#3CC6EE"/>
		</linearGradient>
		<path fill-rule="evenodd" clip-rule="evenodd" fill="url(#SVGID_7_)" d="M172.0565948,15.7999001
			c0,1.5809994-0.7675934,2.6669006-2.3046875,3.2586994c-1.421814,0.4776001-2.835907,0.9638996-4.2480011,1.4659004
			c-1.5469055,0.8838005-2.3145142,2.5263004-2.3145142,4.9111004v9.0693016c0,1.0781975-0.3534851,1.9872971-1.0410004,2.747097
			c-0.6992035,0.7509995-1.5820007,1.1309013-2.6503906,1.1309013c-1.0760956,0-1.960907-0.3799019-2.648407-1.1309013
			c-0.6992035-0.7598-1.0429993-1.6688995-1.0429993-2.747097v-18.217701c0-1.0704012,0.3437958-1.9786005,1.0332031-2.7120008
			c0.6972961-0.7420998,1.5821075-1.1122999,2.6503906-1.1122999c1.7656097,0,2.9922028,0.7841997,3.6817169,2.3486996
			c1.5820007-1.8896999,3.2772827-2.835,5.1053925-2.835c1.0410004,0,1.933609,0.3789005,2.6757965,1.1299
			C171.6855011,13.8662996,172.0565948,14.7665997,172.0565948,15.7999001z"/>
		
			<linearGradient id="SVGID_8_" gradientUnits="userSpaceOnUse" x1="173.3182983" y1="21.1924496" x2="191.3182983" y2="21.1924496">
			<stop  offset="0" style="stop-color:#23BAED"/>
			<stop  offset="1" style="stop-color:#3CC6EE"/>
		</linearGradient>
		<path fill-rule="evenodd" clip-rule="evenodd" fill="url(#SVGID_8_)" d="M191.3182983,16.1357994
			c0,1.642601-0.6445007,2.6758003-1.9237976,3.1182003c-0.6289063,0.2207012-1.9453125,0.3348999-3.9492035,0.3348999v14.9160023
			c0,1.0781975-0.3535004,1.9872971-1.0410004,2.747097c-0.6992035,0.7509995-1.5820007,1.1309013-2.6503906,1.1309013
			c-1.0410004,0-1.9258118-0.3799019-2.6328125-1.1309013c-0.7050934-0.7598-1.0585938-1.6688995-1.0585938-2.747097V19.5888996
			c-1.5195007,0-2.6231079-0.1942997-3.3202972-0.5732002c-0.9532013-0.5303001-1.4239044-1.4932003-1.4239044-2.8799
			c0-1.3857994,0.4864044-2.3310995,1.4667969-2.8349991c0.6622009-0.3711004,1.7579041-0.5644007,3.2774048-0.5644007v-1.4843998
			v-1.6777c0-3.7177997,1.2265015-5.5723,3.6914063-5.5723c2.4550934,0,3.691391,1.8545003,3.691391,5.5723v1.6777v1.4843998
			c2.003891,0,3.3202972,0.1142006,3.9492035,0.3348999C190.6737976,13.5127001,191.3182983,14.5381002,191.3182983,16.1357994z"/>
	</g>
	<g>
		<linearGradient id="SVGID_9_" gradientUnits="userSpaceOnUse" x1="101.7929993" y1="5.9312" x2="110.5888977" y2="5.9312">
			<stop  offset="0" style="stop-color:#23BAED"/>
			<stop  offset="1" style="stop-color:#3CC6EE"/>
		</linearGradient>
		<path fill-rule="evenodd" clip-rule="evenodd" fill="url(#SVGID_9_)" d="M106.1996994,3.7901001h-1.0156021V5.6436h1.0156021
			c0.5742035,0,0.9716949-0.0703001,1.1923981-0.2118998c0.2207031-0.1416001,0.3265991-0.3877001,0.3265991-0.75
			c0-0.3086004-0.123497-0.5293002-0.3705978-0.6709003C107.1005936,3.8604,106.721199,3.7901001,106.1996994,3.7901001z
			 M106.3324966,3.3038001c0.7153015,0,1.2445984,0.1151998,1.5805969,0.3446999
			c0.335907,0.2207,0.5034027,0.5742002,0.5034027,1.0585999c0,0.3534999-0.1060028,0.6543002-0.3266983,0.8926001
			c-0.221199,0.2392001-0.5210037,0.3895998-0.8833008,0.4238l1.1308975,2.3945003h-0.7778015l-1.0947952-2.2871003h-1.2807007
			v2.2871003h-0.6977997V3.3038001H106.3324966z M110.1561966,5.9355998c0-0.5292997-0.0966034-1.0331998-0.300293-1.5098
			c-0.1938095-0.4862998-0.477005-0.9100997-0.8476105-1.2811999c-0.3798981-0.3799-0.8125-0.6708999-1.2983932-0.8662
			C107.2333984,2.086,106.721199,1.9786,106.1820984,1.9786c-0.5386047,0-1.0419998,0.0976-1.5102005,0.2997999
			c-0.4771042,0.1953001-0.9009018,0.4785001-1.2719955,0.8408c-0.3794022,0.3877001-0.6709061,0.8290999-0.8740005,1.3144
			c-0.2032013,0.4864001-0.3003082,0.9815001-0.3003082,1.5019999S102.3227005,6.96,102.5259018,7.4375
			c0.1942978,0.4766002,0.4857941,0.9004002,0.8656921,1.2803001c0.3794022,0.3799,0.8031998,0.6620998,1.2891006,0.8653002
			c0.477005,0.2020998,0.9804001,0.3094997,1.5014038,0.3094997c0.5209961,0,1.0243988-0.1073999,1.5190964-0.3094997
			c0.4853058-0.2032003,0.9184036-0.4942007,1.3070984-0.8741007c0.3706055-0.3710995,0.6621017-0.7948995,0.8564072-1.2635994
			C110.0595932,6.9776001,110.1561966,6.4737,110.1561966,5.9355998z M106.1820984,1.5196
			c0.6006012,0,1.1660004,0.1151999,1.7045975,0.3358999c0.5386047,0.2207,1.0156021,0.5479,1.4312057,0.9628999
			c0.4140015,0.4141002,0.7235947,0.8838,0.9442978,1.4219003c0.2207031,0.5292997,0.3266983,1.1034999,0.3266983,1.6952996
			c0,0.6006002-0.1059952,1.1660004-0.3266983,1.6865001c-0.2114029,0.5215006-0.5302963,0.9883003-0.9442978,1.4042997
			c-0.4331055,0.4247999-0.9189987,0.7510004-1.4576035,0.9795008c-0.5390015,0.2304993-1.0951996,0.3368998-1.6781998,0.3368998
			s-1.1390991-0.1064005-1.6688995-0.3368998c-0.5302963-0.2207003-1.0069046-0.5459003-1.4311981-0.9707003
			c-0.4150009-0.415-0.7417068-0.8915997-0.9624023-1.4209003c-0.2206955-0.5311999-0.3265991-1.0956998-0.3265991-1.6787
			s0.1059036-1.1483998,0.3353958-1.6875C102.3490982,3.71,102.6763,3.2237,103.1000977,2.8008001
			c0.4061966-0.4150002,0.8651962-0.7334001,1.3955002-0.9541001C105.0253983,1.6348,105.5814972,1.5196,106.1820984,1.5196z"/>
	</g>
	<linearGradient id="SVGID_10_" gradientUnits="userSpaceOnUse" x1="196.7753906" y1="14.02005" x2="250.6340179" y2="14.02005">
		<stop  offset="0" style="stop-color:#23BAED"/>
		<stop  offset="1" style="stop-color:#3CC6EE"/>
	</linearGradient>
	<path fill="url(#SVGID_10_)" d="M196.7753906,0c6.9082031,7.2686,13.3632965,8.3555002,38.8066101,8.3555002
		c25.4355774,0,14.2539063,5.6610994-1.4570007,19.6846008c4.9804993-8.6620998,22.0975952-16.3290997-5.9610138-15.8964996
		C201.2714996,12.5508003,199.6815948,4.3642998,196.7753906,0z"/>
	
		<linearGradient id="SVGID_11_" gradientUnits="userSpaceOnUse" x1="207.1893921" y1="34.9248505" x2="214.8807983" y2="34.9248505">
		<stop  offset="0" style="stop-color:#23BAED"/>
		<stop  offset="1" style="stop-color:#3CC6EE"/>
	</linearGradient>
	<path fill="url(#SVGID_11_)" d="M214.8807983,34.9296989c0,2.1202011-1.7207031,3.8409004-3.8417969,3.8409004
		c-2.1289063,0-3.8496094-1.7206993-3.8496094-3.8409004c0-2.1288986,1.7207031-3.8505993,3.8496094-3.8505993
		C213.1600952,31.0790997,214.8807983,32.8008003,214.8807983,34.9296989z"/>
	<linearGradient id="SVGID_12_" gradientUnits="userSpaceOnUse" x1="224.710907" y1="34.9248505" x2="232.402298" y2="34.9248505">
		<stop  offset="0" style="stop-color:#23BAED"/>
		<stop  offset="1" style="stop-color:#3CC6EE"/>
	</linearGradient>
	<path fill="url(#SVGID_12_)" d="M232.402298,34.9296989c0,2.1202011-1.7207031,3.8409004-3.8417969,3.8409004
		c-2.1269073,0-3.8495941-1.7206993-3.8495941-3.8409004c0-2.1288986,1.7226868-3.8505993,3.8495941-3.8505993
		C230.6815948,31.0790997,232.402298,32.8008003,232.402298,34.9296989z"/>
</g>
</svg>
